<svg xmlns="http://www.w3.org/2000/svg" viewBox="0 0 832 1216" role="img" aria-label="艾拉·瓦尔哈拉 - 夏日度假服"><defs><path id="aila-swimsuit-t-faceShape" d="M416,211C397.3,211 377.3,211.5 360,216S325.2,227.5 312,238S288.5,263.7 281,279S270,312.3 267,330S263.5,367.7 263,385S263.4,421.9 264,434S264.9,450 266.5,457.8S270.6,473.3 273.5,480.7S280,495.4 284,502.3S292.4,515.9 297.2,522.3S307.1,534.9 312.6,540.7S323.9,552.1 330,557.2S342.5,567.3 349.1,571.6S362.8,580 370,583.4S384.7,589.9 392.4,592S408.1,596 416,596S431.9,594.1 439.6,592S454.8,586.8 462,583.4S476.2,576 482.9,571.6S495.9,562.4 502,557.2S514,546.5 519.4,540.7S530.1,528.7 534.8,522.3S544.1,509.2 548,502.3S555.6,488.2 558.5,480.7S563.9,465.6 565.5,457.8S567.4,446.1 568,434S569.5,402.3 569,385S568,347.7 565,330S558.5,294.3 551,279S533.2,248.5 520,238S489.3,220.5 472,216S434.7,211 416,211Z"/><path id="aila-swimsuit-t-bodyShape" d="M378,560C364.8,569.3 376.2,599 375,616S372.8,649 371,662S369.8,685.5 364,694S349.3,706.3 336,713S302,727.2 284,734S243.3,747.5 228,754S202.3,765 192,773S173,789.8 166,802S154.3,826.7 150,846S142.7,890.7 140,918S135.7,960.3 134,1010S130,1216 130,1216C130,1216 702,1216 702,1216C702,1216 699.7,1059.7 698,1010S694.7,945.3 692,918S686.3,865.3 682,846S673,814.2 666,802S650.3,781 640,773S619.3,760.5 604,754S566,740.8 548,734S509.3,719.7 496,713S473.8,702.5 468,694S462.8,675 461,662S458.2,633 457,616S467.2,569.3 454,560S391.2,550.7 378,560Z"/><clipPath id="aila-swimsuit-t-faceClip"><use href="#aila-swimsuit-t-faceShape"/></clipPath><clipPath id="aila-swimsuit-t-bodyClip"><use href="#aila-swimsuit-t-bodyShape"/></clipPath><clipPath id="aila-swimsuit-t-torsoClip"><path d="M364,694C341.7,697.3 348.3,707 334,714S294.3,728.3 278,736S243,730.7 236,760S236,912 236,912C236,912 253.7,1009.3 262,1060S286,1216 286,1216C286,1216 546,1216 546,1216C546,1216 561.7,1110.7 570,1060S596,912 596,912C596,912 603,789.3 596,760S570.3,743.7 554,736S512.3,721 498,714S490.3,697.3 468,694S386.3,690.7 364,694Z"/></clipPath><filter id="aila-swimsuit-t-soft" x="-20%" y="-20%" width="140%" height="140%"><feGaussianBlur stdDeviation="6"/></filter><filter id="aila-swimsuit-t-glow" x="-50%" y="-50%" width="200%" height="200%"><feGaussianBlur stdDeviation="5" result="b"/><feMerge><feMergeNode in="b"/><feMergeNode in="SourceGraphic"/></feMerge></filter><filter id="aila-swimsuit-t-cast" x="-5%" y="-5%" width="110%" height="120%"><feOffset in="SourceAlpha" dx="4" dy="13" result="o"/><feFlood flood-color="#e5aca3"/><feComposite in2="o" operator="in"/></filter><filter id="aila-swimsuit-t-rim" x="-3%" y="-3%" width="106%" height="106%" color-interpolation-filters="sRGB"><feOffset in="SourceAlpha" dx="-6" dy="2" result="o1"/><feComposite in="SourceAlpha" in2="o1" operator="out" result="e1"/><feGaussianBlur in="e1" stdDeviation=".9" result="b1"/><feFlood flood-color="#f5c84c" flood-opacity=".95"/><feComposite in2="b1" operator="in" result="r1"/><feOffset in="SourceAlpha" dx="5" dy="6" result="o2"/><feComposite in="SourceAlpha" in2="o2" operator="out" result="e2"/><feGaussianBlur in="e2" stdDeviation="1.2" result="b2"/><feFlood flood-color="#e8ddff" flood-opacity=".5"/><feComposite in2="b2" operator="in" result="r2"/><feMerge><feMergeNode in="r2"/><feMergeNode in="r1"/></feMerge><feComposite in2="SourceAlpha" operator="in"/></filter><linearGradient id="aila-swimsuit-dome" x1="300" y1="180" x2="540" y2="420" gradientUnits="userSpaceOnUse"><stop offset="0" stop-color="#ffd56a"/><stop offset="0.6" stop-color="#f6c854"/><stop offset="1" stop-color="#d4952f"/></linearGradient><clipPath id="aila-swimsuit-bangClip"><path d="M482,216.7Q486.3,248.1 486.8,263.8T484.8,294.7T478.1,324.3T469.6,353.2T456,398Q447.8,367.1 445.3,351.2T443.3,319.5T446.5,288.7T453.7,259.1T470,215.3L482,216.7Z"/><path d="M472.6,218.7Q463.6,248.1 458.9,261.7T449,287.9T437.7,312.4T425.5,336.5T413.3,362.2T394,404Q386.9,373.4 384.6,357.6T383.4,325.3T389.6,293.4T403.1,264.3T422.9,239.4T459.4,209.3L472.6,218.7Z"/><path d="M477.1,221.2Q456.1,246 446.5,257.3T427.9,279T409.3,299T390.4,318.6T371.8,339.3T353.6,361.5T336.9,386.2T314,428Q310.7,395.4 310.5,378.4T313.5,344.3T322.9,311T338.2,279.7T359.2,251.7T385.7,229.1T416.9,213.9T466.9,202.8L477.1,221.2Z"/><path d="M481.8,220.1Q456.3,239.6 442.9,247.6T415.9,261.4T389.5,274.8T350,300Q366.2,271.6 377,258.7T402,237.2T431.3,223.3T478.2,211.9L481.8,220.1Z"/></clipPath><linearGradient id="aila-swimsuit-bangRoot" x1="0" y1="214" x2="0" y2="272" gradientUnits="userSpaceOnUse"><stop offset="0" stop-color="#93561a" stop-opacity="0.6"/><stop offset="1" stop-color="#93561a" stop-opacity="0"/></linearGradient><g id="aila-swimsuit-t-hairFront"><g stroke-linejoin="round"><path d="M296.3,297.6Q298,346.7 297.7,370.5T295.8,417.5T292.5,463.9T289.8,510.5T288,558.5T282.5,608.2T267.4,656.4T226,718Q244.5,673.9 248,651.2T250.3,605.6T245.5,559.3T239.8,511.2T238.1,461.6T241.8,412T252.7,363.6T279.7,294.4L296.3,297.6Z" fill="#f6c854" stroke="#5c330c" stroke-width="2"/><path d="M296.3,297.6Q298,346.7 297.7,370.5T295.8,417.5T292.5,463.9T289.8,510.5T288,558.5T282.5,608.2T267.4,656.4T226,718Q250.8,676.7 257.7,653.8T266.4,606.9T266.8,558.9T264.8,510.8T265.3,462.7T268.8,414.7T275.1,367T288,296L296.3,297.6Z" fill="#d4952f" opacity="0.8"/><path d="M269.2,385.4Q268.2,391.1 267.8,393.9T266.9,399.5T265.7,408Q259.1,401.4 257.6,398.3T258.8,392.7T269.2,385.4Z" fill="#fff7c8" opacity="0.9"/><path d="M300.4,320.7Q299.7,358 299,376.5T297.3,413T295.7,449.2T294.3,486T291.5,523.2T286.5,560.6T277,597.3T252,648Q262.9,612.7 265.6,594.8T268.1,558.8T267.5,522.3T266.5,485.4T266.1,448.1T269,410.5T276.3,373.5T291.6,319.3L300.4,320.7Z" fill="#f6c854" stroke="#5c330c" stroke-width="2"/><path d="M300.4,320.7Q299.7,358 299,376.5T297.3,413T295.7,449.2T294.3,486T291.5,523.2T286.5,560.6T277,597.3T252,648Q266.7,614 271.3,596.1T277.3,559.7T279.5,522.7T280.4,485.7T280.9,448.7T283.1,411.7T287.6,374.9T296,320L300.4,320.7Z" fill="#d4952f" opacity="0.8"/><path d="M284,389.2Q282.8,397.9 282.2,402.3T281.2,411.1T279.9,424.2Q276.8,415 276.2,410.5T277.4,401.7T284,389.2Z" fill="#fff7c8" opacity="0.9"/><path d="M400.2,185.1Q394.6,172 392.1,165.8T386.4,154.3T378.8,144.5T369,136.7T357.3,131.9T344.3,130.5T326,138Q336.2,127.5 343.5,125.7T358.6,124.2T373.6,127.6T386.8,135.8T397.1,147.5T403.5,161.4T407.8,182.9L400.2,185.1Z" fill="#f6c854" stroke="#5c330c" stroke-width="2.4"/><path d="M258,440C253.7,440 249,393.3 248,370S248,320.7 252,300S262.3,262 272,246S295.3,214.7 310,204S342.3,186.7 360,182S397.3,176 416,176S454.3,177.3 472,182S507.7,193.7 522,204S548.7,228.7 558,244S574,278 578,296S582.7,333 582,352S578.3,408.7 574,410S565,377.3 556,360S534.3,319.3 520,306S487.3,285 470,280S434,275.7 416,276S379.3,276.3 362,282S326.7,295.3 312,310S283,348.3 274,370S262.3,440 258,440Z" fill="url(#aila-swimsuit-dome)" stroke="#5c330c" stroke-width="3.4"/><path d="M578,296C581,311 582.7,333 582,352S578.3,408.7 574,410S564,376.3 556,360S527.7,325 526,312S539.7,290.3 546,282S558.7,259.7 564,262S575,281 578,296Z" fill="#d4952f" opacity=".75"/><path d="M262,316C263.3,307 272,280.7 282,266S305.7,238 322,228S360.3,210.3 380,206S420,201.3 440,202S482.3,204.7 500,210S534,223 546,234S569.7,268 572,276S560,282 560,282C560,282 550,294 550,294C550,294 538,270 538,270C538,270 520,284 520,284C520,284 506,258 506,258C506,258 486,270 486,270C486,270 468,248 468,248C468,248 448,260 448,260C448,260 428,244 428,244C428,244 408,256 408,256C408,256 388,246 388,246C388,246 368,266 368,266C368,266 350,254 350,254C350,254 332,278 332,278C332,278 316,268 316,268C316,268 298,294 298,294C298,294 286,288 286,288C286,288 274,320 274,320C274,320 260.7,325 262,316Z" fill="#fff7c8" opacity=".85"/><path d="M303.6,336.5Q303.1,367.9 302.6,383.5T301.3,414.5T300,445.1T299.5,475.7T299.3,506.9T297.4,538.5T292.5,569.8T282,616Q282.7,584.6 282.8,569.1T282,538.2T279.5,507.3T276.9,476T276.4,444.2T279.3,412.5T285.1,381.4T296.4,335.5L303.6,336.5Z" fill="#d4952f" stroke="#5c330c" stroke-width="2"/><path d="M303.6,336.5Q303.1,367.9 302.6,383.5T301.3,414.5T300,445.1T299.5,475.7T299.3,506.9T297.4,538.5T292.5,569.8T282,616Q286,585 287.6,569.5T289.6,538.4T289.4,507.1T288.2,475.8T288.2,444.6T290.3,413.5T293.8,382.5T300,336L303.6,336.5Z" fill="#93561a" opacity="0.8"/><path d="M544.1,298.1Q565.7,324.6 572.4,340T581,371.7T590,420Q565.9,395 558.8,379.9T546.5,349.8T535.9,301.9L544.1,298.1Z" fill="#d4952f" stroke="#5c330c" stroke-width="2"/><path d="M544.1,298.1Q565.7,324.6 572.4,340T581,371.7T590,420Q574.4,391.5 569.9,375.8T559.5,344.9T540,300L544.1,298.1Z" fill="#93561a" opacity="0.8"/><path d="M440.8,216.6Q411.9,236.2 399,245.9T375.5,266.2T355.3,287.2T337.9,309.2T323.5,334.5T310.9,363.2T300.1,394.3T286,444Q279.3,409.5 277,391.7T275.3,355.6T280.1,318.6T293.7,282.3T317.4,251T349,228.4T384.8,216.1T439.2,211.4L440.8,216.6Z" fill="#d4952f" stroke="#5c330c" stroke-width="2"/><path d="M440.8,216.6Q411.9,236.2 399,245.9T375.5,266.2T355.3,287.2T337.9,309.2T323.5,334.5T310.9,363.2T300.1,394.3T286,444Q287.3,410 288.5,393T293.1,359.3T301.9,326.5T315.9,295.8T336.4,269.1T362.3,247.3T392,231T440,214L440.8,216.6Z" fill="#93561a" opacity="0.8"/><path d="M489.7,218.5Q519,234.4 531.3,246T550.9,272.4T561.7,303.3T564.9,335.8T560,384Q545.7,355.7 538.9,342.3T525.3,316.3T512.8,291T502.2,264.8T486.3,221.5L489.7,218.5Z" fill="#d4952f" stroke="#5c330c" stroke-width="2"/><path d="M489.7,218.5Q519,234.4 531.3,246T550.9,272.4T561.7,303.3T564.9,335.8T560,384Q555.1,353.9 551.9,339T543.5,309.8T531.8,281.7T516.7,255.4T488,220L489.7,218.5Z" fill="#93561a" opacity="0.8"/><path d="M482,216.7Q486.3,248.1 486.8,263.8T484.8,294.7T478.1,324.3T469.6,353.2T456,398Q447.8,367.1 445.3,351.2T443.3,319.5T446.5,288.7T453.7,259.1T470,215.3L482,216.7Z" fill="#f6c854" stroke="#5c330c" stroke-width="2"/><path d="M482,216.7Q486.3,248.1 486.8,263.8T484.8,294.7T478.1,324.3T469.6,353.2T456,398Q456.5,367.4 457.4,352.2T460.7,321.9T465.6,291.7T470.2,261.5T476,216L482,216.7Z" fill="#d4952f" opacity="0.8"/><path d="M466.5,273.1Q465.3,280.3 464.7,283.8T463.5,290.9T461.6,301.6Q457.6,293.5 456.7,289.7T458,282.7T466.5,273.1Z" fill="#fff7c8" opacity="0.9"/><path d="M472.6,218.7Q463.6,248.1 458.9,261.7T449,287.9T437.7,312.4T425.5,336.5T413.3,362.2T394,404Q386.9,373.4 384.6,357.6T383.4,325.3T389.6,293.4T403.1,264.3T422.9,239.4T459.4,209.3L472.6,218.7Z" fill="#f6c854" stroke="#5c330c" stroke-width="2"/><path d="M472.6,218.7Q463.6,248.1 458.9,261.7T449,287.9T437.7,312.4T425.5,336.5T413.3,362.2T394,404Q397,374.6 398.9,359.9T404.4,330.9T413.6,302.9T426,276.1T440.9,250.6T466,214L472.6,218.7Z" fill="#d4952f" opacity="0.8"/><path d="M427.2,267Q423.2,274.2 421.3,277.8T417.6,285.2T412.5,296.4Q409.3,285.9 409.3,281.2T413.2,273.8T427.2,267Z" fill="#fff7c8" opacity="0.9"/><path d="M477.1,221.2Q456.1,246 446.5,257.3T427.9,279T409.3,299T390.4,318.6T371.8,339.3T353.6,361.5T336.9,386.2T314,428Q310.7,395.4 310.5,378.4T313.5,344.3T322.9,311T338.2,279.7T359.2,251.7T385.7,229.1T416.9,213.9T466.9,202.8L477.1,221.2Z" fill="#f6c854" stroke="#5c330c" stroke-width="2"/><path d="M477.1,221.2Q456.1,246 446.5,257.3T427.9,279T409.3,299T390.4,318.6T371.8,339.3T353.6,361.5T336.9,386.2T314,428Q319.9,397.4 323.7,382.3T333.5,352.9T347.3,325.1T364.3,299.1T384.2,275.4T406.8,254.1T431.8,235.6T472,212L477.1,221.2Z" fill="#d4952f" opacity="0.8"/><path d="M395.8,257.9Q387.6,265.4 383.7,269.4T376,277.6T365.3,290.5Q365.3,275.8 367.2,269.6T375.1,261.1T395.8,257.9Z" fill="#fff7c8" opacity="0.9"/><path d="M481.8,220.1Q456.3,239.6 442.9,247.6T415.9,261.4T389.5,274.8T350,300Q366.2,271.6 377,258.7T402,237.2T431.3,223.3T478.2,211.9L481.8,220.1Z" fill="#f6c854" stroke="#5c330c" stroke-width="2"/><path d="M481.8,220.1Q456.3,239.6 442.9,247.6T415.9,261.4T389.5,274.8T350,300Q371.4,277 383.2,266.8T408.9,249.3T437.1,235.4T480,216L481.8,220.1Z" fill="#d4952f" opacity="0.8"/><path d="M434.2,235Q428.5,237.6 425.7,238.8T420.1,241.3T411.7,245.3Q415.6,239.1 417.9,236.7T423.5,234.1T434.2,235Z" fill="#fff7c8" opacity="0.9"/><g clip-path="url(#aila-swimsuit-bangClip)"><rect x="250" y="200" width="340" height="80" fill="url(#aila-swimsuit-bangRoot)"/></g><path d="M296.2,350Q292.3,374.7 290.2,387T286.4,411.6T284.2,436.3T284.3,461.1T286.2,485.9T289,510.6T292.7,535.2T300,572Q294.1,547.7 291.4,535.5T286.8,510.9T283.3,486.1T280.9,461.2T280.4,436.1T282.5,411.1T287,386.5T295.8,350L296.2,350Z" fill="#f6c854" stroke="#5c330c" stroke-width="1.2"/></g></g><linearGradient id="aila-swimsuit-backG" x1="0" y1="200" x2="0" y2="740" gradientUnits="userSpaceOnUse"><stop offset="0" stop-color="#d4952f"/><stop offset="0.6" stop-color="#93561a"/></linearGradient><linearGradient id="aila-swimsuit-t-skinBody" x1="0" y1="560" x2="0" y2="1000" gradientUnits="userSpaceOnUse"><stop offset="0" stop-color="#f9e3d4"/><stop offset="0.6" stop-color="#f4d5c8"/><stop offset="1" stop-color="#e5aca3"/></linearGradient><pattern id="aila-swimsuit-o-print" width="52" height="52" patternUnits="userSpaceOnUse" patternTransform="rotate(-10)"><path d="M22,17q6,-8 12,-6q-4,7 -12,6zM42,44q-7,-5 -6,-12q7,3 6,12z" fill="#8cc79a"/><path d="M16.6,9.4a2.6,2.6 0 1 0 -5.2,0a2.6,2.6 0 1 0 5.2,0M21.0,12.6a2.6,2.6 0 1 0 -5.2,0a2.6,2.6 0 1 0 5.2,0M19.3,17.7a2.6,2.6 0 1 0 -5.2,0a2.6,2.6 0 1 0 5.2,0M13.9,17.7a2.6,2.6 0 1 0 -5.2,0a2.6,2.6 0 1 0 5.2,0M12.2,12.6a2.6,2.6 0 1 0 -5.2,0a2.6,2.6 0 1 0 5.2,0M38.1,32.3a2.1,2.1 0 1 0 -4.2,0a2.1,2.1 0 1 0 4.2,0M41.7,34.8a2.1,2.1 0 1 0 -4.2,0a2.1,2.1 0 1 0 4.2,0M40.3,39.0a2.1,2.1 0 1 0 -4.2,0a2.1,2.1 0 1 0 4.2,0M35.9,39.0a2.1,2.1 0 1 0 -4.2,0a2.1,2.1 0 1 0 4.2,0M34.6,34.8a2.1,2.1 0 1 0 -4.2,0a2.1,2.1 0 1 0 4.2,0" fill="#7fb9ee"/><path d="M14,14h0M36,36h0" stroke="#ffd24a" stroke-width="3.4" stroke-linecap="round"/></pattern><linearGradient id="aila-swimsuit-o-cotton" x1="0" y1="700" x2="0" y2="1150" gradientUnits="userSpaceOnUse"><stop offset="0" stop-color="#ffffff"/><stop offset="0.5" stop-color="#fbfaf6"/><stop offset="1" stop-color="#dcdbe4"/></linearGradient><pattern id="aila-swimsuit-o-rib" width="9" height="40" patternUnits="userSpaceOnUse"><path d="M4.5,0V40" stroke="#7f84af" stroke-width="1.6" opacity=".2"/></pattern><clipPath id="aila-swimsuit-o-panelClip"><path d="M364,690C416,694.3 355.7,702.7 352,716S344.5,749.3 342,770S338.2,821 337,840S335,884 335,884C335,884 312.2,894.7 300,898S272,903 262,904S240,904 240,904C240,904 238.3,968 238,1000S238,1096 238,1096C238,1096 40,1096 40,1096C40,1096 40,690 40,690C40,690 312,685.7 364,690Z"/></clipPath><g id="aila-swimsuit-o-cardi"><g clip-path="url(#aila-swimsuit-t-bodyClip)"><g clip-path="url(#aila-swimsuit-o-panelClip)"><rect x="40" y="680" width="330" height="420" fill="#bcccff"/><rect x="40" y="680" width="330" height="420" fill="url(#aila-swimsuit-o-rib)"/><path d="M162,830C168,836.7 185.3,856.3 198,870S231.7,882 238,912S236.7,999.3 236,1050S234.3,1188.3 234,1216" fill="none" stroke="#725a36" stroke-width="2.6" opacity=".7"/><path d="M176.6,899.9Q181.1,923.9 183.1,936T186.5,960.3T188.3,984.8T187.8,1009.3T185.3,1033.7T180,1070Q181.5,1045.6 182.2,1033.4T183.1,1009.1T182.6,984.9T180.8,960.8T178.5,936.6T175.4,900.1L176.6,899.9ZM214.5,960Q219.1,986.4 220.2,999.8T222,1040Q217.4,1013.5 215.8,1000.2T213.5,960L214.5,960ZM270.2,799.9Q283.5,826.4 288.5,840.4T296,884Q289.3,855.4 284.3,841.7T269.8,800.1L270.2,799.9Z" fill="#a1a9db"/><path d="M346.4,709.1Q329.5,715.9 321.1,719.3T304.5,726.3T288.1,733.8T271.9,741.6T255.9,749.6T239.9,757.8T224.2,766.3T209.2,775.5T194.8,785.7T181.3,797T169.8,810T160.9,825.2T150,850Q154.6,832.4 157.4,823.6T164.6,806.6T175.2,791.3T188.3,778T202.7,766.3T218.2,756.1T234.4,747.3T250.9,739.3T267.6,732T284.6,725.4T301.9,719.4T319.3,714.1T345.6,706.9L346.4,709.1Z" fill="#dee6ff" opacity=".9"/></g></g><g clip-path="url(#aila-swimsuit-t-bodyClip)"><path d="M134.1,1071.2Q149.3,1074.1 156.8,1075.5T171.6,1077.8T186,1078.7T200.4,1077.8T215.2,1075.5T237.9,1071.2L242.1,1092.8Q226.7,1095.7 218.8,1097.1T202.7,1099.6T186,1100.7T169.3,1099.6T153.2,1097.1T129.9,1092.8L134.1,1071.2Z" fill="#bcccff" stroke="#725a36" stroke-width="2.2" stroke-linejoin="round"/><path d="M140,1092L143,1075M150,1094L153,1077M160,1096L163,1079M170,1098L172,1080M181,1099L181,1081M191,1099L191,1081M202,1098L200,1080M212,1096L209,1079M222,1094L219,1077M232,1092L229,1075" stroke="#a1a9db" stroke-width="1.6"/></g><path d="M343.1,889.5Q328.6,894.2 321.2,896.5T306,900.7T290.3,903.6T274.6,905.2T259,906T235.8,906L236.2,886Q251.1,886.3 258.4,886T273,885.2T287.5,883.8T301.6,881.2T315.5,877.3T336.9,870.5L343.1,889.5Z" fill="#bcccff" stroke="#725a36" stroke-width="2.2" stroke-linejoin="round"/><path d="M323,877L328,892M309,881L313,897M295,885L298,901M281,887L282,903M266,888L267,904M251,888L251,904" stroke="#a1a9db" stroke-width="1.6"/><path d="M371,698.4Q365.1,710.3 362.9,716.3T359.3,728.6T356.6,741.5T354.3,754.7T352.4,768T350.9,781.5T349.9,795.1T349.1,808.7T348.4,822.4T347.8,836.2T347.2,849.9T346.7,863.6T346,884.3L326,883.7Q326.5,869.9 326.7,863T327.2,849.1T327.8,835.2T328.4,821.4T329.1,807.6T330,793.7T331.1,779.7T332.6,765.6T334.5,751.6T336.9,737.7T340,723.6T344.2,709.5T353,689.6L371,698.4Z" fill="#bcccff" stroke="#725a36" stroke-width="2.2" stroke-linejoin="round"/><path d="M348,704L363,710M343,719L358,724M340,734L355,737M337,749L353,752M335,764L351,766M333,779L349,781M332,794L348,795M331,809L347,810M330,824L346,825M330,839L346,840M329,854L345,855M328,869L344,869" stroke="#a1a9db" stroke-width="1.6"/></g><linearGradient id="aila-swimsuit-t-skinFace" x1="300" y1="330" x2="520" y2="591" gradientUnits="userSpaceOnUse"><stop offset="0" stop-color="#fff4ec"/><stop offset="0.4" stop-color="#f9e3d4"/><stop offset="1" stop-color="#f2d0c3"/></linearGradient><radialGradient id="aila-swimsuit-t-blush" cx="0.5" cy="0.5" r="0.5"><stop offset="0" stop-color="#ff8796" stop-opacity="0.187"/><stop offset="1" stop-color="#ff8796" stop-opacity="0"/></radialGradient><clipPath id="aila-swimsuit-t-eyeL"><path d="M386.5,445.5C385.8,442.6 384.7,432.5 382.1,428.1S376.1,421.2 371.1,419.3S358.8,417.1 352.4,417.1S338.3,417.9 332.6,419.6S322.3,424.2 318.3,427.5S310,437 308.4,438.9C310.6,441.1 315.7,449.2 321.6,452.3S335.5,456.8 343.6,457.2S362.9,456.4 370,454.5S383.8,447 386.5,445.5Z"/></clipPath><linearGradient id="aila-swimsuit-t-irisL" x1="0" y1="0" x2="0" y2="1"><stop offset="0" stop-color="#0e265c"/><stop offset="0.3" stop-color="#163a8e"/><stop offset="0.7" stop-color="#5d9bdd"/><stop offset="1" stop-color="#7cc4ff"/></linearGradient><linearGradient id="aila-swimsuit-t-white" x1="0" y1="0" x2="0" y2="1"><stop offset="0" stop-color="#c9bfe2"/><stop offset="0.5" stop-color="#f8f4fc"/><stop offset="1" stop-color="#f8f4fc"/></linearGradient><clipPath id="aila-swimsuit-t-eyeR"><path d="M445.5,445.5C446.2,442.6 447.3,432.5 449.9,428.1S455.9,421.2 460.9,419.3S473.2,417.1 479.6,417.1S493.7,417.9 499.4,419.6S509.7,424.2 513.7,427.5S522,437 523.6,438.9C521.4,441.1 516.3,449.2 510.4,452.3S496.5,456.8 488.4,457.2S469.1,456.4 462,454.5S448.2,447 445.5,445.5Z"/></clipPath><linearGradient id="aila-swimsuit-t-irisR" x1="0" y1="0" x2="0" y2="1"><stop offset="0" stop-color="#0e265c"/><stop offset="0.3" stop-color="#163a8e"/><stop offset="0.7" stop-color="#5d9bdd"/><stop offset="1" stop-color="#7cc4ff"/></linearGradient><radialGradient id="aila-swimsuit-clipGlow" cx="566" cy="326" r="40" gradientUnits="userSpaceOnUse"><stop offset="0" stop-color="#fff3c0" stop-opacity="0.6"/><stop offset="1" stop-color="#f5c84c" stop-opacity="0"/></radialGradient><linearGradient id="aila-swimsuit-o-sea" x1="0" y1="612" x2="0" y2="1000" gradientUnits="userSpaceOnUse"><stop offset="0" stop-color="#1c3a5e" stop-opacity="0.85"/><stop offset="0.3" stop-color="#0e2240" stop-opacity="0.8"/><stop offset="1" stop-color="#070614" stop-opacity="0.6"/></linearGradient><linearGradient id="aila-swimsuit-t-bg" x1="0" y1="0" x2="0" y2="1216" gradientUnits="userSpaceOnUse"><stop offset="0" stop-color="#0d0c22"/><stop offset="0.6" stop-color="#1c1838"/><stop offset="1" stop-color="#080614"/></linearGradient><radialGradient id="aila-swimsuit-t-bgglow" cx="430" cy="420" r="430" gradientUnits="userSpaceOnUse"><stop offset="0" stop-color="#f5c84c" stop-opacity="0.22"/><stop offset="0.6" stop-color="#f5c84c" stop-opacity="0.07"/><stop offset="1" stop-color="#f5c84c" stop-opacity="0"/></radialGradient><linearGradient id="aila-swimsuit-t-bgfade" x1="0" y1="0" x2="0" y2="1"><stop offset="0" stop-color="#080614" stop-opacity="0"/><stop offset="1" stop-color="#080614" stop-opacity="0.9"/></linearGradient><linearGradient id="aila-swimsuit-t-moonwash" x1="0" y1="0" x2="760" y2="900" gradientUnits="userSpaceOnUse"><stop offset="0" stop-color="#e8ddff" stop-opacity="0.16"/><stop offset="0.5" stop-color="#e8ddff" stop-opacity="0"/><stop offset="1" stop-color="#e8ddff" stop-opacity="0"/></linearGradient><linearGradient id="aila-swimsuit-t-ambient" x1="120" y1="300" x2="832" y2="1100" gradientUnits="userSpaceOnUse"><stop offset="0" stop-color="#0e1a3a" stop-opacity="0"/><stop offset="0.6" stop-color="#0e1a3a" stop-opacity="0"/><stop offset="1" stop-color="#0e1a3a" stop-opacity="0.35"/></linearGradient><linearGradient id="aila-swimsuit-t-fade" x1="0" y1="0" x2="0" y2="1"><stop offset="0" stop-color="#080614" stop-opacity="0"/><stop offset="0.6" stop-color="#080614" stop-opacity="0.55"/><stop offset="1" stop-color="#080614" stop-opacity="0.93"/></linearGradient><radialGradient id="aila-swimsuit-t-vig" cx="0.5" cy="0.4" r="0.8"><stop offset="0" stop-color="#000" stop-opacity="0"/><stop offset="0.6" stop-color="#000" stop-opacity="0"/><stop offset="1" stop-color="#000" stop-opacity="0.55"/></radialGradient></defs><rect width="832" height="1216" fill="url(#aila-swimsuit-t-bg)"/><rect width="832" height="1216" fill="url(#aila-swimsuit-t-bgglow)"/><g stroke="#e8ddff" stroke-linecap="round" fill="none"><path d="M356.4,126.2h0M305.3,813.2h0M27.3,125.8h0M547.7,352.1h0M203.2,402.4h0M103.1,426.7h0M388.7,220.6h0M432.7,640.6h0M50.4,169.5h0M187.1,231.2h0M331.6,669.9h0M208.2,223.3h0M334,418.1h0" stroke-width="1.6" opacity="0.45"/><path d="M21.8,171.2h0M775.1,507.9h0M592,481.1h0M147.1,188.5h0M484.7,531.9h0M679.9,153.9h0M41.7,261.8h0M498.5,886.7h0M522.5,647.7h0M161.7,770.1h0M78.4,830.9h0M674.6,771.1h0M508.3,536.5h0M311.9,573.2h0M368.8,658.7h0M559.1,505.7h0M442.1,544.1h0M440.5,368.8h0M740.6,651.6h0M342.4,18.2h0M389.9,234h0M256.3,670.8h0M464,215.9h0M382.9,144.1h0M663.9,128.7h0M347.8,564.8h0M776.6,161.3h0M389.8,511.7h0M500.7,512h0" stroke-width="2.4" opacity="0.3"/><path d="M174.2,520.7h0M125.9,429.6h0M168.5,84.5h0M244.6,495.6h0M95.4,650.3h0M480.4,685.5h0M219.3,382.4h0M318,834.3h0M268,545.4h0M589.9,587h0M170.4,499.6h0M787,35.5h0M376.3,721.4h0M380.3,844.5h0M336,368.8h0M108.8,161.9h0M399.2,198.9h0M712.6,785.2h0" stroke-width="3.2" opacity="0.18"/></g><path d="M0,612H832V1216H0Z" fill="url(#aila-swimsuit-o-sea)"/><path d="M0,612H832" stroke="#8fd4f5" stroke-width="2" opacity=".35"/><path d="M735.8,760.4h34.7M37.7,717.1h23.2M677.8,636.8h11.5M680.6,763.6h13.8M176.7,746.2h22.8M674.9,685.1h43.2M216.6,638.8h37.5M652.6,755.2h40.9M826.9,648.1h12.3M796.2,667.3h48.3M658.9,736.1h25.2M131.5,685.2h29.1M74,654.7h23.7M753,743.6h37M671.9,733.2h37.6M173.5,648.9h38.6M601.6,711.2h14.7M682.3,706.2h31.8" stroke="#e8ddff" stroke-width="2.6" stroke-linecap="round" opacity=".3"/><path d="M-20,40L3.2,43.6L26.5,47.2L49.6,51.6L72.4,57.5L94.5,65.7L115.9,75.3L136.6,86.4L156.4,99.2L174.5,114.2L190.1,131.8L204,150.8L217,170.4L230,190M3.2,43.6l27.6,114.6M3.2,43.6l52.5,-45.5M26.5,47.2l23.2,108.4M26.5,47.2l51.5,-41M49.6,51.6l16.8,102.4M49.6,51.6l52,-35.1M72.4,57.5l7.9,96.5M72.4,57.5l53.9,-27.3M94.5,65.7l2.8,89.5M94.5,65.7l52.9,-21.7M115.9,75.3l-1.8,82.2M115.9,75.3l51.1,-16.5M136.6,86.4l-6.4,74.5M136.6,86.4l49.2,-11M156.4,99.2l-11.6,66.2M156.4,99.2l47,-4.7M174.5,114.2l-17,56.9M174.5,114.2l44.3,2.5M190.1,131.8l-18.4,48.4M190.1,131.8l39.7,5.8M204,150.8l-17.3,40.9M204,150.8l34.4,6.6M217,170.4l-14.5,34.3M217,170.4l28.9,5.6M-10,10L12.4,4L34.8,-2.1L57.5,-7.1L80.5,-10L103.6,-8.6L126.3,-3.8L148.5,3.1L170.1,11.5L191.4,20.7L212,31.5L231.6,43.8L250.8,56.9L270,70M12.4,4l60.4,95.9M12.4,4l17.8,-60.4M34.8,-2.1l53.4,92.7M34.8,-2.1l20.8,-55.8M57.5,-7.1l43.9,91M57.5,-7.1l26.5,-50M80.5,-10l29,90.9M80.5,-10l36.9,-40.8M103.6,-8.6l17.3,87.3M103.6,-8.6l42.4,-32.1M126.3,-3.8l10,81.4M126.3,-3.8l43.4,-25.5M148.5,3.1l5.4,74.6M148.5,3.1l42.1,-20.6M170.1,11.5l2.8,67.5M170.1,11.5l39.4,-17M191.4,20.7l-1,60.2M191.4,20.7l37.3,-12.3M212,31.5l-3.8,52.7M212,31.5l34.4,-8.4M231.6,43.8l-4.6,45.2M231.6,43.8l30.2,-6.1M250.8,56.9l-4,37.9M250.8,56.9l25.4,-5M0,120L12.4,135.8L24.8,151.6L36.7,167.9L47.3,185L56.1,203.1L63.5,221.8L69.9,240.8L75.4,260.2L80,279.8L82.7,299.7L83.7,319.8L83.9,339.9L84,360M12.4,135.8l-38.7,110.2M12.4,135.8l88.7,10.2M24.8,151.6l-39.2,102M24.8,151.6l83.8,12.7M36.7,167.9l-41.5,92.5M36.7,167.9l79,17.4M47.3,185l-45,81.6M47.3,185l73.8,24M56.1,203.1l-45.4,72.2M56.1,203.1l68,27.2M63.5,221.8l-44.1,64M63.5,221.8l62,28.2M69.9,240.8l-42.1,56.3M69.9,240.8l56,28.4M75.4,260.2l-39.6,48.9M75.4,260.2l50,28.1M80,279.8l-37.9,40.2M80,279.8l43.4,29.1M82.7,299.7l-35,32.5M82.7,299.7l36.9,28.6M83.7,319.8l-30.9,26.6M83.7,319.8l31.1,26.1M83.9,339.9l-26,22.2M83.9,339.9l26,22M852,60L828.9,61L805.7,61.9L782.6,63.8L759.7,67.5L737.6,74.3L716.3,83.3L695.8,94L676.4,106.7L658.6,121.5L643.8,139.3L631.7,159L620.8,179.5L610,200M828.9,61l-43.7,-50.9M828.9,61l-37.2,110.9M805.7,61.9l-44.1,-46.1M805.7,61.9l-31.7,105.4M782.6,63.8l-46.2,-39.7M782.6,63.8l-23.9,100.6M759.7,67.5l-51,-30.3M759.7,67.5l-12.1,95.9M737.6,74.3l-51.8,-23.1M737.6,74.3l-4.5,89.4M716.3,83.3l-50.9,-16.9M716.3,83.3l1.3,82.2M695.8,94l-49.2,-11M695.8,94l6.5,74.5M676.4,106.7l-47.1,-4.6M676.4,106.7l11.7,66.2M658.6,121.5l-44.7,4.1M658.6,121.5l18.6,56.3M643.8,139.3l-40.1,9M643.8,139.3l21.2,46.8M631.7,159l-34.6,10M631.7,159l20.1,39.1M620.8,179.5l-29.1,8.5M620.8,179.5l16.9,32.7M842,20L820,14.2L798.1,8.3L775.9,3.4L753.4,0.3L730.7,0.8L708.3,4.9L686.5,11.1L665.1,19L644.3,28L624.3,38.7L605.6,51.7L587.7,65.7L570,80M820,14.2l-18.1,-60.4M820,14.2l-60.1,96.1M798.1,8.3l-20.6,-55.8M798.1,8.3l-53.6,92.5M775.9,3.4l-25.6,-50.3M775.9,3.4l-44.8,90.4M753.4,0.3l-34.4,-42.2M753.4,0.3l-31.6,89.8M730.7,0.8l-40.9,-33.2M730.7,0.8l-19.1,86.8M708.3,4.9l-42.4,-26.5M708.3,4.9l-11.5,81.2M686.5,11.1l-41.6,-21.2M686.5,11.1l-6.3,74.5M665.1,19l-39.4,-17M665.1,19l-2.9,67.4M644.3,28l-37.4,-12.1M644.3,28l1.3,60.2M624.3,38.7l-35.3,-6.8M624.3,38.7l5.7,52.4M605.6,51.7l-31.4,-3.9M605.6,51.7l7,44.8M587.7,65.7l-26.4,-3M587.7,65.7l6.2,37.5M832,150L821.5,165.6L811.1,181.2L801.2,197.2L792.6,213.9L786,231.5L780.8,249.6L776.7,267.9L773.3,286.4L770.6,305L769.1,323.7L769.3,342.5L770.6,361.3L772,380M821.5,165.6l-89.8,16.9M821.5,165.6l44.7,107.1M811.1,181.2l-84.6,19.2M811.1,181.2l44.9,98.8M801.2,197.2l-79.4,23.7M801.2,197.2l46.7,89M792.6,213.9l-73.4,30.8M792.6,213.9l50.2,77.2M786,231.5l-67,33.9M786,231.5l50.3,67.4M780.8,249.6l-60.8,34.6M780.8,249.6l48.4,59.3M776.7,267.9l-54.8,33.7M776.7,267.9l45.6,52.1M773.3,286.4l-48.8,32.3M773.3,286.4l42.3,45.4M770.6,305l-42.5,31.5M770.6,305l39.2,38.1M769.1,323.7l-35.8,31M769.1,323.7l36.2,30.2M769.3,342.5l-29.9,28.4M769.3,342.5l32,24.3M770.6,361.3l-24.9,24.1M770.6,361.3l26.9,20.1" transform="translate(-2 -2)" fill="none" stroke="#8fd4f5" stroke-width="5" stroke-linecap="round" stroke-linejoin="round" opacity=".16"/><path d="M-20,40L3.2,43.6L26.5,47.2L49.6,51.6L72.4,57.5L94.5,65.7L115.9,75.3L136.6,86.4L156.4,99.2L174.5,114.2L190.1,131.8L204,150.8L217,170.4L230,190M3.2,43.6l27.6,114.6M3.2,43.6l52.5,-45.5M26.5,47.2l23.2,108.4M26.5,47.2l51.5,-41M49.6,51.6l16.8,102.4M49.6,51.6l52,-35.1M72.4,57.5l7.9,96.5M72.4,57.5l53.9,-27.3M94.5,65.7l2.8,89.5M94.5,65.7l52.9,-21.7M115.9,75.3l-1.8,82.2M115.9,75.3l51.1,-16.5M136.6,86.4l-6.4,74.5M136.6,86.4l49.2,-11M156.4,99.2l-11.6,66.2M156.4,99.2l47,-4.7M174.5,114.2l-17,56.9M174.5,114.2l44.3,2.5M190.1,131.8l-18.4,48.4M190.1,131.8l39.7,5.8M204,150.8l-17.3,40.9M204,150.8l34.4,6.6M217,170.4l-14.5,34.3M217,170.4l28.9,5.6M-10,10L12.4,4L34.8,-2.1L57.5,-7.1L80.5,-10L103.6,-8.6L126.3,-3.8L148.5,3.1L170.1,11.5L191.4,20.7L212,31.5L231.6,43.8L250.8,56.9L270,70M12.4,4l60.4,95.9M12.4,4l17.8,-60.4M34.8,-2.1l53.4,92.7M34.8,-2.1l20.8,-55.8M57.5,-7.1l43.9,91M57.5,-7.1l26.5,-50M80.5,-10l29,90.9M80.5,-10l36.9,-40.8M103.6,-8.6l17.3,87.3M103.6,-8.6l42.4,-32.1M126.3,-3.8l10,81.4M126.3,-3.8l43.4,-25.5M148.5,3.1l5.4,74.6M148.5,3.1l42.1,-20.6M170.1,11.5l2.8,67.5M170.1,11.5l39.4,-17M191.4,20.7l-1,60.2M191.4,20.7l37.3,-12.3M212,31.5l-3.8,52.7M212,31.5l34.4,-8.4M231.6,43.8l-4.6,45.2M231.6,43.8l30.2,-6.1M250.8,56.9l-4,37.9M250.8,56.9l25.4,-5M0,120L12.4,135.8L24.8,151.6L36.7,167.9L47.3,185L56.1,203.1L63.5,221.8L69.9,240.8L75.4,260.2L80,279.8L82.7,299.7L83.7,319.8L83.9,339.9L84,360M12.4,135.8l-38.7,110.2M12.4,135.8l88.7,10.2M24.8,151.6l-39.2,102M24.8,151.6l83.8,12.7M36.7,167.9l-41.5,92.5M36.7,167.9l79,17.4M47.3,185l-45,81.6M47.3,185l73.8,24M56.1,203.1l-45.4,72.2M56.1,203.1l68,27.2M63.5,221.8l-44.1,64M63.5,221.8l62,28.2M69.9,240.8l-42.1,56.3M69.9,240.8l56,28.4M75.4,260.2l-39.6,48.9M75.4,260.2l50,28.1M80,279.8l-37.9,40.2M80,279.8l43.4,29.1M82.7,299.7l-35,32.5M82.7,299.7l36.9,28.6M83.7,319.8l-30.9,26.6M83.7,319.8l31.1,26.1M83.9,339.9l-26,22.2M83.9,339.9l26,22M852,60L828.9,61L805.7,61.9L782.6,63.8L759.7,67.5L737.6,74.3L716.3,83.3L695.8,94L676.4,106.7L658.6,121.5L643.8,139.3L631.7,159L620.8,179.5L610,200M828.9,61l-43.7,-50.9M828.9,61l-37.2,110.9M805.7,61.9l-44.1,-46.1M805.7,61.9l-31.7,105.4M782.6,63.8l-46.2,-39.7M782.6,63.8l-23.9,100.6M759.7,67.5l-51,-30.3M759.7,67.5l-12.1,95.9M737.6,74.3l-51.8,-23.1M737.6,74.3l-4.5,89.4M716.3,83.3l-50.9,-16.9M716.3,83.3l1.3,82.2M695.8,94l-49.2,-11M695.8,94l6.5,74.5M676.4,106.7l-47.1,-4.6M676.4,106.7l11.7,66.2M658.6,121.5l-44.7,4.1M658.6,121.5l18.6,56.3M643.8,139.3l-40.1,9M643.8,139.3l21.2,46.8M631.7,159l-34.6,10M631.7,159l20.1,39.1M620.8,179.5l-29.1,8.5M620.8,179.5l16.9,32.7M842,20L820,14.2L798.1,8.3L775.9,3.4L753.4,0.3L730.7,0.8L708.3,4.9L686.5,11.1L665.1,19L644.3,28L624.3,38.7L605.6,51.7L587.7,65.7L570,80M820,14.2l-18.1,-60.4M820,14.2l-60.1,96.1M798.1,8.3l-20.6,-55.8M798.1,8.3l-53.6,92.5M775.9,3.4l-25.6,-50.3M775.9,3.4l-44.8,90.4M753.4,0.3l-34.4,-42.2M753.4,0.3l-31.6,89.8M730.7,0.8l-40.9,-33.2M730.7,0.8l-19.1,86.8M708.3,4.9l-42.4,-26.5M708.3,4.9l-11.5,81.2M686.5,11.1l-41.6,-21.2M686.5,11.1l-6.3,74.5M665.1,19l-39.4,-17M665.1,19l-2.9,67.4M644.3,28l-37.4,-12.1M644.3,28l1.3,60.2M624.3,38.7l-35.3,-6.8M624.3,38.7l5.7,52.4M605.6,51.7l-31.4,-3.9M605.6,51.7l7,44.8M587.7,65.7l-26.4,-3M587.7,65.7l6.2,37.5M832,150L821.5,165.6L811.1,181.2L801.2,197.2L792.6,213.9L786,231.5L780.8,249.6L776.7,267.9L773.3,286.4L770.6,305L769.1,323.7L769.3,342.5L770.6,361.3L772,380M821.5,165.6l-89.8,16.9M821.5,165.6l44.7,107.1M811.1,181.2l-84.6,19.2M811.1,181.2l44.9,98.8M801.2,197.2l-79.4,23.7M801.2,197.2l46.7,89M792.6,213.9l-73.4,30.8M792.6,213.9l50.2,77.2M786,231.5l-67,33.9M786,231.5l50.3,67.4M780.8,249.6l-60.8,34.6M780.8,249.6l48.4,59.3M776.7,267.9l-54.8,33.7M776.7,267.9l45.6,52.1M773.3,286.4l-48.8,32.3M773.3,286.4l42.3,45.4M770.6,305l-42.5,31.5M770.6,305l39.2,38.1M769.1,323.7l-35.8,31M769.1,323.7l36.2,30.2M769.3,342.5l-29.9,28.4M769.3,342.5l32,24.3M770.6,361.3l-24.9,24.1M770.6,361.3l26.9,20.1" fill="none" stroke="#050b14" stroke-width="5" stroke-linecap="round" stroke-linejoin="round"/><path d="M798.5,533h0M668.5,282.8h0M710.1,274.6h0M779,461.2h0M217,559.1h0M135.6,511.3h0M618.8,468.9h0M157.7,229.1h0M122.2,424.8h0M788.9,412.7h0M766.3,260.9h0M713.4,476.3h0M149.6,396.3h0M657.3,400.8h0" stroke="#ffe08a" stroke-width="5" stroke-linecap="round" opacity=".55"/><rect y="753.92" width="832" height="462.08" fill="url(#aila-swimsuit-t-bgfade)"/><g id="aila-swimsuit-t-figure"><g stroke-linejoin="round"><path d="M303.3,225Q283.8,245.5 275.7,255.3T260.6,275.9T246.2,298.6T224,336Q224.5,305.9 227.3,290.9T236.9,261.5T255.9,236.7T296.7,215L303.3,225Z" fill="#d4952f" stroke="#5c330c" stroke-width="2.2"/><path d="M303.3,225Q283.8,245.5 275.7,255.3T260.6,275.9T246.2,298.6T224,336Q231.6,308.2 236.7,294.8T248.7,268.8T265.8,246.1T300,220L303.3,225Z" fill="#93561a" opacity="0.7"/><path d="M543.5,217.1Q571.5,229.2 583.5,239.9T601.6,265.3T610,295T612,340Q597.9,314.2 590.8,302.1T577.3,278.9T563.1,257.9T536.5,226.9L543.5,217.1Z" fill="#d4952f" stroke="#5c330c" stroke-width="2.2"/><path d="M543.5,217.1Q571.5,229.2 583.5,239.9T601.6,265.3T610,295T612,340Q605.1,312.1 600.4,298.6T589.4,272.2T573.3,248.9T540,222L543.5,217.1Z" fill="#93561a" opacity="0.7"/><path d="M416,200Q330,206 300,223T255,270T234,330T214,404Q226,420 223,450T219,510T206,586Q222,596 222,618T214,665T178,730Q230,724 265,720T358,716T474,716T566,719T652,730Q622,690 616,665T611,620T626,560Q612,540 612,505T609,445T620,380Q602,360 596,330T576,270T532,223T416,200Z" fill="url(#aila-swimsuit-backG)" stroke="#5c330c" stroke-width="3.4"/><path d="M258.1,420.8Q262.7,457.7 264.2,476T265.8,512.3T264.5,548.4T260.3,584.8T252.6,621.5T240.3,658.2T220.3,691.7T178,730Q195.4,698.2 200.7,682.1T207.1,649.1T208.6,614.8T209.5,579.7T211.4,543.9T216.3,507.8T224.9,472.1T241.9,419.2L258.1,420.8Z" fill="#e2a93e" stroke="#5c330c" stroke-width="2.2"/><path d="M258.1,420.8Q262.7,457.7 264.2,476T265.8,512.3T264.5,548.4T260.3,584.8T252.6,621.5T240.3,658.2T220.3,691.7T178,730Q201.6,702.5 210.5,686.9T223.7,653.7T230.6,618.2T234.9,582.3T237.9,546.2T241,510.1T244.6,474.1T250,420L258.1,420.8Z" fill="#93561a" opacity="0.7"/><path d="M240.5,488Q238.9,500.8 238.2,507.2T236.9,520T235.1,539.2Q229,525.8 227.8,519.2T229.5,506.4T240.5,488Z" fill="#fff7c8" opacity="0.6"/><path d="M592.1,419.2Q604,454.2 609.1,471.9T617.7,507.5T622.6,543.4T624.4,579.1T625.3,614.1T626.8,648.3T632.7,681.5T654,730Q625.1,706.1 613,690.8T593.5,657.3T581.3,620.8T573.7,584.2T569.5,547.9T568.2,512T569.8,475.8T575.9,420.8L592.1,419.2Z" fill="#eab647" stroke="#5c330c" stroke-width="2.2"/><path d="M592.1,419.2Q604,454.2 609.1,471.9T617.7,507.5T622.6,543.4T624.4,579.1T625.3,614.1T626.8,648.3T632.7,681.5T654,730Q631.3,702 622.8,686.2T610.1,652.8T603.3,617.4T599,581.6T596,545.7T593,509.8T589.5,473.8T584,420L592.1,419.2Z" fill="#93561a" opacity="0.7"/><path d="M588.2,488.3Q589.2,501.1 589.7,507.5T590.8,520.2T592.4,539.3Q584.2,527.2 581.8,521T581.1,508.2T588.2,488.3Z" fill="#fff7c8" opacity="0.6"/><path d="M270.3,520.4Q275.8,550.5 277.5,565.6T279.1,595.7T277.1,625.8T271.7,656.1T262.1,685.9T247.8,713.8T222,752Q227.5,722.2 229.9,707.7T233.5,679T235,650.6T236.2,621.8T239.3,592.6T245.1,563.4T257.7,519.6L270.3,520.4Z" fill="#d4952f" stroke="#5c330c" stroke-width="2.2"/><path d="M270.3,520.4Q275.8,550.5 277.5,565.6T279.1,595.7T277.1,625.8T271.7,656.1T262.1,685.9T247.8,713.8T222,752Q233.5,724.6 238.8,710.7T247.7,682.4T253.3,653.3T256.7,623.8T259.3,594.2T261.4,564.5T264,520L270.3,520.4Z" fill="#93561a" opacity="0.7"/><path d="M574.3,519.5Q584,548.5 587.9,563T594.3,592.2T597.8,621.6T599.1,650.6T600.5,679T604.1,707.6T612,752Q594.4,727 586.2,713.8T571.9,685.9T562.4,656T557,625.9T554.6,596T555.6,565.9T561.7,520.5L574.3,519.5Z" fill="#d4952f" stroke="#5c330c" stroke-width="2.2"/><path d="M574.3,519.5Q584,548.5 587.9,563T594.3,592.2T597.8,621.6T599.1,650.6T600.5,679T604.1,707.6T612,752Q600.4,724.6 595.1,710.7T586.2,682.4T580.7,653.2T577.3,623.6T574.4,594T571.7,564.4T568,520L574.3,519.5Z" fill="#93561a" opacity="0.7"/><path d="M288.8,580.1Q295.3,610.2 296.8,625.4T297.1,655.8T292.3,686.4T281.8,716T258,756Q262.4,725.9 263.8,711.4T265.4,682.6T266.2,653.7T269.1,624.4T279.2,579.9L288.8,580.1Z" fill="#d4952f" stroke="#5c330c" stroke-width="2.2"/><path d="M288.8,580.1Q295.3,610.2 296.8,625.4T297.1,655.8T292.3,686.4T281.8,716T258,756Q268.6,728 272.8,713.7T278.9,684.5T281.7,654.7T283,624.9T284,580L288.8,580.1Z" fill="#93561a" opacity="0.7"/><path d="M554.8,579.8Q563.4,609.2 566.2,624T569.8,653.5T570.7,682.6T572.2,711.5T578,756Q561.2,730.1 554.2,715.9T543.7,686.4T538.9,655.9T538.6,625.6T545.2,580.2L554.8,579.8Z" fill="#d4952f" stroke="#5c330c" stroke-width="2.2"/><path d="M554.8,579.8Q563.4,609.2 566.2,624T569.8,653.5T570.7,682.6T572.2,711.5T578,756Q567.4,728 563.2,713.7T557.2,684.5T554.3,654.7T552.4,624.8T550,580L554.8,579.8Z" fill="#93561a" opacity="0.7"/><path d="M570.5,429.8Q576.8,462.4 579.4,478.8T583.5,511.7T585.3,544.8T584.7,578.1T581.4,611.4T575.4,644.5T565.9,677T540,720Q552.3,689.9 554.2,674T556.4,642T556.7,609.7T556.4,577.4T555.8,545.1T555.9,512.5T557.4,479.7T561.5,430.2L570.5,429.8Z" fill="#d4952f" stroke="#5c330c" stroke-width="2.2"/><path d="M570.5,429.8Q576.8,462.4 579.4,478.8T583.5,511.7T585.3,544.8T584.7,578.1T581.4,611.4T575.4,644.5T565.9,677T540,720Q556.2,691.5 560.1,675.6T565.9,643.3T569.1,610.6T570.6,577.8T570.5,544.9T569.7,512.1T568.4,479.3T566,430L570.5,429.8Z" fill="#93561a" opacity="0.7"/><path d="M256,300Q251,327 248.5,340.5T243.8,367.5T239.8,394.6T237,421.9T235.4,449.3T234.2,476.7T232.7,504.1T230.8,531.5T228.9,558.9T226,600Q227.3,572.6 228,558.9T229.4,531.5T230.8,504.1T232.1,476.6T233.3,449.1T235,421.7T238,394.4T242.4,367.3T247.6,340.3T256,300ZM576,300Q581.6,326.9 584.4,340.3T589.6,367.2T593.9,394.4T597,421.7T598.9,449.1T600.1,476.6T601.1,504T602.1,531.4T602.9,558.8T604,600Q602.7,572.6 602,558.9T600.6,531.5T599.2,504.1T597.9,476.7T596.7,449.3T595,421.9T592.2,394.6T588.2,367.5T583.5,340.5T576,300ZM244,480Q241.5,504.1 240.3,516.1T237.8,540.1T235,564.2T232,588.3T229,612.3T225.5,636.2T220.4,659.8T212.7,682.8T198,716Q207.5,693.8 211.8,682.5T218.9,659.5T223.6,635.9T226.9,612T229.9,588T233.1,564T236.2,540T239.3,516T244,480ZM260,560Q258.1,588.3 257,602.4T254.1,630.6T249.5,658.6T240,700Q245.4,672.2 247.8,658.3T252,630.3T255.3,602.2T260,560Z" fill="#5c330c" opacity=".4"/></g><use href="#aila-swimsuit-t-bodyShape" fill="url(#aila-swimsuit-t-skinBody)"/><path d="M372,540C387,527.1 445,526.6 460,540S464,604.5 462,620.4S453,631.2 448,635.6S437.3,644.7 432,646.8S421.3,648.5 416,648S405.3,646.3 400,643.8S389,637 384,632.6S372,632.9 370,617.4S357,552.9 372,540Z" fill="#e5aca3"/><path d="M372,540C386.7,531 445.3,530.6 460,540S463.7,584.4 460,596.1S445.3,607.4 438,610.4S423.3,614.3 416,614S401.3,611.7 394,608.4S375.7,605.5 372,594.1S357.3,549 372,540Z" fill="#c78a8b" opacity=".3"/><path d="M446,591.5C447.7,579.8 455.3,581.8 458,593.5S460,644.3 462,662S470,700 470,700C470,700 438,706 438,706C438,706 446.7,683.1 448,664S444.3,603.3 446,591.5Z" fill="#e5aca3" opacity=".8"/><path d="M416,700Q402,712 400,722Q416,716 432,722Q430,712 416,700Z" fill="#e5aca3" opacity=".6"/><path d="M400.1,722.5Q375.5,728.6 363,730.3T337.9,733.1T300,736Q325.1,732.9 337.6,731.3T362.6,728T399.9,721.5L400.1,722.5ZM431.9,722.5Q456.5,728.6 469,730.3T494.1,733.1T532,736Q506.9,732.9 494.4,731.3T469.4,728T432.1,721.5L431.9,722.5Z" fill="#9a5a58" opacity=".35"/><path d="M162,830C168,836.7 185.3,856.3 198,870S231.7,882 238,912S236.7,999.3 236,1050S234.3,1188.3 234,1216M670,830C664,836.7 646.7,856.3 634,870S600.3,882 594,912S595.3,999.3 596,1050S597.7,1188.3 598,1216" fill="none" stroke="#9a5a58" stroke-width="2" opacity=".35"/><path d="M364,694C359.3,697.2 349.3,706.3 336,713S302,727.2 284,734S243.3,747.5 228,754S202.3,765 192,773S173,789.8 166,802S154.3,826.7 150,846S142.7,890.7 140,918S135,994.7 134,1010M468,694C472.7,697.2 482.7,706.3 496,713S530,727.2 548,734S588.7,747.5 604,754S629.7,765 640,773S659,789.8 666,802S677.7,826.7 682,846S689.3,890.7 692,918S697,994.7 698,1010" fill="none" stroke="#9a5a58" stroke-width="3" opacity=".7"/><path d="M375.3,617.9C374.6,625.2 372.9,649.3 371,662S365.2,688.7 364,694M456.7,617.9C457.4,625.2 459.1,649.3 461,662S466.8,688.7 468,694" fill="none" stroke="#9a5a58" stroke-width="2.6" opacity=".75"/><g clip-path="url(#aila-swimsuit-t-torsoClip)"><path d="M200,760C200,760 300,704 300,704C300,704 338,706.7 352,710S373.3,721 384,724S405.3,728 416,728S437.3,727 448,724S466,713.3 480,710S532,704 532,704C532,704 632,760 632,760C632,760 632,1216 632,1216C632,1216 200,1216 200,1216C200,1216 200,760 200,760Z" fill="url(#aila-swimsuit-o-cotton)"/><path d="M200,760C200,760 300,704 300,704C300,704 338,706.7 352,710S373.3,721 384,724S405.3,728 416,728S437.3,727 448,724S466,713.3 480,710S532,704 532,704C532,704 632,760 632,760C632,760 632,1216 632,1216C632,1216 200,1216 200,1216C200,1216 200,760 200,760Z" fill="url(#aila-swimsuit-o-print)" opacity=".9"/><path d="M352,772q8,-5 16,0t16,0t16,0t16,0t16,0t16,0t16,0t16,0M352,790q8,-5 16,0t16,0t16,0t16,0t16,0t16,0t16,0t16,0" fill="none" stroke="#b5b3c6" stroke-width="1.8"/><path d="M384.6,830Q384.9,844.4 384.9,851.6T384.9,866T384.9,880.3T384.7,894.5T384.4,908.7T384.1,922.9T383.9,937.1T384,951.3T384.2,965.5T384.3,979.8T384.4,994.1T384.6,1008.4T384.6,1030L383.4,1030Q381.2,1015.9 380.1,1008.8T378,994.6T376.1,980.3T374.4,966T373.1,951.7T372.3,937.3T372.1,922.8T372.7,908.3T373.9,893.9T375.5,879.6T377.5,865.4T379.8,851.2T383.4,830L384.6,830Z" fill="#fff" opacity=".7"/><path d="M470,800Q520,790 600,820V1216H500Q500,1000 470,800Z" fill="#b5b3c6" opacity=".35"/></g><g clip-path="url(#aila-swimsuit-t-torsoClip)"><path d="M236,990C236,990 300,997.7 330,1000S387.3,1004 416,1004S472,1002.3 502,1000S596,990 596,990C596,990 596,1016 596,1016C596,1016 532,1023.7 502,1026S444.7,1030 416,1030S360,1028.3 330,1026S236,1016 236,1016C236,1016 236,990 236,990Z" fill="#e5ba4a" stroke="#675421" stroke-width="2.4"/><path d="M470,1002Q540,999 596,990L596,1016Q540,1024 470,1028Z" fill="#a88740"/><path d="M250,998Q330,1008 400,1010" fill="none" stroke="#f1d99b" stroke-width="2.4" stroke-linecap="round"/></g><path d="M500,1012C484,990 456,990 460,1010C462,1028 488,1024 500,1014ZM500,1012C520,990 548,994 542,1014C538,1030 512,1024 500,1014Z" fill="#e5ba4a" stroke="#675421" stroke-width="2.2" stroke-linejoin="round"/><path d="M496,1016L482,1070L492,1064L498,1074L504,1018ZM504,1016L526,1066L516,1062L512,1072L498,1018Z" fill="#a88740" stroke="#675421" stroke-width="2" stroke-linejoin="round"/><rect x="492" y="1004" width="16" height="18" rx="5" fill="#e5ba4a" stroke="#675421" stroke-width="2"/><path d="M350,712L361,717L371,721L382,725L393,728L404,730L416,730L428,730L439,728L450,725L461,721L471,717L482,712L488,725A7 7 0 0 1 477,730A7 7 0 0 1 466,734A8 8 0 0 1 454,739A8 8 0 0 1 441,742A8 8 0 0 1 429,744A8 8 0 0 1 416,744A8 8 0 0 1 403,744A8 8 0 0 1 391,742A8 8 0 0 1 378,739A8 8 0 0 1 366,734A7 7 0 0 1 355,730A7 7 0 0 1 344,725Z" fill="#fbfaf6" stroke="#62607a" stroke-width="2" stroke-linejoin="round"/><path d="M361,717L356,727M371,721L367,732M382,725L379,736M393,728L391,739M404,730L404,741M416,730L416,741M428,730L428,741M439,728L441,739M450,725L453,736M461,721L465,732M471,717L476,727" fill="none" stroke="#b5b3c6" stroke-width="1.4"/><path d="M440,726Q462,722 482,712L488,724Q466,738 444,740Z" fill="#dcdbe4" opacity=".8"/><path d="M356,718Q416,744 476,718" fill="none" stroke="#e5ba4a" stroke-width="3.4"/><path d="M416,738l-16,-9l-2,15zM416,738l16,-9l2,15z" fill="#e5ba4a" stroke="#675421" stroke-width="1.6" stroke-linejoin="round"/><path d="M413,741l-6,22M419,741l7,21" stroke="#e5ba4a" stroke-width="3" stroke-linecap="round"/><circle cx="416" cy="738" r="3.6" fill="#ac8c38"/><path d="M236,904L340,890L344,920L236,930Z" fill="#b5b3c6" opacity=".35"/><use href="#aila-swimsuit-o-cardi"/><circle cx="347" cy="748" r="5" fill="#fffaf2" stroke="#725a36" stroke-width="1.6"/><circle cx="345.6" cy="746.5" r="1.6" fill="#fff"/><circle cx="343.6" cy="800" r="5" fill="#fffaf2" stroke="#725a36" stroke-width="1.6"/><circle cx="342.20000000000005" cy="798.5" r="1.6" fill="#fff"/><circle cx="340.2" cy="852" r="5" fill="#fffaf2" stroke="#725a36" stroke-width="1.6"/><circle cx="338.8" cy="850.5" r="1.6" fill="#fff"/><use href="#aila-swimsuit-o-cardi" transform="matrix(-1 0 0 1 832 0)"/><g transform="matrix(-1 0 0 1 832 0)" clip-path="url(#aila-swimsuit-t-bodyClip)"><path d="M364,690C416,694.3 355.7,702.7 352,716S344.5,749.3 342,770S338.2,821 337,840S335,884 335,884C335,884 312.2,894.7 300,898S272,903 262,904S240,904 240,904C240,904 238.3,968 238,1000S238,1096 238,1096C238,1096 40,1096 40,1096C40,1096 40,690 40,690C40,690 312,685.7 364,690Z" fill="#7f84af" opacity=".3"/></g><path d="M353.6,720.5Q351.4,734.1 350.3,740.9T348.2,754.4T346.5,767.9T345.3,781.4T344.4,795T343.6,808.7T342.7,822.4T341.6,836.1T340.4,849.8T339.2,863.5T337.3,884L334.7,884Q334.3,870.2 334.1,863.3T333.9,849.5T333.9,835.7T334.1,821.9T334.6,808.2T335.4,794.5T336.6,780.6T338.3,766.8T340.7,753.2T343.6,739.6T348.4,719.5L353.6,720.5Z" transform="translate(14 4)" fill="#b5b3c6" opacity=".4"/><path d="M372,690Q384,742 416,756Q448,742 460,690" fill="none" stroke="#5a3510" stroke-width="2.6" opacity=".7"/><path d="M372,690Q384,742 416,756Q448,742 460,690" fill="none" stroke="#ffd796" stroke-width="1.4" stroke-dasharray="2.6 1.6"/><path d="M416,754C404,756 400,770 406,776Q416,782 426,776C432,770 428,756 416,754Z" fill="#fff4ea" stroke="#5a3510" stroke-width="1.6"/><path d="M416,758V778M410,760L407,774M422,760L425,774" stroke="#e6aa52" stroke-width="1.2"/><circle cx="416" cy="753" r="2.6" fill="#e6aa52" stroke="#5a3510" stroke-width="1"/><path d="M270,418C258,406 242,416 242,440C242,462 252,488 276,494Z" fill="#f9e3d4" stroke="#9a5a58" stroke-width="2.4" stroke-linejoin="round"/><path d="M266,430C258,426 252,434 254,448C256,462 262,474 270,478" fill="none" stroke="#9a5a58" stroke-width="2" opacity=".7"/><path d="M262,438C256,446 258,462 266,470L270,460C264,454 264,446 268,440Z" fill="#e5aca3"/><path d="M562,418C574,406 590,416 590,440C590,462 580,488 556,494Z" fill="#eec5b9" stroke="#9a5a58" stroke-width="2.4" stroke-linejoin="round"/><path d="M566,430C574,426 580,434 578,448C576,462 570,474 562,478" fill="none" stroke="#9a5a58" stroke-width="2" opacity=".7"/><path d="M570,438C576,446 574,462 566,470L562,460C568,454 568,446 564,440Z" fill="#c78a8b" opacity=".6"/><use href="#aila-swimsuit-t-faceShape" fill="url(#aila-swimsuit-t-skinFace)"/><g clip-path="url(#aila-swimsuit-t-faceClip)"><path d="M572,360C574.2,366.7 569.2,387.5 569,400S571,425.6 571,435S570.3,449.6 568.9,456.7S565.5,470.8 563,477.7S557.6,491.2 554.2,497.6S547,510.2 542.9,516.2S534.4,528 529.7,533.6S520,544.4 514.8,549.5S504,559.3 498.3,563.7S486.5,572.4 480.3,576.1S467.7,583.4 461,586.3S447.7,591.8 440.5,593.6S418,597 418,597C418,597 430.6,591.9 436.6,588.1S448.4,578.6 454,574S464.6,565.1 469.7,560.6S479.7,551.6 484.7,547S494.6,538.2 499.3,533.5S508.6,524 512.9,518.9S521.3,508.5 525,503.1S532.2,492 535.3,486.2S540.9,474.5 543.1,468.6S547.1,456.7 548.2,450.4S549.6,438.7 550.1,430.3S550,411.7 551,400S552.5,366.7 556,360S569.8,353.3 572,360Z" fill="#e5aca3" opacity=".7"/></g><path d="M264,434Q266.8,456.6 270.1,467.5T278.3,488.6T289.3,508.4T302.5,526.9T317.6,543.9T334.4,559.1T352.8,572.2T372.7,583T393.9,590.7T416,593.6T438.1,590.6T459.2,582.8T479,572T497.4,558.8T514.2,543.6T529.2,526.7T542.2,508.2T553,488.3T561.3,467.3T568,434Q566.7,456.9 563.7,468T555.9,489.6T544.9,509.8T531.5,528.5T516.2,545.7T499.2,561.1T480.5,574.4T460.3,585.3T438.7,593.1T416,596.1T393.4,593T371.8,585.1T351.6,574.2T333,560.8T316,545.3T300.8,528.2T287.6,509.5T276.7,489.3T268.9,467.9T264,434Z" fill="#9a5a58"/><g clip-path="url(#aila-swimsuit-t-faceClip)" opacity="0.8"><use href="#aila-swimsuit-t-hairFront" filter="url(#aila-swimsuit-t-cast)"/></g><ellipse cx="320" cy="501" rx="36" ry="17" fill="url(#aila-swimsuit-t-blush)"/><ellipse cx="512" cy="501" rx="36" ry="17" fill="url(#aila-swimsuit-t-blush)"/><path d="M312,494Q311,498.3 310.1,500.3T307,506Q308,501.7 308.9,499.7T312,494ZM321,494Q320,498.3 319.1,500.3T316,506Q317,501.7 317.9,499.7T321,494ZM330,494Q329,498.3 328.1,500.3T325,506Q326,501.7 326.9,499.7T330,494ZM520,494Q521,498.3 521.9,500.3T525,506Q524,501.7 523.1,499.7T520,494ZM511,494Q512,498.3 512.9,500.3T516,506Q515,501.7 514.1,499.7T511,494ZM502,494Q503,498.3 503.9,500.3T507,506Q506,501.7 505.1,499.7T502,494Z" fill="#d7757d" opacity="0.3"/><path d="M419,487.5Q425,497.5 424,505.5Q420,508 416,507.5Q421,499.5 419,487.5Z" fill="#e5aca3" opacity=".6"/><path d="M421.2,500.4Q424.1,504.6 422.4,506.4T416,509Q419.6,506.4 420.9,505.4T420.8,500.6L421.2,500.4Z" fill="#9a5a58" opacity=".85"/><ellipse cx="413" cy="496.5" rx="2.2" ry="1.2" fill="#fff4ec" opacity=".7"/><path d="M391.7,542Q416,545 440.3,542Q434.3,559 416,561Q397.7,559 391.7,542Z" fill="#774545" stroke="#7c3439" stroke-width="2.2" stroke-linejoin="round"/><path d="M396.7,544Q416,547 435.3,544L432.3,548Q416,550 399.7,548Z" fill="#fff"/><path d="M404,558Q416,552 428,558Q416,561 404,558Z" fill="#df9191"/><path d="M386.1,409.5Q359.6,402.2 346,401T305.1,404.1L305.1,403.6Q332.2,396.8 346.3,397.4T386.9,407.1L386.1,409.5ZM445.9,409.5Q472.4,402.2 486,401T526.9,404.1L526.9,403.6Q499.8,396.8 485.7,397.4T445.1,407.1L445.9,409.5Z" fill="#8e5a1c"/><g><path d="M384.3,442.2C383.9,439.3 384.3,429.2 382.1,424.8S376.1,417.9 371.1,416S358.8,413.8 352.4,413.8S338.3,414.6 332.6,416.3S321.8,421.1 318.3,424.2S312.8,432.8 311.7,434.5L315,430.1C315.6,427.7 315.4,419.8 318.3,415.9S326.9,408.8 332.6,406.8S346,404 352.4,403.9S366.2,404.5 371.1,406.6S380.3,411.4 382.1,416.6S382.1,434.3 382.1,437.8Z" fill="#e5aca3" opacity=".3"/><path d="M386.5,445.5C385.8,442.6 384.7,432.5 382.1,428.1S376.1,421.2 371.1,419.3S358.8,417.1 352.4,417.1S338.3,417.9 332.6,419.6S322.3,424.2 318.3,427.5S310,437 308.4,438.9C310.6,441.1 315.7,449.2 321.6,452.3S335.5,456.8 343.6,457.2S362.9,456.4 370,454.5S383.8,447 386.5,445.5Z" fill="url(#aila-swimsuit-t-white)"/><g clip-path="url(#aila-swimsuit-t-eyeL)"><ellipse cx="350.3" cy="440.6" rx="20.6" ry="24.1" fill="url(#aila-swimsuit-t-irisL)" stroke="#0c204e" stroke-width="1.9"/><path d="M358.5,444.5L367.2,447.7M355.5,449.7L360.9,458.2M350.4,451.7L350.5,462.3M345.3,449.8L340,458.5M342,444.8L333.4,448.2M342,438.6L333.3,435.4M345.1,433.4L339.6,424.9M350.1,431.4L350,420.8M355.3,433.3L360.5,424.6M358.5,438.3L367.1,434.9" stroke="#0f2963" stroke-width=".9" opacity=".18"/><ellipse cx="350.3" cy="441.6" rx="14.5" ry="16.9" fill="none" stroke="#bee2ff" stroke-width="1.1" opacity=".3"/><path d="M333.7,446.6Q350.3,467.1 366.8,446.6Q350.3,456.5 333.7,446.6Z" fill="#bee2ff" opacity=".6"/><ellipse cx="350.3" cy="441.6" rx="7.9" ry="11.5" fill="#091739"/><path d="M386.5,445.5C385.8,442.6 384.7,432.5 382.1,428.1S376.1,421.2 371.1,419.3S358.8,417.1 352.4,417.1S338.3,417.9 332.6,419.6S322.3,424.2 318.3,427.5S310,437 308.4,438.9L308.4,438.9C310,438.5 314.3,438 318.3,436.3S326.9,430.1 332.6,428.4S346,426 352.4,425.9S366.2,426.3 371.1,428.1S379.5,434 382.1,436.9S385.8,444.1 386.5,445.5Z" fill="#0a1a40" opacity=".42"/><ellipse cx="342.6" cy="431.7" rx="6.6" ry="8" fill="#fff"/><circle cx="358.5" cy="450.6" r="2.8" fill="#fff" opacity=".92"/></g><path d="M328.2,411.6Q345.6,407.2 354.6,407.7T378.8,417.1Q363.1,409.6 354.4,409.2T328.2,411.6Z" fill="#9a5a58" opacity=".45"/><path d="M319.5,452.4Q331,455.5 336.8,456.7T354.6,457.2L354.6,457.7Q342.6,459.1 336.6,458.2T318.9,454.5L319.5,452.4Z" fill="#442f45" opacity=".9"/><path d="M312.9,433.4Q317,442.5 319.5,446.5T330.5,454.7L330.3,455.3Q320.7,452.8 316.8,449.7T307.1,438.5L312.9,433.4Z" fill="#15183a"/><path d="M382.5,442.8Q385.7,444.1 387.2,445T390.9,448.8Q388,447.1 386.4,446.6T381.7,444.9L382.5,442.8Z" fill="#15183a" opacity=".75"/><path d="M387.7,445.3Q386.4,438.5 385.6,435.1T383.2,428.5T379,422.9T373.1,419.1T366.3,417T359.3,416.1T352.4,416T345.5,416.3T338.6,417.1T331.9,418.8T325.5,421.5T319.5,425.2T314.5,430.1T310.4,435.2T305.6,437T296.8,433.5Q301.5,440.3 306,441.8T314.3,440.4T319.9,435T323.9,430.8T328.6,427.6T333.9,425.1T339.8,423.4T346.1,422.2T352.5,421.5T359,421.2T365.4,421.3T371.5,422.5T376.9,425.3T381,429.8T383.7,435.7T386.2,445.6L387.7,445.3Z" fill="#15183a"/></g><g><path d="M447.7,442.2C448.1,439.3 447.7,429.2 449.9,424.8S455.9,417.9 460.9,416S473.2,413.8 479.6,413.8S493.7,414.6 499.4,416.3S510.2,421.1 513.7,424.2S519.2,432.8 520.3,434.5L517,430.1C516.4,427.7 516.6,419.8 513.7,415.9S505.1,408.8 499.4,406.8S486,404 479.6,403.9S465.8,404.5 460.9,406.6S451.7,411.4 449.9,416.6S449.9,434.3 449.9,437.8Z" fill="#e5aca3" opacity=".3"/><path d="M445.5,445.5C446.2,442.6 447.3,432.5 449.9,428.1S455.9,421.2 460.9,419.3S473.2,417.1 479.6,417.1S493.7,417.9 499.4,419.6S509.7,424.2 513.7,427.5S522,437 523.6,438.9C521.4,441.1 516.3,449.2 510.4,452.3S496.5,456.8 488.4,457.2S469.1,456.4 462,454.5S448.2,447 445.5,445.5Z" fill="url(#aila-swimsuit-t-white)"/><g clip-path="url(#aila-swimsuit-t-eyeR)"><ellipse cx="484.1" cy="440.6" rx="20.6" ry="24.1" fill="url(#aila-swimsuit-t-irisR)" stroke="#0c204e" stroke-width="1.9"/><path d="M492.3,444.5L501,447.7M489.3,449.7L494.7,458.2M484.2,451.7L484.3,462.3M479.1,449.8L473.8,458.5M475.8,444.8L467.2,448.2M475.8,438.6L467.1,435.4M478.9,433.4L473.4,424.9M483.9,431.4L483.8,420.8M489.1,433.3L494.3,424.6M492.3,438.3L500.9,434.9" stroke="#0f2963" stroke-width=".9" opacity=".18"/><ellipse cx="484.1" cy="441.6" rx="14.5" ry="16.9" fill="none" stroke="#bee2ff" stroke-width="1.1" opacity=".3"/><path d="M467.5,446.6Q484.1,467.1 500.6,446.6Q484.1,456.5 467.5,446.6Z" fill="#bee2ff" opacity=".6"/><ellipse cx="484.1" cy="441.6" rx="7.9" ry="11.5" fill="#091739"/><path d="M445.5,445.5C446.2,442.6 447.3,432.5 449.9,428.1S455.9,421.2 460.9,419.3S473.2,417.1 479.6,417.1S493.7,417.9 499.4,419.6S509.7,424.2 513.7,427.5S522,437 523.6,438.9L523.6,438.9C522,438.5 517.7,438 513.7,436.3S505.1,430.1 499.4,428.4S486,426 479.6,425.9S465.8,426.3 460.9,428.1S452.5,434 449.9,436.9S446.2,444.1 445.5,445.5Z" fill="#0a1a40" opacity=".42"/><ellipse cx="476.4" cy="431.7" rx="6.6" ry="8" fill="#fff"/><circle cx="492.3" cy="450.6" r="2.8" fill="#fff" opacity=".92"/></g><path d="M503.8,411.6Q486.4,407.2 477.4,407.7T453.2,417.1Q468.9,409.6 477.6,409.2T503.8,411.6Z" fill="#9a5a58" opacity=".45"/><path d="M512.5,452.4Q501,455.5 495.2,456.7T477.4,457.2L477.4,457.7Q489.4,459.1 495.4,458.2T513.1,454.5L512.5,452.4Z" fill="#442f45" opacity=".9"/><path d="M519.1,433.4Q515,442.5 512.5,446.5T501.5,454.7L501.7,455.3Q511.3,452.8 515.2,449.7T524.9,438.5L519.1,433.4Z" fill="#15183a"/><path d="M449.5,442.8Q446.3,444.1 444.8,445T441.1,448.8Q444,447.1 445.6,446.6T450.3,444.9L449.5,442.8Z" fill="#15183a" opacity=".75"/><path d="M444.3,445.3Q445.6,438.5 446.4,435.1T448.8,428.5T453,422.9T458.9,419.1T465.7,417T472.7,416.1T479.6,416T486.5,416.3T493.4,417.1T500.1,418.8T506.5,421.5T512.5,425.2T517.5,430.1T521.6,435.2T526.4,437T535.2,433.5Q530.5,440.3 526,441.8T517.7,440.4T512.1,435T508.1,430.8T503.4,427.6T498.1,425.1T492.2,423.4T485.9,422.2T479.5,421.5T473,421.2T466.6,421.3T460.5,422.5T455.1,425.3T451,429.8T448.3,435.7T445.8,445.6L444.3,445.3Z" fill="#15183a"/></g><use href="#aila-swimsuit-t-hairFront"/><path d="M386.1,409.5Q359.6,402.2 346,401T305.1,404.1L305.1,403.6Q332.2,396.8 346.3,397.4T386.9,407.1L386.1,409.5ZM445.9,409.5Q472.4,402.2 486,401T526.9,404.1L526.9,403.6Q499.8,396.8 485.7,397.4T445.1,407.1L445.9,409.5Z" fill="#8e5a1c" opacity="0.4"/><g stroke-linejoin="round"><path d="M586.5,331.7Q603.5,341 611.7,347.2T624.9,362.2T634.6,378.6T645.5,392.6T658.7,404.7T681.2,420.7L670.8,435.3Q655.3,423.6 648,416.9T634.1,402.5T622.8,386.1T614.3,369.3T603.9,355.7T581.5,340.3L586.5,331.7ZM670.6,435.2L680.2,442.4L679.2,430.4L691,428L681.4,420.8Z" fill="#2f55c8" stroke="#0c1438" stroke-width="2"/><path d="M580.4,336.7Q593.5,353.1 598.5,363.1T603.9,383.7T606.5,403.4T612.7,421.4T621.4,439.2T636.3,465.4L619.7,474.6Q610.2,456.2 605.9,446.7T597.7,427.2T591.9,406.5T590.3,385.9T586.9,367.7T571.6,343.3L580.4,336.7ZM619.6,474.5L625.3,485.1L629.9,473.5L642,476.1L636.4,465.5Z" fill="#4f7dff" stroke="#0c1438" stroke-width="2"/><path d="M580.7,349.7Q594.1,376.4 595.6,391.2T606,434Q594.2,406.7 592.3,392.1T579.3,350.3L580.7,349.7Z" fill="#b4caff" opacity=".9"/><path d="M598,396Q606,404 610,416" fill="none" stroke="#0c1438" stroke-width="1.6" opacity=".6"/><circle cx="566" cy="326" r="40" fill="url(#aila-swimsuit-clipGlow)"/><path d="M573.2,290.7L571,318.5L583.5,314.4L574.8,324.3L601.3,333.2L573.5,331L577.6,343.5L567.7,334.8L558.8,361.3L561,333.5L548.5,337.6L557.2,327.7L530.7,318.8L558.5,321L554.4,308.5L564.3,317.2Z" fill="#f5c84c" stroke="#4e300c" stroke-width="2.4"/><path d="M573.2,290.7L563,322L530.7,318.8" fill="none" stroke="#fff0b0" stroke-width="2"/><circle cx="566" cy="326" r="8" fill="#4f7dff" stroke="#4e300c" stroke-width="2"/><circle cx="563.6" cy="323.4" r="2.4" fill="#fff"/></g><g transform="translate(560 0) scale(-1 1) translate(280 292) scale(1.15) translate(-280 -292)" stroke-linejoin="round"><path d="M0,0C8,-8 20,-10 32,-4C22,4 10,6 0,0Z" transform="translate(294 298) rotate(20)" fill="#4f9a5e" stroke="#173a1f" stroke-width="1.8"/><path d="M2,0L28,-4" transform="translate(294 298) rotate(20)" stroke="#33703f" stroke-width="1.4"/><path d="M0,0C8,-8 20,-10 32,-4C22,4 10,6 0,0Z" transform="translate(272 280) rotate(-140)" fill="#4f9a5e" stroke="#173a1f" stroke-width="1.8"/><path d="M2,0L28,-4" transform="translate(272 280) rotate(-140)" stroke="#33703f" stroke-width="1.4"/><path d="M281,290C273,271 275,263 288,267C300,271 298,279 281,290ZM282,292C298,279 306,279 306,292C306,304 298,305 282,292ZM281,294C298,305 300,312 288,317C276,321 274,313 281,294ZM278,293C273,313 267,318 259,308C252,297 258,292 278,293ZM278,291C258,292 251,288 259,277C266,267 273,271 278,291Z" fill="#f8ba61" stroke="#604228" stroke-width="2"/><path d="M274,286q-6,-8 -2,-16M284,286q6,-8 14,-8M273,295q-10,0 -14,8" fill="none" stroke="#fae4a6" stroke-width="2.4" stroke-linecap="round" opacity=".85"/><circle cx="280" cy="292" r="6" fill="#bf8842"/><path d="M280,292l14,12" stroke="#ffd24a" stroke-width="2.6" stroke-linecap="round"/><circle cx="295" cy="305" r="3" fill="#ffd24a" stroke="#5a3510" stroke-width="1"/><path d="M258,314Q267,307 258,299Q261,306 258,314ZM258,314Q268,321 272,309Q266,314 258,314ZM258,314Q255,326 267,326Q260,322 258,314ZM258,314Q246,315 249,326Q251,318 258,314ZM258,314Q254,303 244,309Q252,309 258,314Z" fill="#fffdf6" stroke="#8a7a5a" stroke-width="1.6"/><circle cx="258" cy="314" r="4.6" fill="#ffd24a"/></g></g><use href="#aila-swimsuit-t-figure" filter="url(#aila-swimsuit-t-rim)"/><rect width="832" height="1216" fill="url(#aila-swimsuit-t-moonwash)"/><rect width="832" height="1216" fill="url(#aila-swimsuit-t-ambient)"/><rect y="972.8000000000001" width="832" height="244.20000000000002" fill="url(#aila-swimsuit-t-fade)"/><rect width="832" height="1216" fill="url(#aila-swimsuit-t-vig)"/></svg>