<svg xmlns="http://www.w3.org/2000/svg" viewBox="0 0 832 1216" role="img" aria-label="米娅·铃 - 女仆服"><defs><path id="mia-maid-t-faceShape" d="M416,211C397.3,211 377.3,211.5 360,216S325.2,227.5 312,238S288.5,263.7 281,279S270,312.3 267,330S263.5,367.7 263,385S263.8,421.8 264,434S263.2,450.2 263.9,458.3S266.2,474.4 268.5,482.1S274.2,497.3 278,504.4S286.5,518.2 291.4,524.7S301.8,537.2 307.5,542.9S319.5,553.9 325.9,558.7S339.3,567.9 346.4,571.8S360.9,579.1 368.5,581.9S383.9,586.9 391.9,588.5S408,591 416,591S432.2,590 440.1,588.5S455.9,584.6 463.5,581.9S478.5,575.7 485.6,571.8S499.6,563.5 506.1,558.7S518.7,548.5 524.5,542.9S535.7,531.1 540.6,524.7S550.2,511.5 554,504.4S561.2,489.8 563.5,482.1S567.3,466.3 568.1,458.3S567.8,446.2 568,434S569.5,402.3 569,385S568,347.7 565,330S558.5,294.3 551,279S533.2,248.5 520,238S489.3,220.5 472,216S434.7,211 416,211Z"/><path id="mia-maid-t-bodyShape" d="M378,560C364.8,569.3 376.2,599 375,616S372.8,649 371,662S369.8,685.5 364,694S349.3,706.3 336,713S302,727.2 284,734S243.3,747.5 228,754S202.3,765 192,773S173,789.8 166,802S154.3,826.7 150,846S142.7,890.7 140,918S135.7,960.3 134,1010S130,1216 130,1216C130,1216 702,1216 702,1216C702,1216 699.7,1059.7 698,1010S694.7,945.3 692,918S686.3,865.3 682,846S673,814.2 666,802S650.3,781 640,773S619.3,760.5 604,754S566,740.8 548,734S509.3,719.7 496,713S473.8,702.5 468,694S462.8,675 461,662S458.2,633 457,616S467.2,569.3 454,560S391.2,550.7 378,560Z"/><clipPath id="mia-maid-t-faceClip"><use href="#mia-maid-t-faceShape"/></clipPath><clipPath id="mia-maid-t-bodyClip"><use href="#mia-maid-t-bodyShape"/></clipPath><clipPath id="mia-maid-t-torsoClip"><path d="M364,694C341.7,697.3 348.3,707 334,714S294.3,728.3 278,736S243,730.7 236,760S236,912 236,912C236,912 253.7,1009.3 262,1060S286,1216 286,1216C286,1216 546,1216 546,1216C546,1216 561.7,1110.7 570,1060S596,912 596,912C596,912 603,789.3 596,760S570.3,743.7 554,736S512.3,721 498,714S490.3,697.3 468,694S386.3,690.7 364,694Z"/></clipPath><filter id="mia-maid-t-soft" x="-20%" y="-20%" width="140%" height="140%"><feGaussianBlur stdDeviation="6"/></filter><filter id="mia-maid-t-glow" x="-50%" y="-50%" width="200%" height="200%"><feGaussianBlur stdDeviation="5" result="b"/><feMerge><feMergeNode in="b"/><feMergeNode in="SourceGraphic"/></feMerge></filter><filter id="mia-maid-t-cast" x="-5%" y="-5%" width="110%" height="120%"><feOffset in="SourceAlpha" dx="4" dy="13" result="o"/><feFlood flood-color="#e9aea5"/><feComposite in2="o" operator="in"/></filter><filter id="mia-maid-t-rim" x="-3%" y="-3%" width="106%" height="106%" color-interpolation-filters="sRGB"><feOffset in="SourceAlpha" dx="-6" dy="2" result="o1"/><feComposite in="SourceAlpha" in2="o1" operator="out" result="e1"/><feGaussianBlur in="e1" stdDeviation=".9" result="b1"/><feFlood flood-color="#5ed7ff" flood-opacity=".95"/><feComposite in2="b1" operator="in" result="r1"/><feOffset in="SourceAlpha" dx="5" dy="6" result="o2"/><feComposite in="SourceAlpha" in2="o2" operator="out" result="e2"/><feGaussianBlur in="e2" stdDeviation="1.2" result="b2"/><feFlood flood-color="#e8ddff" flood-opacity=".5"/><feComposite in2="b2" operator="in" result="r2"/><feMerge><feMergeNode in="r2"/><feMergeNode in="r1"/></feMerge><feComposite in2="SourceAlpha" operator="in"/></filter><linearGradient id="mia-maid-tipFill" x1="0" y1="0" x2="0" y2="1"><stop offset="0" stop-color="#3a93cc"/><stop offset="0.6" stop-color="#3a93cc"/><stop offset="0.8" stop-color="#36c3f4"/><stop offset="0.9" stop-color="#7ae9ff"/><stop offset="1" stop-color="#d2fcff"/></linearGradient><linearGradient id="mia-maid-tipShade" x1="0" y1="0" x2="0" y2="1"><stop offset="0" stop-color="#24639a"/><stop offset="0.6" stop-color="#24639a"/><stop offset="0.9" stop-color="#2aa3d8"/><stop offset="1" stop-color="#8ff0ff"/></linearGradient><linearGradient id="mia-maid-tipLine" x1="0" y1="0" x2="0" y2="1"><stop offset="0" stop-color="#0d2645"/><stop offset="0.7" stop-color="#0d2645"/><stop offset="1" stop-color="#3aa6d6"/></linearGradient><linearGradient id="mia-maid-tipBack" x1="0" y1="0" x2="0" y2="1"><stop offset="0" stop-color="#24639a"/><stop offset="0.6" stop-color="#24639a"/><stop offset="0.9" stop-color="#2a9fd2"/><stop offset="1" stop-color="#a6f2ff"/></linearGradient><linearGradient id="mia-maid-dome" x1="300" y1="170" x2="540" y2="400" gradientUnits="userSpaceOnUse"><stop offset="0" stop-color="#4cabe0"/><stop offset="0.6" stop-color="#3a93cc"/><stop offset="1" stop-color="#24639a"/></linearGradient><clipPath id="mia-maid-bangClip"><path d="M346.7,240.1Q340.7,263.1 337.6,274.2T331.5,295.5T325.4,315.5T318.9,335.2T311.8,355.3T304.2,375.9T296.4,397T288.5,418.7T276,452Q271.1,428.7 268.9,416.9T265.3,393.1T264,368.9T265.5,344.6T270,320.5T278.3,297T290.9,275.4T306.9,256.6T333.3,231.9L346.7,240.1Z"/><path d="M496.3,231.9Q514.1,247.2 522.6,255.4T538.7,273.3T551.6,294.3T560.1,317.4T564.7,340.9T566.4,364.5T565.6,388.2T562.5,411.6T556,446Q547.7,424.3 543.7,413.5T535.7,392.3T527.8,371.8T520.2,351.7T513.2,332.1T506.7,313T500.2,293.7T493.5,273.2T483.7,240.1L496.3,231.9Z"/><path d="M367.5,230Q370.4,253 370.9,264.2T370.4,285.9T366.7,306.3T361.6,326.3T357.2,346.6T353.6,367.1T349.7,398.5L340.2,418.4L332.1,395.4L322.6,416.8L314.3,397.5Q313.3,375.4 313.2,364.2T313.5,341.7T314.7,319.1T317.1,296.5T322.8,274.7T332.8,254.5T352.5,226L367.5,230Z"/><path d="M476.6,225.9Q489.7,244.4 495.6,253.9T506.3,273.7T513.9,295.1T517.8,317.6T518.6,340.1T517.2,362.4T514.3,384.7T508,418Q499.3,397.2 495.2,386.8T487.3,366.1T480.3,345.6T474.6,325.4T469.9,305.5T466.3,285.2T464.2,263.8T463.4,230.1L476.6,225.9Z"/><path d="M452.4,220.5Q465.4,239.7 470.7,249.7T479,270.5T483.1,292.7T484.7,315.4T485.3,337.9T484.9,371.2L478.4,388.7L469.9,369.8L463.4,388.5L455.1,372.8Q452.3,351.5 450.5,341T446.7,320.2T442.1,299.8T437.8,279.3T436.4,257.7T439.6,223.5L452.4,220.5Z"/><path d="M389.3,222.9Q391.5,246 391.9,257.5T391.6,280.2T388.9,302.4T384.2,324.3T378,346T370.5,367.6T358,400Q355,377 353.8,365.5T352.2,342.5T352.2,319.6T354,297T358.2,274.8T365.1,253.1T378.7,221.1L389.3,222.9Z"/><path d="M431,217.2Q439.4,237.6 443.1,247.9T449.6,268.9T453.7,290.7T454.9,313T453.3,335.3T449.4,357.3T443.5,378.8T432,410Q430.3,388.1 429.3,377.4T427,356.1T424.6,335.1T422.4,314.5T420.4,294T419.1,273.1T419.1,251.7T421,218.8L431,217.2Z"/><path d="M407.4,217.8Q413,241.1 415.4,252.8T419.4,276.3T421.5,300T421.6,323.7T419.9,347.4T416.6,371.2T411.6,394.7T405.1,417.8T394,452Q392.3,428.2 391.5,416.3T389.9,392.8T388.3,369.6T386.9,346.5T386.1,323.4T386.4,300.2T388,276.9T390.8,253.5T396.6,218.2L407.4,217.8Z"/><path d="M424.2,223.6Q420.3,245.7 417.9,256.7T412,278.5T403.3,299.6T391.4,319T377.7,336.4T364,353.3T344,380Q347.8,357.6 350.6,346.4T357.8,324.7T367.2,304.7T377.1,286T387.1,267.4T397.9,248.6T415.8,220.4L424.2,223.6Z"/></clipPath><linearGradient id="mia-maid-bangRoot" x1="0" y1="222" x2="0" y2="290" gradientUnits="userSpaceOnUse"><stop offset="0" stop-color="#163f6c" stop-opacity="0.7"/><stop offset="1" stop-color="#163f6c" stop-opacity="0"/></linearGradient><g id="mia-maid-t-hairFront"><g stroke-linejoin="round"><path d="M278.3,302.5Q277.7,331.4 277,345.6T274.9,373.3T271.5,399.7T267.2,425.5T262.3,451.4T257.1,477.4T252.1,505.3T242.2,534.2T212,568Q221,541.9 220.9,529.4T217.2,504T211.5,476.3T209.4,446.7T210.9,417.2T216.2,388.2T225.9,360.5T239,334.5T261.7,297.5L278.3,302.5Z" fill="url(#mia-maid-tipBack)" stroke="url(#mia-maid-tipLine)" stroke-width="2.2"/><path d="M278.3,302.5Q277.7,331.4 277,345.6T274.9,373.3T271.5,399.7T267.2,425.5T262.3,451.4T257.1,477.4T252.1,505.3T242.2,534.2T212,568Q227.8,545.1 231.5,531.8T234.6,504.6T234.3,476.8T235.9,449T239.1,421.3T243.9,393.9T250.4,366.9T258,340.1T270,300L278.3,302.5Z" fill="#163f6c" opacity="0.9"/><path d="M570.3,297.3Q585.8,320 593,331.7T606.2,355.8T616.3,381.7T622.2,409.2T624.1,437.4T622.3,466T615.9,492.4T611.1,515.6T622,550Q597.8,534.1 590.2,520.6T581,492.9T576.7,466.8T571.3,442.9T566.1,418.9T561.4,394.8T557.7,369.9T555.3,343.6T553.7,302.7L570.3,297.3Z" fill="url(#mia-maid-tipBack)" stroke="url(#mia-maid-tipLine)" stroke-width="2.2"/><path d="M570.3,297.3Q585.8,320 593,331.7T606.2,355.8T616.3,381.7T622.2,409.2T624.1,437.4T622.3,466T615.9,492.4T611.1,515.6T622,550Q604.3,530.5 600.7,518.1T598.5,492.6T599.5,466.4T597.7,440.2T594.1,414.1T588.8,388.3T581.9,362.8T574.1,337.6T562,300L570.3,297.3Z" fill="#163f6c" opacity="0.9"/><path d="M267.1,401.7Q269.7,429.3 265.8,442T254.2,466.3T235.6,487.1T198,504Q214.1,484.9 218.3,474T226.1,452T234.3,429.9T256.9,398.3L267.1,401.7Z" fill="url(#mia-maid-tipBack)" stroke="url(#mia-maid-tipLine)" stroke-width="2.2"/><path d="M267.1,401.7Q269.7,429.3 265.8,442T254.2,466.3T235.6,487.1T198,504Q219.4,490.6 226.9,480.5T240.1,459.1T250,435.9T262,400L267.1,401.7Z" fill="#163f6c" opacity="0.9"/><path d="M576.7,394.1Q595,412.5 600,422.8T608.9,443.3T617.5,463.2T640,488Q613.6,485 602.4,477T583.3,458.4T570.9,436T567.3,397.9L576.7,394.1Z" fill="url(#mia-maid-tipBack)" stroke="url(#mia-maid-tipLine)" stroke-width="2.2"/><path d="M576.7,394.1Q595,412.5 600,422.8T608.9,443.3T617.5,463.2T640,488Q617.9,478.9 609.9,470.1T596,450.8T585.4,429.3T572,396L576.7,394.1Z" fill="#163f6c" opacity="0.9"/><path d="M408.2,180.5Q410.7,156.1 417.7,145.4T435.2,127.6T470,118Q450.4,128.8 444,137T433.4,154.4T419.8,183.5L408.2,180.5Z" fill="#3a93cc" stroke="#0d2645" stroke-width="2"/><path d="M414,182Q419.9,159.8 425.5,149.9T439.6,132.3T470,118Q450.4,128.8 444,137T433.4,154.4T419.8,183.5L414,182Z" fill="#24639a" opacity="0.9"/><path d="M399.9,184.7Q395,172.3 394.2,166.2T391.5,154.2T384,136Q395,144.6 399.6,150.2T406.4,162.7T408.1,183.3L399.9,184.7Z" fill="#3a93cc" stroke="#0d2645" stroke-width="2"/><path d="M404,184Q401.8,170.9 400.3,164.4T395.5,152.2T384,136Q395,144.6 399.6,150.2T406.4,162.7T408.1,183.3L404,184Z" fill="#24639a" opacity="0.9"/><path d="M252,440C247.3,438.3 244,386.3 244,362S246,315 252,294S269,251 280,236S303.7,213 318,204S349.7,187 366,182S399.3,174 416,174S449.7,177 466,182S499.7,195 514,204S541,221 552,236S574,273 580,294S588,337.7 588,362S584.7,438.3 580,440S570,393 560,372S536.3,328 520,314S479.3,293 462,288S431.3,284 416,284S387.3,283 370,288S328.3,300 312,314S282,351 272,372S256.7,441.7 252,440Z" fill="url(#mia-maid-dome)" stroke="#0d2645" stroke-width="3.4"/><path d="M580,294C583.3,307.7 588,337.7 588,362S584.7,438.3 580,440S568.3,391 560,372S532,338.7 530,326S541.7,303.7 548,296S562.7,280.3 568,280S576.7,280.3 580,294Z" fill="#24639a" opacity=".8"/><path d="M262,322C264.3,311.3 274.7,285 286,270S312.3,241.7 330,232S371.7,215.3 392,212S433,209.7 452,212S490,218.7 506,226S536.7,244.3 548,256S571.7,288.7 574,296S562,300 562,300C562,300 550,312 550,312C550,312 538,286 538,286C538,286 518,298 518,298C518,298 502,270 502,270C502,270 482,282 482,282C482,282 464,258 464,258C464,258 442,270 442,270C442,270 422,254 422,254C422,254 400,268 400,268C400,268 380,258 380,258C380,258 362,280 362,280C362,280 346,270 346,270C346,270 330,296 330,296C330,296 314,288 314,288C314,288 296,316 296,316C296,316 284,308 284,308C284,308 272,334 272,334C272,334 259.7,332.7 262,322Z" fill="#93e4ff" opacity=".75"/><path d="M330,232Q309.8,252.4 301.2,263.8T278,300Q290.9,274.2 299.6,262.7T330,232ZM390,196Q362.8,205.4 350.5,212.5T316,238Q337,218.1 349.5,210.9T390,196ZM452,196Q483.6,204 497.8,211.9T534,244Q510.8,221.4 496.9,213.6T452,196Z" fill="#0d2645" opacity=".4"/><path d="M289.3,307.7Q289.3,337.9 288.9,352.9T287.5,382.3T285.1,410.9T281.5,439.2T277.8,467.3T276,495.4T275.8,525T273.4,556.5T262.5,602L249.7,618.8L246.6,595.5L233.5,613.9L229.5,594Q234.8,566.1 235.7,552.7T235.2,525.3T232.7,495.9T231.9,464.9T233.1,434T237,403.7T244.8,374.1T255.6,345.6T274.7,304.3L289.3,307.7Z" fill="url(#mia-maid-tipFill)" stroke="url(#mia-maid-tipLine)" stroke-width="2.2"/><path d="M289.3,307.7Q289.3,337.9 288.9,352.9T287.5,382.3T285.1,410.9T281.5,439.2T277.8,467.3T276,495.4T275.8,525T273.4,556.5T246,598Q252.9,569.2 254.6,554.6T255.5,525.2T254.3,495.6T254.8,466.1T257.3,436.7T261.1,407.3T266.2,378.2T272.3,349.3T282,306L289.3,307.7Z" fill="url(#mia-maid-tipShade)" opacity="0.9"/><path d="M557,304.3Q570.1,330.4 576.2,343.7T587.3,370.9T595.4,399.4T599.9,428.8T601,458.9T598,489.1T591.5,517.4T586.9,544.2T590,586Q574.1,560.8 568.9,546.2T562.6,516.5T560.3,487.9T557.1,461.1T553.1,434.3T549.4,407.3T546.4,379.8T544.4,351.4T543,307.7L557,304.3Z" fill="url(#mia-maid-tipFill)" stroke="url(#mia-maid-tipLine)" stroke-width="2.2"/><path d="M557,304.3Q570.1,330.4 576.2,343.7T587.3,370.9T595.4,399.4T599.9,428.8T601,458.9T598,489.1T591.5,517.4T586.9,544.2T590,586Q580.1,559.2 577.9,545.2T577.1,517T579.2,488.5T579,460T576.5,431.6T572.4,403.3T566.8,375.3T560.3,347.6T550,306L557,304.3Z" fill="url(#mia-maid-tipShade)" opacity="0.9"/><path d="M301.3,330.8Q302.1,358.4 302.2,372T302,399T301.3,425.5T300.4,451.8T299.4,478.1T298.9,504.2T299.7,530.3T302.8,556.3T316,594Q296.9,573.4 290,560.8T278.4,534.7T270.8,507.3T266.5,479.3T265.1,451.2T266.5,423.2T270.9,395.5T277.9,368.6T290.7,329.2L301.3,330.8Z" fill="url(#mia-maid-tipFill)" stroke="url(#mia-maid-tipLine)" stroke-width="2.2"/><path d="M301.3,330.8Q302.1,358.4 302.2,372T302,399T301.3,425.5T300.4,451.8T299.4,478.1T298.9,504.2T299.7,530.3T302.8,556.3T316,594Q301,571.3 296.4,558.6T289.1,532.6T284.9,505.8T283,478.7T282.8,451.5T283.9,424.3T286.4,397.2T290,370.3T296,330L301.3,330.8Z" fill="url(#mia-maid-tipShade)" opacity="0.9"/><path d="M541.6,329.2Q550.2,352.8 554.1,364.7T561,388.8T565.8,413.5T567.8,438.7T567.7,464.1T566.3,489.8T562.6,515.7T556.2,541.1T542,576.8L530.5,588.1L530.7,570.2L518.8,582.5L518,567.2Q526,544.8 528.4,533.6T532.1,511T533.4,488T532.7,464.6T530.8,440.9T529,417T528.2,392.9T528.4,368.3T530.4,330.8L541.6,329.2Z" fill="url(#mia-maid-tipFill)" stroke="url(#mia-maid-tipLine)" stroke-width="2.2"/><path d="M541.6,329.2Q550.2,352.8 554.1,364.7T561,388.8T565.8,413.5T567.8,438.7T567.7,464.1T566.3,489.8T562.6,515.7T556.2,541.1T530,572Q539.2,549.2 542.3,537.3T547.4,513.3T549.9,488.9T550.2,464.3T549.3,439.8T547.4,415.3T544.6,390.8T541.3,366.5T536,330L541.6,329.2Z" fill="url(#mia-maid-tipShade)" opacity="0.9"/><path d="M307,350.2Q309.1,373.7 309.7,385.3T310.1,408.4T309.9,431.2T310.1,453.9T311,476.7T313.6,499.3T324,532Q310,512.8 305.3,501.7T297.7,478.9T293,455.4T290.6,431.7T290.8,407.9T293.7,384.4T301,349.8L307,350.2Z" fill="url(#mia-maid-tipFill)" stroke="url(#mia-maid-tipLine)" stroke-width="2.2"/><path d="M307,350.2Q309.1,373.7 309.7,385.3T310.1,408.4T309.9,431.2T310.1,453.9T311,476.7T313.6,499.3T324,532Q312.7,511.6 309.4,500.5T304.3,477.9T301.5,454.7T300.2,431.4T300.4,408.2T301.7,384.9T304,350L307,350.2Z" fill="url(#mia-maid-tipShade)" opacity="0.9"/><path d="M530.7,349.8Q535.5,371.8 537.4,382.9T540.1,405.2T540.5,427.8T538.5,450.5T534.1,472.9T527.2,494.7T510,524Q518.1,503.5 519.7,492.7T522,471T523,449.3T523.1,427.6T522.7,405.8T523,383.7T525.3,350.2L530.7,349.8Z" fill="url(#mia-maid-tipFill)" stroke="url(#mia-maid-tipLine)" stroke-width="2.2"/><path d="M530.7,349.8Q535.5,371.8 537.4,382.9T540.1,405.2T540.5,427.8T538.5,450.5T534.1,472.9T527.2,494.7T510,524Q520.6,504.5 523.5,493.8T528.1,472.1T530.8,450T531.9,427.8T531.5,405.6T530.2,383.3T528,350L530.7,349.8Z" fill="url(#mia-maid-tipShade)" opacity="0.9"/><path d="M346.7,240.1Q340.7,263.1 337.6,274.2T331.5,295.5T325.4,315.5T318.9,335.2T311.8,355.3T304.2,375.9T296.4,397T288.5,418.7T276,452Q271.1,428.7 268.9,416.9T265.3,393.1T264,368.9T265.5,344.6T270,320.5T278.3,297T290.9,275.4T306.9,256.6T333.3,231.9L346.7,240.1Z" fill="url(#mia-maid-tipFill)" stroke="url(#mia-maid-tipLine)" stroke-width="2.2"/><path d="M346.7,240.1Q340.7,263.1 337.6,274.2T331.5,295.5T325.4,315.5T318.9,335.2T311.8,355.3T304.2,375.9T296.4,397T288.5,418.7T276,452Q277.8,429.2 278.7,417.8T280.9,395T284.2,372.4T288.7,350T294.5,327.8T301.9,306.2T311.2,285.4T322.2,265.4T340,236L346.7,240.1Z" fill="url(#mia-maid-tipShade)" opacity="0.9"/><path d="M301.8,297.8Q298.3,306.2 296.7,310.5T293.7,319.1T289.9,332.2Q285.8,321.4 285.3,316.3T288.3,307.5T301.8,297.8Z" fill="#93e4ff" opacity="0.9"/><path d="M496.3,231.9Q514.1,247.2 522.6,255.4T538.7,273.3T551.6,294.3T560.1,317.4T564.7,340.9T566.4,364.5T565.6,388.2T562.5,411.6T556,446Q547.7,424.3 543.7,413.5T535.7,392.3T527.8,371.8T520.2,351.7T513.2,332.1T506.7,313T500.2,293.7T493.5,273.2T483.7,240.1L496.3,231.9Z" fill="url(#mia-maid-tipFill)" stroke="url(#mia-maid-tipLine)" stroke-width="2.2"/><path d="M496.3,231.9Q514.1,247.2 522.6,255.4T538.7,273.3T551.6,294.3T560.1,317.4T564.7,340.9T566.4,364.5T565.6,388.2T562.5,411.6T556,446Q554.1,423.7 553.1,412.6T550.7,390.4T547.2,368.3T542.5,346.4T536.6,324.8T529.1,303.7T519.5,283.5T508.1,264.3T490,236L496.3,231.9Z" fill="url(#mia-maid-tipShade)" opacity="0.9"/><path d="M523.8,297.6Q527.1,305.8 528.6,309.9T531.5,318.1T535.6,330.6Q526.6,324.2 523.4,320.8T520.6,312.8T523.8,297.6Z" fill="#93e4ff" opacity="0.9"/><path d="M367.5,230Q370.4,253 370.9,264.2T370.4,285.9T366.7,306.3T361.6,326.3T357.2,346.6T353.6,367.1T349.7,398.5L340.2,418.4L332.1,395.4L322.6,416.8L314.3,397.5Q313.3,375.4 313.2,364.2T313.5,341.7T314.7,319.1T317.1,296.5T322.8,274.7T332.8,254.5T352.5,226L367.5,230Z" fill="url(#mia-maid-tipFill)" stroke="url(#mia-maid-tipLine)" stroke-width="2.2"/><path d="M367.5,230Q370.4,253 370.9,264.2T370.4,285.9T366.7,306.3T361.6,326.3T357.2,346.6T353.6,367.1T332,398Q332.6,376.4 333.4,365.6T335.4,344.1T338.2,322.7T341.9,301.4T346.6,280.3T351.9,259.4T360,228L367.5,230Z" fill="url(#mia-maid-tipShade)" opacity="0.9"/><path d="M343.5,280.2Q341.8,286.8 341,290.1T339.5,296.8T337.7,307Q332.2,298.9 330.9,295T332.3,288.2T343.5,280.2Z" fill="#93e4ff" opacity="0.9"/><path d="M476.6,225.9Q489.7,244.4 495.6,253.9T506.3,273.7T513.9,295.1T517.8,317.6T518.6,340.1T517.2,362.4T514.3,384.7T508,418Q499.3,397.2 495.2,386.8T487.3,366.1T480.3,345.6T474.6,325.4T469.9,305.5T466.3,285.2T464.2,263.8T463.4,230.1L476.6,225.9Z" fill="url(#mia-maid-tipFill)" stroke="url(#mia-maid-tipLine)" stroke-width="2.2"/><path d="M476.6,225.9Q489.7,244.4 495.6,253.9T506.3,273.7T513.9,295.1T517.8,317.6T518.6,340.1T517.2,362.4T514.3,384.7T508,418Q505.9,396.5 504.8,385.8T502.3,364.3T499.5,342.8T496.2,321.5T491.8,300.4T486.3,279.5T480,258.8T470,228L476.6,225.9Z" fill="url(#mia-maid-tipShade)" opacity="0.9"/><path d="M485.9,287.3Q487.8,294.7 488.7,298.4T490.4,305.8T492.8,317Q485.3,310.7 482.8,307.5T481.1,300.3T485.9,287.3Z" fill="#93e4ff" opacity="0.9"/><path d="M452.4,220.5Q465.4,239.7 470.7,249.7T479,270.5T483.1,292.7T484.7,315.4T485.3,337.9T484.9,371.2L478.4,388.7L469.9,369.8L463.4,388.5L455.1,372.8Q452.3,351.5 450.5,341T446.7,320.2T442.1,299.8T437.8,279.3T436.4,257.7T439.6,223.5L452.4,220.5Z" fill="url(#mia-maid-tipFill)" stroke="url(#mia-maid-tipLine)" stroke-width="2.2"/><path d="M452.4,220.5Q465.4,239.7 470.7,249.7T479,270.5T483.1,292.7T484.7,315.4T485.3,337.9T470,372Q468.9,350.3 467.9,339.5T465.7,317.9T462.6,296.3T458.4,274.9T453.6,253.7T446,222L452.4,220.5Z" fill="url(#mia-maid-tipShade)" opacity="0.9"/><path d="M454.6,269.3Q455.8,275.2 456.4,278.1T457.7,284T459.6,292.8Q452.8,288.1 450.4,285.6T449.1,279.8T454.6,269.3Z" fill="#93e4ff" opacity="0.9"/><path d="M389.3,222.9Q391.5,246 391.9,257.5T391.6,280.2T388.9,302.4T384.2,324.3T378,346T370.5,367.6T358,400Q355,377 353.8,365.5T352.2,342.5T352.2,319.6T354,297T358.2,274.8T365.1,253.1T378.7,221.1L389.3,222.9Z" fill="url(#mia-maid-tipFill)" stroke="url(#mia-maid-tipLine)" stroke-width="2.2"/><path d="M389.3,222.9Q391.5,246 391.9,257.5T391.6,280.2T388.9,302.4T384.2,324.3T378,346T370.5,367.6T358,400Q360.7,377.7 362.1,366.5T365,344.2T368.1,322T371.4,299.7T374.9,277.4T378.5,255.2T384,222L389.3,222.9Z" fill="url(#mia-maid-tipShade)" opacity="0.9"/><path d="M372.8,277.7Q371.6,284.7 371,288.2T369.9,295.2T368.4,305.8Q364.7,298.1 363.9,294.3T365,287.3T372.8,277.7Z" fill="#93e4ff" opacity="0.9"/><path d="M431,217.2Q439.4,237.6 443.1,247.9T449.6,268.9T453.7,290.7T454.9,313T453.3,335.3T449.4,357.3T443.5,378.8T432,410Q430.3,388.1 429.3,377.4T427,356.1T424.6,335.1T422.4,314.5T420.4,294T419.1,273.1T419.1,251.7T421,218.8L431,217.2Z" fill="url(#mia-maid-tipFill)" stroke="url(#mia-maid-tipLine)" stroke-width="2.2"/><path d="M431,217.2Q439.4,237.6 443.1,247.9T449.6,268.9T453.7,290.7T454.9,313T453.3,335.3T449.4,357.3T443.5,378.8T432,410Q435.2,388.8 436.4,378.1T438.2,356.7T439,335.2T438.7,313.7T437.1,292.3T434.4,271T431.1,249.8T426,218L431,217.2Z" fill="url(#mia-maid-tipShade)" opacity="0.9"/><path d="M433.6,278.6Q434.5,286.1 434.9,289.9T435.7,297.5T436.6,308.8Q431.6,301.6 429.9,298T429.1,290.5T433.6,278.6Z" fill="#93e4ff" opacity="0.9"/><path d="M407.4,217.8Q413,241.1 415.4,252.8T419.4,276.3T421.5,300T421.6,323.7T419.9,347.4T416.6,371.2T411.6,394.7T405.1,417.8T394,452Q392.3,428.2 391.5,416.3T389.9,392.8T388.3,369.6T386.9,346.5T386.1,323.4T386.4,300.2T388,276.9T390.8,253.5T396.6,218.2L407.4,217.8Z" fill="url(#mia-maid-tipFill)" stroke="url(#mia-maid-tipLine)" stroke-width="2.2"/><path d="M407.4,217.8Q413,241.1 415.4,252.8T419.4,276.3T421.5,300T421.6,323.7T419.9,347.4T416.6,371.2T411.6,394.7T405.1,417.8T394,452Q396.9,428.7 398.3,417.1T400.8,393.8T402.5,370.4T403.4,347T403.8,323.5T403.9,300T403.7,276.6T403.1,253.2T402,218L407.4,217.8Z" fill="url(#mia-maid-tipShade)" opacity="0.9"/><path d="M401.9,292Q401.9,301.3 401.9,305.9T401.8,315.1T401.7,329Q397,319.7 395.6,315.1T395.7,305.9T401.9,292Z" fill="#93e4ff" opacity="0.9"/><path d="M424.2,223.6Q420.3,245.7 417.9,256.7T412,278.5T403.3,299.6T391.4,319T377.7,336.4T364,353.3T344,380Q347.8,357.6 350.6,346.4T357.8,324.7T367.2,304.7T377.1,286T387.1,267.4T397.9,248.6T415.8,220.4L424.2,223.6Z" fill="url(#mia-maid-tipFill)" stroke="url(#mia-maid-tipLine)" stroke-width="2.2"/><path d="M424.2,223.6Q420.3,245.7 417.9,256.7T412,278.5T403.3,299.6T391.4,319T377.7,336.4T364,353.3T344,380Q352.6,359.8 357.3,349.9T367.7,330.6T379.3,311.9T390.2,292.8T399.5,272.9T407.9,252.6T420,222L424.2,223.6Z" fill="url(#mia-maid-tipShade)" opacity="0.9"/><path d="M397.9,272.9Q395.1,279.2 393.6,282.3T390.6,288.5T385.9,297.7Q385.6,289.8 386.1,286.3T389.1,280.2T397.9,272.9Z" fill="#93e4ff" opacity="0.9"/><g clip-path="url(#mia-maid-bangClip)"><rect x="250" y="200" width="340" height="92" fill="url(#mia-maid-bangRoot)"/></g><path d="M238.2,549.5Q228.5,563.6 222.3,569.6T200,582Q214.1,573.1 219.1,566.6T233.8,546.5L238.2,549.5ZM603.8,518Q615.2,527.8 620.8,532.7T640,544Q624.9,540.4 618.4,536.2T600.2,522L603.8,518ZM302.4,588.7Q308.6,600.1 312,605.4T326,618Q313.2,613.3 308.6,608.2T297.6,591.3L302.4,588.7Z" fill="#3a93cc" stroke="#0d2645" stroke-width="1.4"/><path d="M276,452h0M556,446h0M590,586h0M246,598h0M212,568h0M198,504h0M640,488h0" stroke="#5ed7ff" stroke-width="11" stroke-linecap="round" opacity=".3"/><path d="M276,452h0M556,446h0M590,586h0M246,598h0M212,568h0M198,504h0M640,488h0" stroke="#effeff" stroke-width="3.6" stroke-linecap="round"/></g></g><linearGradient id="mia-maid-t-skinBody" x1="0" y1="560" x2="0" y2="1000" gradientUnits="userSpaceOnUse"><stop offset="0" stop-color="#fae3d4"/><stop offset="0.6" stop-color="#f6d6c8"/><stop offset="1" stop-color="#e9aea5"/></linearGradient><linearGradient id="mia-maid-o-dress" x1="0" y1="660" x2="0" y2="1150" gradientUnits="userSpaceOnUse"><stop offset="0" stop-color="#3a3449"/><stop offset="0.4" stop-color="#25212f"/><stop offset="1" stop-color="#16131d"/></linearGradient><linearGradient id="mia-maid-o-white" x1="340" y1="0" x2="500" y2="0" gradientUnits="userSpaceOnUse"><stop offset="0" stop-color="#f7f3fb"/><stop offset="0.7" stop-color="#f7f3fb"/><stop offset="1" stop-color="#d2c9e2"/></linearGradient><linearGradient id="mia-maid-t-skinFace" x1="300" y1="330" x2="520" y2="586" gradientUnits="userSpaceOnUse"><stop offset="0" stop-color="#fff4ec"/><stop offset="0.4" stop-color="#fae3d4"/><stop offset="1" stop-color="#f4d0c4"/></linearGradient><radialGradient id="mia-maid-t-blush" cx="0.5" cy="0.5" r="0.5"><stop offset="0" stop-color="#ff8a8a" stop-opacity="0.248"/><stop offset="1" stop-color="#ff8a8a" stop-opacity="0"/></radialGradient><clipPath id="mia-maid-t-eyeL"><path d="M387.3,445.8C386.6,442.4 385.4,430.6 382.7,425.7S376.4,418.4 371.2,416.4S358.3,414.2 351.5,414.1S336.7,413.6 330.7,415.9S320,423.2 315.7,427.6S307.1,439.9 305.3,442.3C307.6,444.5 313,452.4 319.2,455.5S333.8,460.3 342.3,460.7S362.5,460.3 370,457.8S384.4,447.8 387.3,445.8Z"/></clipPath><linearGradient id="mia-maid-t-irisL" x1="0" y1="0" x2="0" y2="1"><stop offset="0" stop-color="#073042"/><stop offset="0.3" stop-color="#0a4a66"/><stop offset="0.7" stop-color="#48b9d1"/><stop offset="1" stop-color="#62e8ff"/></linearGradient><linearGradient id="mia-maid-t-white" x1="0" y1="0" x2="0" y2="1"><stop offset="0" stop-color="#c9bfe2"/><stop offset="0.5" stop-color="#f8f4fc"/><stop offset="1" stop-color="#f8f4fc"/></linearGradient><clipPath id="mia-maid-t-eyeR"><path d="M444.7,445.8C445.4,442.4 446.6,430.6 449.3,425.7S455.6,418.4 460.8,416.4S473.7,414.2 480.5,414.1S495.3,413.6 501.3,415.9S512,423.2 516.3,427.6S524.9,439.9 526.7,442.3C524.4,444.5 519,452.4 512.8,455.5S498.2,460.3 489.7,460.7S469.5,460.3 462,457.8S447.6,447.8 444.7,445.8Z"/></clipPath><linearGradient id="mia-maid-t-irisR" x1="0" y1="0" x2="0" y2="1"><stop offset="0" stop-color="#073042"/><stop offset="0.3" stop-color="#0a4a66"/><stop offset="0.7" stop-color="#48b9d1"/><stop offset="1" stop-color="#62e8ff"/></linearGradient><linearGradient id="mia-maid-earPanel" x1="0" y1="-110" x2="0" y2="30" gradientUnits="userSpaceOnUse"><stop offset="0" stop-color="#121b2c"/><stop offset="0.7" stop-color="#1d2c44"/><stop offset="1" stop-color="#1f5070"/></linearGradient><g id="mia-maid-earInv"><path d="M-44,30C-44,-8 -40,-46 -31,-72C-24,-92 -16,-106 -8,-118C2,-108 10,-94 18,-74C26,-54 34,-26 40,30Z" fill="url(#mia-maid-earPanel)" stroke="#1b2030" stroke-width="2.2"/><path d="M-4,24V-14L-14,-30V-62M-4,-14L10,-28V-54M-22,22V-2L-30,-10M14,22V4L24,-6M-14,-62L-10,-82M10,-54L4,-74" fill="none" stroke="#5ed7ff" stroke-width="1.6" opacity=".7"/><path d="M-14,-62h0M10,-54h0M24,-6h0M-10,-82h0M-4,-14h0M4,-74h0" stroke="#d9f4ff" stroke-width="5" stroke-linecap="round"/><circle cx="-30" cy="-10" r="2.8" fill="#ff9a3c"/><path d="M-38,26C-38,-8 -34,-44 -26,-68C-20,-86 -14,-98 -8,-108C0,-98 7,-86 13,-70C21,-50 28,-22 34,26" fill="none" stroke="#5ed7ff" stroke-width="3.6" stroke-linecap="round" filter="url(#mia-maid-t-glow)"/><path d="M-38,26C-38,-8 -34,-44 -26,-68C-20,-86 -14,-98 -8,-108C0,-98 7,-86 13,-70C21,-50 28,-22 34,26" fill="none" stroke="#c9f6ff" stroke-width="1.3" stroke-linecap="round"/><path d="M-30,-110C-22,-122 -16,-132 -10,-142C-2,-136 6,-126 12,-114C2,-112 -14,-110 -30,-110Z" fill="#3d4458" stroke="#1b2030" stroke-width="2.2"/><circle cx="-50" cy="-8" r="11" fill="#646d82" stroke="#1b2030" stroke-width="2.4"/><circle cx="-50" cy="-8" r="5" fill="#3d4458"/><path d="M-53,-11l6,6" stroke="#d3d9e4" stroke-width="1.6"/></g><g id="mia-maid-earAnt"><path d="M-12,-136L-28,-182" stroke="#1b2030" stroke-width="5.5" stroke-linecap="round"/><path d="M-12,-136L-28,-182" stroke="#d3d9e4" stroke-width="2" stroke-linecap="round"/><circle cx="-30" cy="-188" r="8.5" fill="#ff9a3c" stroke="#5a2a0a" stroke-width="2" filter="url(#mia-maid-t-glow)"/><circle cx="-32.5" cy="-190.5" r="2.8" fill="#fff3e0"/></g><linearGradient id="mia-maid-shellL" x1="-60" y1="-140" x2="50" y2="20" gradientUnits="userSpaceOnUse"><stop offset="0" stop-color="#d3d9e4"/><stop offset="0.5" stop-color="#97a1b4"/><stop offset="1" stop-color="#646d82"/></linearGradient><linearGradient id="mia-maid-shellR" x1="-60" y1="-140" x2="50" y2="20" gradientUnits="userSpaceOnUse"><stop offset="0" stop-color="#97a1b4"/><stop offset="0.5" stop-color="#646d82"/><stop offset="1" stop-color="#3d4458"/></linearGradient><linearGradient id="mia-maid-wrench" x1="0" y1="-12" x2="0" y2="12" gradientUnits="userSpaceOnUse"><stop offset="0" stop-color="#eef1f6"/><stop offset="0.5" stop-color="#b9c0cc"/><stop offset="1" stop-color="#7a8294"/></linearGradient><radialGradient id="mia-maid-droneShell" cx="672" cy="658" r="67.5" gradientUnits="userSpaceOnUse"><stop offset="0" stop-color="#ffffff"/><stop offset="0.4" stop-color="#dfe5ee"/><stop offset="0.8" stop-color="#9aa5b8"/><stop offset="1" stop-color="#5f6a80"/></radialGradient><radialGradient id="mia-maid-droneLens" cx="670" cy="674" r="20" gradientUnits="userSpaceOnUse"><stop offset="0" stop-color="#c9f6ff"/><stop offset="0.5" stop-color="#5ed7ff"/><stop offset="1" stop-color="#0d4f70"/></radialGradient><pattern id="mia-maid-o-damask" width="120" height="160" patternUnits="userSpaceOnUse" x="-44"><path d="M60,18C72,38 92,46 90,70C88,92 68,94 60,114C52,94 32,92 30,70C28,46 48,38 60,18ZM60,44C66,56 74,62 72,74C70,84 64,86 60,94C56,86 50,84 48,74C46,62 54,56 60,44ZM30,70C14,66 8,52 18,44C26,40 32,48 26,54M90,70C106,66 112,52 102,44C94,40 88,48 94,54M60,114V142M48,130Q60,124 72,130" fill="#2d2648" fill-rule="evenodd" opacity=".55"/><path d="M0,80h0M120,80h0" stroke="#2d2648" stroke-width="8" stroke-linecap="round"/></pattern><radialGradient id="mia-maid-o-sconce" cx="0.5" cy="0.5" r="0.5"><stop offset="0" stop-color="#ffc58a" stop-opacity="0.42"/><stop offset="0.4" stop-color="#ff9a5a" stop-opacity="0.14"/><stop offset="1" stop-color="#ff9a5a" stop-opacity="0"/></radialGradient><linearGradient id="mia-maid-t-bg" x1="0" y1="0" x2="0" y2="1216" gradientUnits="userSpaceOnUse"><stop offset="0" stop-color="#080d1d"/><stop offset="0.6" stop-color="#0f1a33"/><stop offset="1" stop-color="#060914"/></linearGradient><radialGradient id="mia-maid-t-bgglow" cx="430" cy="420" r="430" gradientUnits="userSpaceOnUse"><stop offset="0" stop-color="#5ed7ff" stop-opacity="0.22"/><stop offset="0.6" stop-color="#5ed7ff" stop-opacity="0.07"/><stop offset="1" stop-color="#5ed7ff" stop-opacity="0"/></radialGradient><linearGradient id="mia-maid-t-bgfade" x1="0" y1="0" x2="0" y2="1"><stop offset="0" stop-color="#060914" stop-opacity="0"/><stop offset="1" stop-color="#060914" stop-opacity="0.9"/></linearGradient><linearGradient id="mia-maid-t-moonwash" x1="0" y1="0" x2="760" y2="900" gradientUnits="userSpaceOnUse"><stop offset="0" stop-color="#e8ddff" stop-opacity="0.16"/><stop offset="0.5" stop-color="#e8ddff" stop-opacity="0"/><stop offset="1" stop-color="#e8ddff" stop-opacity="0"/></linearGradient><linearGradient id="mia-maid-t-ambient" x1="120" y1="300" x2="832" y2="1100" gradientUnits="userSpaceOnUse"><stop offset="0" stop-color="#0e1a3a" stop-opacity="0"/><stop offset="0.6" stop-color="#0e1a3a" stop-opacity="0"/><stop offset="1" stop-color="#0e1a3a" stop-opacity="0.35"/></linearGradient><linearGradient id="mia-maid-t-fade" x1="0" y1="0" x2="0" y2="1"><stop offset="0" stop-color="#060914" stop-opacity="0"/><stop offset="0.6" stop-color="#060914" stop-opacity="0.55"/><stop offset="1" stop-color="#060914" stop-opacity="0.93"/></linearGradient><radialGradient id="mia-maid-t-vig" cx="0.5" cy="0.4" r="0.8"><stop offset="0" stop-color="#000" stop-opacity="0"/><stop offset="0.6" stop-color="#000" stop-opacity="0"/><stop offset="1" stop-color="#000" stop-opacity="0.55"/></radialGradient></defs><rect width="832" height="1216" fill="url(#mia-maid-t-bg)"/><rect width="832" height="1216" fill="url(#mia-maid-t-bgglow)"/><g stroke="#e8ddff" stroke-linecap="round" fill="none"><path d="M219.7,497.4h0M52,379.2h0M339.6,692.7h0M729.2,419.5h0M27.4,156.1h0M611.3,791.6h0M563.2,776.5h0M763.4,501.6h0M435.3,736.7h0M159.5,556h0M463.9,746.6h0M83.1,487.3h0M37.4,407.7h0M437.1,436.5h0M20.5,25.9h0M498.1,379h0M46.3,722.5h0M685.7,325.7h0M53,431h0M195.7,600.6h0M640.4,178.1h0" stroke-width="1.6" opacity="0.45"/><path d="M165.8,387.3h0M783.5,45.7h0M279.4,143.3h0M527.2,91.4h0M268.9,763.1h0M398,68.4h0M133.2,225.9h0M639.7,887h0M819.7,483.9h0M346.5,29.7h0M129.4,90.6h0M90.6,46h0M212.2,805.4h0M815.3,889.9h0M740.4,277.1h0M589.4,281.6h0M826.4,611.1h0M149.5,283.5h0M324.2,764.6h0M352.1,290.5h0M260.9,275.7h0M364.4,504.2h0M79.1,350.1h0M495.5,60.1h0" stroke-width="2.4" opacity="0.3"/><path d="M314,310.9h0M210.4,810.6h0M58.1,36.9h0M97.4,620.3h0M612,710.7h0M252.1,104h0M208.4,357h0M20.5,218.9h0M172.3,733.6h0M276.7,437.6h0M19,97.8h0M371.2,88.8h0M802.2,606.9h0M5.1,870.2h0M362.2,401.9h0" stroke-width="3.2" opacity="0.18"/></g><rect width="832" height="1216" fill="url(#mia-maid-o-damask)"/><path d="M34,110H206V700H34ZM626,110H798V700H626Z" fill="#0b0918" opacity=".35"/><path d="M34,110H206V700H34ZM626,110H798V700H626ZM50,126H190V684H50ZM642,126H782V684H642Z" fill="none" stroke="#3a3260" stroke-width="2.4" opacity=".55"/><path d="M0,740H832M0,756H832" stroke="#3a3260" stroke-width="3" opacity=".5"/><rect x="0" y="300" width="240" height="240" fill="url(#mia-maid-o-sconce)"/><path d="M104,452h32l-6,14h-20z" fill="#7a5a2a" stroke="#2a1a08" stroke-width="2"/><path d="M120,466v28" stroke="#5a4020" stroke-width="4"/><rect x="114" y="416" width="12" height="36" rx="2" fill="#efe6d8" stroke="#6a5a48" stroke-width="1.6"/><path d="M120,392C129,404 126,414 120,416C114,414 111,404 120,392Z" fill="#ffd27a" stroke="#ff9a4a" stroke-width="1.4"/><rect x="592" y="300" width="240" height="240" fill="url(#mia-maid-o-sconce)"/><path d="M696,452h32l-6,14h-20z" fill="#7a5a2a" stroke="#2a1a08" stroke-width="2"/><path d="M712,466v28" stroke="#5a4020" stroke-width="4"/><rect x="706" y="416" width="12" height="36" rx="2" fill="#efe6d8" stroke="#6a5a48" stroke-width="1.6"/><path d="M712,392C721,404 718,414 712,416C706,414 703,404 712,392Z" fill="#ffd27a" stroke="#ff9a4a" stroke-width="1.4"/><rect y="753.92" width="832" height="462.08" fill="url(#mia-maid-t-bgfade)"/><g id="mia-maid-t-figure"><path d="M266,300C236.7,330.7 245.7,351.7 240,380S232.7,440.7 232,470S233.3,532.7 236,556S248,610 248,610C248,610 262.7,589 270,594S292,640 292,640C292,640 309,610 318,612S346,652 346,652C346,652 360.3,631 372,630S416,646 416,646C416,646 448.3,629 460,630S486,652 486,652C486,652 505,614 514,612S540,640 540,640C540,640 554.7,599 562,594S584,610 584,610C584,610 593.3,579.3 596,556S600.7,499.3 600,470S597.7,408.3 592,380S595.3,330.7 566,300S466,196 416,196S295.3,269.3 266,300Z" fill="#163f6c" stroke="#0d2645" stroke-width="3" stroke-linejoin="round"/><use href="#mia-maid-t-bodyShape" fill="url(#mia-maid-t-skinBody)"/><path d="M372,540C387,527.3 445,526.8 460,540S464,603.9 462,619.4S453,629.1 448,633S437.3,641 432,642.6S421.3,643.5 416,643S405.3,641.8 400,639.6S389,633.8 384,630S372,631.4 370,616.4S357,552.7 372,540Z" fill="#e9aea5"/><path d="M372,540C386.7,531.2 445.3,530.9 460,540S463.7,583.7 460,594.9S445.3,604.5 438,606.8S423.3,609.3 416,609S401.3,607.5 394,604.8S375.7,603.7 372,592.9S357.3,548.8 372,540Z" fill="#cd8b8a" opacity=".3"/><path d="M446,590C447.7,578 455.3,580 458,592S460,644 462,662S470,700 470,700C470,700 438,706 438,706C438,706 446.7,683.3 448,664S444.3,602 446,590Z" fill="#e9aea5" opacity=".8"/><path d="M416,700Q402,712 400,722Q416,716 432,722Q430,712 416,700Z" fill="#e9aea5" opacity=".6"/><path d="M400.1,722.5Q375.5,728.6 363,730.3T337.9,733.1T300,736Q325.1,732.9 337.6,731.3T362.6,728T399.9,721.5L400.1,722.5ZM431.9,722.5Q456.5,728.6 469,730.3T494.1,733.1T532,736Q506.9,732.9 494.4,731.3T469.4,728T432.1,721.5L431.9,722.5Z" fill="#a05a5a" opacity=".35"/><path d="M162,830C168,836.7 185.3,856.3 198,870S231.7,882 238,912S236.7,999.3 236,1050S234.3,1188.3 234,1216M670,830C664,836.7 646.7,856.3 634,870S600.3,882 594,912S595.3,999.3 596,1050S597.7,1188.3 598,1216" fill="none" stroke="#a05a5a" stroke-width="2" opacity=".35"/><path d="M364,694C359.3,697.2 349.3,706.3 336,713S302,727.2 284,734S243.3,747.5 228,754S202.3,765 192,773S173,789.8 166,802S154.3,826.7 150,846S142.7,890.7 140,918S135,994.7 134,1010M468,694C472.7,697.2 482.7,706.3 496,713S530,727.2 548,734S588.7,747.5 604,754S629.7,765 640,773S659,789.8 666,802S677.7,826.7 682,846S689.3,890.7 692,918S697,994.7 698,1010" fill="none" stroke="#a05a5a" stroke-width="3" opacity=".7"/><path d="M375.3,616.6C374.6,624.2 372.9,649.1 371,662S365.2,688.7 364,694M456.7,616.6C457.4,624.2 459.1,649.1 461,662S466.8,688.7 468,694" fill="none" stroke="#a05a5a" stroke-width="2.6" opacity=".75"/><g clip-path="url(#mia-maid-t-bodyClip)"><rect y="660" width="832" height="560" fill="url(#mia-maid-o-dress)"/><path d="M262,790C270.7,761 301.7,771 314,776S332.7,792.7 336,820S340,912.7 334,940S312,982.3 300,984S268.3,982.3 262,950S253.3,819 262,790Z" fill="#3a3449" opacity=".55"/><path d="M486,760C492.7,744 521,742 540,744S583.3,759.3 600,772S625,798.7 640,820S679.7,834 690,900S702,1216 702,1216C702,1216 520,1216 520,1216C520,1216 514.3,1106 512,1060S508,976.7 506,940S503.3,870 500,840S479.3,776 486,760Z" fill="#16131d"/><path d="M150,960C156.7,943.3 164,942.3 176,940S211.3,936 222,946S237.7,955 240,1000S236,1216 236,1216C236,1216 130,1216 130,1216C130,1216 132.7,1082.7 136,1040S143.3,976.7 150,960Z" fill="#16131d" opacity=".6"/><path d="M352.2,712.7Q337.5,719.1 330.1,722.2T315.2,728.2T300.2,733.8T285.1,739T262,746Q276.1,738.2 283.3,734.5T297.9,727.7T313,722T328.4,717.3T351.8,711.3L352.2,712.7Z" fill="#6a6288" opacity=".7"/><path d="M162,830C168,836.7 185.3,856.3 198,870S231.7,882 238,912S236.7,999.3 236,1050S234.3,1188.3 234,1216M670,830C664,836.7 646.7,856.3 634,870S600.3,882 594,912S595.3,999.3 596,1050S597.7,1188.3 598,1216" fill="none" stroke="#07060c" stroke-width="3"/><path d="M170.5,979.9Q176.3,1005.5 178.2,1018.6T179.8,1044.9T177.8,1071.1T172,1110Q173.7,1083.9 174.5,1070.9T175.2,1044.9T173.8,1019T169.5,980.1L170.5,979.9ZM206.4,990Q210.6,1013.1 211.7,1024.8T214,1060Q209.8,1036.8 208.3,1025.2T205.6,990L206.4,990Z" fill="#6a6288" opacity=".55"/><path d="M648.5,990.1Q645.5,1016.1 644.2,1029T642.8,1054.9T643.5,1080.9T646,1120Q641.8,1094.1 640.1,1081.1T638.1,1054.9T639.8,1028.6T647.5,989.9L648.5,990.1Z" fill="#0d0b12"/><path d="M262.1,829.8Q281.4,845 289.3,854.5T301,875.8T306.8,899.7T312,936Q306.6,912.2 303.9,900.4T297.5,877.2T286.7,856.3T261.9,830.2L262.1,829.8Z" fill="#0d0b12" opacity=".8"/><path d="M566.2,820.1Q550.3,841.1 543.7,852.3T533.6,875.9T527.5,901.2T520,940Q522.6,913.7 524.5,900.6T530,874.7T540.9,850.8T565.8,819.9L566.2,820.1Z" fill="#0d0b12"/></g><path d="M292,1020C292,1020 540,1020 540,1020C540,1020 572,1216 572,1216C572,1216 260,1216 260,1216C260,1216 292,1020 292,1020Z" fill="url(#mia-maid-o-white)" stroke="#5a5072" stroke-width="3"/><path d="M476,1026L540,1020L572,1216H504Q498,1110 476,1026Z" fill="#d2c9e2"/><path d="M331.6,1030.3Q326.6,1055 324.4,1067.3T320.9,1092.1T319,1117.1T317.9,1142.2T316.4,1180L315.6,1180Q315.6,1154.8 315.7,1142.2T316.1,1117T317.4,1091.8T320.5,1066.7T328.4,1029.7L331.6,1030.3ZM373.6,1034.3Q370,1058.4 368.4,1070.5T366,1094.7T365,1119T364.7,1143.4T364.4,1180L363.6,1180Q362.8,1155.6 362.5,1143.4T362.1,1118.9T362.5,1094.4T364.6,1070T370.4,1033.7L373.6,1034.3ZM419.6,1036.1Q418.2,1060.1 417.6,1072.1T417,1096T417.5,1119.9T418.6,1143.9T420.4,1180L419.6,1180Q417.5,1156.1 416.4,1144.1T414.5,1120.1T413.5,1096T413.8,1071.9T416.4,1035.9L419.6,1036.1ZM461.6,1033.9Q462.8,1058.4 463.4,1070.6T465,1094.9T467.4,1119.2T470.2,1143.5T474.4,1179.9L473.6,1180.1Q469.9,1155.9 468,1143.8T464.5,1119.6T461.6,1095.3T459.6,1070.8T458.4,1034.1L461.6,1033.9ZM501.6,1029.8Q504.6,1054.9 506,1067.4T509.2,1092.4T512.9,1117.4T516.7,1142.4T522.4,1179.9L521.6,1180.1Q516.9,1155.2 514.6,1142.8T510,1117.9T505.7,1092.9T502.2,1067.9T498.4,1030.2L501.6,1029.8Z" fill="#a99ec4" opacity=".75"/><g id="mia-maid-o-strap"><path d="M346,818L342,804L337,790L331,776L325,763L317,750L308,739L296,730L282,726L284,719A13 13 0 0 1 305,712A13 13 0 0 1 326,720A11 11 0 0 1 342,733A10 10 0 0 1 353,747A10 10 0 0 1 359,763A10 10 0 0 1 362,781A10 10 0 0 1 360,798A11 11 0 0 1 353,816Z" fill="#f7f3fb" stroke="#5a5072" stroke-width="2.4" stroke-linejoin="round"/><path d="M345,803L358,799M342,788L358,782M336,774L355,765M330,760L349,750M321,747L338,735M311,736L324,723M298,727L304,715" fill="none" stroke="#a99ec4" stroke-width="1.6" opacity=".8"/><path d="M350,817L353,800L352,784L349,768L342,753L332,740L319,727L302,719L283,722" fill="none" stroke="#a99ec4" stroke-width="2.6" stroke-linecap="round" stroke-dasharray="0 8.5"/><path d="M341.6,815.5Q337.2,802.2 334.9,795.8T330,783.2T324.4,771.1T318.1,759.6T310.8,748.8T297.7,733.2L314.3,718.8Q323.8,729.6 328.4,735.6T336.8,748.1T344,761.2T350.3,774.6T355.6,788.2T362.4,808.5L341.6,815.5Z" fill="#f7f3fb" stroke="#5a5072" stroke-width="2.4"/></g><use href="#mia-maid-o-strap" transform="matrix(-1 0 0 1 832 0)"/><g transform="matrix(-1 0 0 1 832 0)" fill="#d2c9e2"><path d="M346,818L342,804L337,790L331,776L325,763L317,750L308,739L296,730L282,726L284,719A13 13 0 0 1 305,712A13 13 0 0 1 326,720A11 11 0 0 1 342,733A10 10 0 0 1 353,747A10 10 0 0 1 359,763A10 10 0 0 1 362,781A10 10 0 0 1 360,798A11 11 0 0 1 353,816Z" opacity=".75"/><path d="M341.6,815.5Q337.2,802.2 334.9,795.8T330,783.2T324.4,771.1T318.1,759.6T310.8,748.8T297.7,733.2L314.3,718.8Q323.8,729.6 328.4,735.6T336.8,748.1T344,761.2T350.3,774.6T355.6,788.2T362.4,808.5L341.6,815.5Z" opacity=".6"/></g><path d="M346,1000L345,978L344,955L343,933L342,911L341,889L340,866L339,844L339,822L349,803L371,804L394,803L416,803L438,803L461,804L483,803L493,822L493,844L492,866L491,889L490,911L489,933L488,955L487,978L486,1000L499,1001A12 12 0 0 0 500,978A13 13 0 0 0 501,956A13 13 0 0 0 502,934A13 13 0 0 0 503,911A12 12 0 0 0 504,889A12 12 0 0 0 505,867A13 13 0 0 0 506,844A15 15 0 0 0 506,818A18 18 0 0 0 489,792A16 16 0 0 0 461,791A12 12 0 0 0 439,790A13 13 0 0 0 416,790A13 13 0 0 0 393,790A12 12 0 0 0 371,791A16 16 0 0 0 343,792A18 18 0 0 0 326,818A15 15 0 0 0 326,844A13 13 0 0 0 327,867A12 12 0 0 0 328,889A12 12 0 0 0 329,911A13 13 0 0 0 330,934A13 13 0 0 0 331,956A13 13 0 0 0 332,978A12 12 0 0 0 333,1001Z" fill="#f7f3fb" stroke="#5a5072" stroke-width="2.4" stroke-linejoin="round"/><path d="M343,978L334,978M342,956L333,956M341,933L332,934M340,911L331,911M339,889L330,889M338,866L329,867M336,844L327,844M337,821L328,819M348,801L344,794M371,802L371,793M394,801L393,792M416,801L416,792M438,801L439,792M461,802L461,793M484,801L488,794M495,821L504,819M496,844L505,844M494,866L503,867M493,889L502,889M492,911L501,911M491,933L500,934M490,956L499,956M489,978L498,978" fill="none" stroke="#a99ec4" stroke-width="1.5" opacity=".75"/><path d="M338,1000L337,978L336,956L335,933L334,911L333,889L332,867L330,844L331,820L345,796L371,796L394,795L416,795L438,795L461,796L487,796L501,820L502,844L500,867L499,889L498,911L497,933L496,956L495,978L494,1000" fill="none" stroke="#a99ec4" stroke-width="2.4" stroke-linecap="round" stroke-dasharray="0 7.5"/><path d="M344,1004C344,1004 340,816 340,816C340,816 344.7,808 348,806S360,804 360,804C360,804 472,804 472,804C472,804 480.7,804 484,806S492,816 492,816C492,816 488,1004 488,1004C488,1004 344,1004 344,1004Z" fill="url(#mia-maid-o-white)" stroke="#5a5072" stroke-width="2.6"/><path d="M456,806C456,806 488,806 488,806C488,806 488,1004 488,1004C488,1004 446,1004 446,1004C446,1004 452.3,933 454,900S456,806 456,806Z" fill="#d2c9e2" opacity=".85"/><path d="M396,806L436,806L452,830Q430,846 418,836Q404,846 392,826Z" fill="#d2c9e2" opacity=".9"/><path d="M372.3,840Q372,853.7 371.8,860.6T371.3,874.3T370.7,887.9T370.1,901.5T369.6,915.1T369.4,928.6T369.5,942.1T369.7,955.7T370,969.4T370.3,990L369.7,990Q367.7,976.5 366.7,969.7T364.9,956.1T363.6,942.4T362.8,928.6T362.7,914.8T363.5,901.1T364.8,887.5T366.5,873.9T368.5,860.3T371.7,840L372.3,840Z" fill="#d2c9e2" opacity=".6"/><path d="M350,820Q416,814 482,820" fill="none" stroke="#a99ec4" stroke-width="1.6" stroke-dasharray="5 4" opacity=".8"/><path d="M352.6,830Q352.8,856.1 352.4,869.1T351.9,895.1T352.3,921T354,960Q351,934.1 349.8,921.1T348.4,895.1T348.7,869T351.4,830L352.6,830Z" fill="#fff"/><path d="M240,988C240,988 300.7,997 330,1000S387.3,1006 416,1006S472.7,1003 502,1000S592,988 592,988C592,988 594,1016 594,1016C594,1016 531.7,1025 502,1028S444.7,1034 416,1034S359.7,1031 330,1028S238,1016 238,1016C238,1016 240,988 240,988Z" fill="#f7f3fb" stroke="#5a5072" stroke-width="2.6"/><path d="M478,1003Q540,999 593,988L594,1016Q540,1026 478,1031Z" fill="#d2c9e2"/><path d="M240,988Q262,993 280,995L278,1024Q258,1021 238,1016Z" fill="#d2c9e2" opacity=".8"/><path d="M250,1001Q416,1024 582,1001" fill="none" stroke="#a99ec4" stroke-width="1.4" stroke-dasharray="5 4"/><path d="M262,994Q340,1006 400,1008" fill="none" stroke="#fff" stroke-width="2.4" stroke-linecap="round"/><g id="mia-maid-o-puff"><path d="M254,754C248,741 232.3,743.3 220,742S192,741.7 180,746S157,758.3 148,768S131,790.3 126,804S118.3,835.3 118,850S120.7,879.7 124,892S138,924 138,924C138,924 172.3,936 190,936S244,924 244,924C244,924 248,897.3 250,880S255.3,841 256,820S260,767 254,754Z" fill="#25212f" stroke="#07060c" stroke-width="3.2" stroke-linejoin="round"/><path d="M121,872C124,873 130.2,891.7 142,898S174.7,909.7 192,910S237.3,897.7 246,900S244,924 244,924C244,924 207.7,936 190,936S138,924 138,924C138,924 126.8,900.7 124,892S118,871 121,872Z" fill="#16131d"/><path d="M248,763.9Q230.6,782.4 224.7,793.5T215.1,816.7T209.4,841.5T206,880Q205.3,854.1 206.4,841.1T210.7,815.4T219.8,790.8T244,760.1L248,763.9ZM240.6,758.6Q213.4,765 202.1,772.4T182.5,790.9T169.2,815.1T158,856Q162.2,827.7 166.5,814T178.9,788.2T199,767.8T239.4,753.4L240.6,758.6ZM252.2,800.6Q243.7,830.5 240.9,845.7T236,892Q235.2,860.7 237.2,845.1T247.8,799.4L252.2,800.6ZM149.4,922.7Q144.9,906.1 144.6,897.5T148,872Q147.7,888.8 149.1,897T154.6,921.3L149.4,922.7ZM193.3,932Q192.9,914.5 194,905.7T200,880Q198.5,897.4 198.5,906T198.7,932L193.3,932ZM225.8,928.2Q224,913.4 224.6,905.8T230,884Q228,898.6 228.3,905.9T230.2,927.8L225.8,928.2Z" fill="#0d0b12"/><path d="M226.5,764.5Q216.8,775.2 212.9,781T206.5,793.3T201.7,806.6T197.5,820.3T194.2,834.2T192,848.3T190,870Q189,855.4 188.8,848.1T189.2,833.4T191.4,818.8T195.2,804.5T200.6,790.6T208.8,778.1T225.5,763.5L226.5,764.5ZM176.6,788.3Q170.8,803.1 167.8,810.2T162.2,824.6T157.3,839.4T150,862Q151.5,846.2 152.7,838.3T156.1,822.6T162.1,807.7T175.4,787.7L176.6,788.3ZM238.5,800.1Q233.2,826.9 229.9,840T222,880Q222.9,852.6 225.7,839.2T237.5,799.9L238.5,800.1Z" fill="#3a3449"/><path d="M239.8,749.2Q225.8,748.2 219,747.9T205.7,748.4T193.1,751.3T181.2,756.4T170.1,763.2T160.1,771.5T151.2,781.1T143.4,791.8T136.9,803.6T131.5,816.3T124,836Q126.3,822.1 127.6,815.1T130.7,801.2T135.6,787.6T142.8,774.8T152,763.3T163.2,753.5T176.1,746T190.3,741.2T205.1,739.7T219.5,741.5T240.2,746.8L239.8,749.2Z" fill="#6a6288" opacity=".9"/><path d="M136,918C136,918 171.7,930 190,930S246,918 246,918C246,918 248,946 248,946C248,946 208.3,958.3 190,958S138,944 138,944C138,944 136,918 136,918Z" fill="#16131d" stroke="#07060c" stroke-width="2.6"/><path d="M142,924Q190,936 244,924" fill="none" stroke="#f7f3fb" stroke-width="3"/></g><use href="#mia-maid-o-puff" transform="matrix(-1 0 0 1 832 0)"/><g transform="matrix(-1 0 0 1 832 0)"><path d="M254,754C248,741 232.3,743.3 220,742S192,741.7 180,746S157,758.3 148,768S131,790.3 126,804S118.3,835.3 118,850S120.7,879.7 124,892S138,924 138,924C138,924 172.3,936 190,936S244,924 244,924C244,924 248,897.3 250,880S255.3,841 256,820S260,767 254,754ZM136,918C136,918 171.7,930 190,930S246,918 246,918C246,918 248,946 248,946C248,946 208.3,958.3 190,958S138,944 138,944C138,944 136,918 136,918Z" fill="#0d0b12" opacity=".45"/><path d="M142,924Q190,936 244,924" fill="none" stroke="#a99ec4" stroke-width="3"/></g><path d="M365,662L375,667L384,672L395,675L405,677L416,678L427,677L437,675L448,672L457,667L467,662L463,655A6 6 0 0 0 454,660A6 6 0 0 0 445,664A5 5 0 0 0 435,668A5 5 0 0 0 426,669A6 6 0 0 0 416,670A6 6 0 0 0 406,669A5 5 0 0 0 397,668A5 5 0 0 0 387,664A6 6 0 0 0 378,660A6 6 0 0 0 369,655Z" fill="#f7f3fb" stroke="#5a5072" stroke-width="1.8" stroke-linejoin="round"/><path d="M367,658L376,664L386,668L396,671L406,673L416,674L426,673L436,671L446,668L456,664L465,658" fill="none" stroke="#a99ec4" stroke-width="2" stroke-linecap="round" stroke-dasharray="0 6"/><path d="M365,660C365,660 381.5,669.3 390,672S407.3,676 416,676S433.5,674.7 442,672S467,660 467,660C467,660 484,712 484,712C484,712 459.3,722.8 448,726S426.7,731 416,731S395.3,729.2 384,726S348,712 348,712C348,712 365,660 365,660Z" fill="url(#mia-maid-o-white)" stroke="#5a5072" stroke-width="3"/><path d="M440,673L467,660L484,712L450,724Q452,694 440,673Z" fill="#d2c9e2"/><path d="M370,676Q368,698 358,710" fill="none" stroke="#fff" stroke-width="3" stroke-linecap="round"/><path d="M392,678Q394,702 390,726M440,678Q438,702 442,726" fill="none" stroke="#a99ec4" stroke-width="1.6" opacity=".8"/><path d="M416,678V731" stroke="#5a5072" stroke-width="2"/><g stroke-linejoin="round"><path d="M426,750C426,750 432.3,773 436,784S448,816 448,816C448,816 436,808 436,808C436,808 428,820 428,820C428,820 422.7,797.3 420,786S412,752 412,752C412,752 426,750 426,750Z" fill="#4883a8" stroke="#29425a" stroke-width="2.4"/><path d="M406,750C406,750 399.7,773 396,784S384,816 384,816C384,816 396,808 396,808C396,808 404,820 404,820C404,820 409.3,797.3 412,786S420,752 420,752C420,752 406,750 406,750Z" fill="#5ac0e6" stroke="#29425a" stroke-width="2.4"/><path d="M404.5,760.1Q402.3,776.1 399.8,783.8T390,806Q395.1,790.8 397,783.1T403.5,759.9L404.5,760.1Z" fill="#a2e8ff" opacity=".8"/><path d="M412,742C409,737.3 399.7,728.3 392,724S372.7,715 366,716S353.7,723.7 352,730S351.7,748.3 356,754S369,764.3 378,764S404.3,755.7 410,752S415,746.7 412,742Z" fill="#5ac0e6" stroke="#29425a" stroke-width="2.6"/><path d="M410,752Q384,752 360,746Q366,762 380,764Q400,764 410,752Z" fill="#4883a8"/><path d="M401.7,732.5Q388.6,727.2 382.2,725.4T362,726Q375.7,720.5 382.9,722T402.3,731.5L401.7,732.5Z" fill="#a2e8ff" opacity=".9"/><path d="M420,742C423,737.3 432.3,728.3 440,724S459.3,715 466,716S478.3,723.7 480,730S480.3,748.3 476,754S463,764.3 454,764S427.7,755.7 422,752S417,746.7 420,742Z" fill="#4883a8" stroke="#29425a" stroke-width="2.6"/><path d="M422,752Q448,752 472,746Q466,762 452,764Q432,764 422,752Z" fill="#345875"/><path d="M386,730Q396,738 404,742M446,730Q436,738 428,742" fill="none" stroke="#29425a" stroke-width="1.8" opacity=".8"/><rect x="403" y="728" width="26" height="26" rx="9" fill="#5ac0e6" stroke="#29425a" stroke-width="2.4"/><ellipse cx="416" cy="741" rx="9" ry="10.5" fill="#e3a95e" stroke="#5a3512" stroke-width="2"/><ellipse cx="416" cy="741" rx="5.6" ry="7" fill="#76ddff" stroke="#29425a" stroke-width="1.2"/><circle cx="413.6" cy="737.6" r="2" fill="#fff"/></g><use href="#mia-maid-t-faceShape" fill="url(#mia-maid-t-skinFace)"/><g clip-path="url(#mia-maid-t-faceClip)"><path d="M572,360C574.2,366.7 569.2,387.5 569,400S570.6,425.5 571,435S571.8,449.8 571.3,457.1S569.5,471.8 567.6,478.8S563.3,492.9 560.1,499.6S553,512.5 548.8,518.5S540,530.4 535.1,535.9S524.9,546.5 519.4,551.4S507.9,560.7 501.8,564.8S489.3,572.6 482.7,575.9S469.3,582 462.3,584.3S448.4,588.6 441,589.9S418,592 418,592C418,592 430.9,587.6 437.3,584.3S450.1,575.9 456.1,571.8S467.7,563.8 473.2,559.7S484,551.5 489.2,547.4S499.7,539.2 504.6,534.8S514.3,525.8 518.7,520.9S527.3,510.6 531,505.3S538.2,494.5 540.9,488.8S545.7,477.3 547.2,471.3S549.9,459.2 550.3,452.7S549.9,441 550,432.2S550,412 551,400S552.5,366.7 556,360S569.8,353.3 572,360Z" fill="#e9aea5" opacity=".7"/></g><path d="M264,434Q264.3,457.1 266.5,468.4T273,490.3T283.4,510.7T296.9,529.3T312.7,545.8T330.5,560.1T350.1,572T371.2,581.1T393.3,587T416,589.1T438.7,587T460.7,581T481.7,571.8T501.2,559.9T519,545.5T534.8,528.9T548.1,510.4T558.4,490.1T564.9,468.3T568,434Q569.2,457.2 567.4,468.8T561.3,491.2T550.8,511.9T537.1,530.8T521,547.7T502.9,562.3T483,574.3T461.6,583.5T439.1,589.5T416,591.6T392.9,589.4T370.4,583.3T349.1,574.1T329.3,562T311.3,547.3T295.3,530.5T281.7,511.7T271.3,491T265.2,468.7T264,434Z" fill="#a05a5a"/><g clip-path="url(#mia-maid-t-faceClip)" opacity="0.8"><use href="#mia-maid-t-hairFront" filter="url(#mia-maid-t-cast)"/></g><ellipse cx="320" cy="499" rx="36" ry="17" fill="url(#mia-maid-t-blush)"/><ellipse cx="512" cy="499" rx="36" ry="17" fill="url(#mia-maid-t-blush)"/><path d="M312,492Q311,496.3 310.1,498.3T307,504Q308,499.7 308.9,497.7T312,492ZM321,492Q320,496.3 319.1,498.3T316,504Q317,499.7 317.9,497.7T321,492ZM330,492Q329,496.3 328.1,498.3T325,504Q326,499.7 326.9,497.7T330,492ZM520,492Q521,496.3 521.9,498.3T525,504Q524,499.7 523.1,497.7T520,492ZM511,492Q512,496.3 512.9,498.3T516,504Q515,499.7 514.1,497.7T511,492ZM502,492Q503,496.3 503.9,498.3T507,504Q506,499.7 505.1,497.7T502,492Z" fill="#d97777" opacity="0.3"/><path d="M419,485.5Q425,495.5 424,503.5Q420,506 416,505.5Q421,497.5 419,485.5Z" fill="#e9aea5" opacity=".6"/><path d="M421.2,498.4Q424.1,502.6 422.4,504.4T416,507Q419.6,504.4 420.9,503.4T420.8,498.6L421.2,498.4Z" fill="#a05a5a" opacity=".85"/><ellipse cx="413" cy="494.5" rx="2.2" ry="1.2" fill="#fff4ec" opacity=".7"/><path d="M393.1,538.5Q416,541.5 439,538.5Q433,555.5 416,557.5Q399.1,555.5 393.1,538.5Z" fill="#744444" stroke="#7c3439" stroke-width="2.2" stroke-linejoin="round"/><path d="M398.1,540.5Q416,543.5 434,540.5L431,544.5Q416,546.5 401.1,544.5Z" fill="#fff"/><path d="M404,554.5Q416,548.5 428,554.5Q416,557.5 404,554.5Z" fill="#d98f90"/><path d="M387,402.7Q358.8,397 344.6,396.2T301.9,400.1L301.8,399.7Q330,392.3 344.7,392.4T387.6,400.2L387,402.7ZM445,402.7Q473.2,397 487.4,396.2T530.1,400.1L530.2,399.7Q502,392.3 487.3,392.4T444.4,400.2L445,402.7Z" fill="#123459"/><g><path d="M385,442.3C384.6,439 385,427.1 382.7,422.2S376.4,414.9 371.2,413S358.3,410.8 351.5,410.7S336.7,410.1 330.7,412.4S319.4,420 315.7,424.2S309.9,435.4 308.8,437.7L312.2,433.1C312.8,430.1 312.6,420.6 315.7,415.5S324.8,405 330.7,402.5S344.8,400.2 351.5,400.3S366,400.8 371.2,403S380.8,407.8 382.7,413.6S382.7,433.7 382.7,437.7Z" fill="#e9aea5" opacity=".3"/><path d="M387.3,445.8C386.6,442.4 385.4,430.6 382.7,425.7S376.4,418.4 371.2,416.4S358.3,414.2 351.5,414.1S336.7,413.6 330.7,415.9S320,423.2 315.7,427.6S307.1,439.9 305.3,442.3C307.6,444.5 313,452.4 319.2,455.5S333.8,460.3 342.3,460.7S362.5,460.3 370,457.8S384.4,447.8 387.3,445.8Z" fill="url(#mia-maid-t-white)"/><g clip-path="url(#mia-maid-t-eyeL)"><ellipse cx="348.5" cy="440.1" rx="22.5" ry="26.3" fill="url(#mia-maid-t-irisL)" stroke="#062938" stroke-width="1.9"/><path d="M357.5,444.4L367,447.8M354.1,450L360.1,459.2M348.6,452.2L348.7,463.7M343,450.1L337.3,459.6M339.5,444.7L330.1,448.4M339.4,437.8L329.9,434.4M342.8,432.3L336.8,423M348.3,430.1L348.2,418.5M353.9,432.1L359.6,422.6M357.4,437.6L366.8,433.8" stroke="#073447" stroke-width=".9" opacity=".18"/><ellipse cx="348.5" cy="441.1" rx="15.8" ry="18.4" fill="none" stroke="#b1f4ff" stroke-width="1.1" opacity=".3"/><path d="M330.4,446.7Q348.5,469.1 366.5,446.7Q348.5,457.5 330.4,446.7Z" fill="#b1f4ff" opacity=".6"/><ellipse cx="348.5" cy="441.1" rx="8.6" ry="12.6" fill="#041e29"/><path d="M344.5,451.6H352.5L357.5,446.6H361.5" fill="none" stroke="#dffaff" stroke-width="1.1" opacity=".55"/><circle cx="361.5" cy="446.6" r="1.4" fill="#dffaff" opacity=".7"/><path d="M387.3,445.8C386.6,442.4 385.4,430.6 382.7,425.7S376.4,418.4 371.2,416.4S358.3,414.2 351.5,414.1S336.7,413.6 330.7,415.9S320,423.2 315.7,427.6S307.1,439.9 305.3,442.3L305.3,442.3C307.1,441.4 311.5,439.7 315.7,436.9S324.8,427.4 330.7,425.1S344.8,423.3 351.5,423.4S366,423.8 371.2,425.7S380,431.6 382.7,434.9S386.6,444 387.3,445.8Z" fill="#05212e" opacity=".42"/><ellipse cx="340.4" cy="430.8" rx="6.9" ry="8.4" fill="#fff"/><circle cx="357.1" cy="450.6" r="3" fill="#fff" opacity=".92"/></g><path d="M326.1,408.4Q344.3,403.7 353.7,404.3T379.2,414.1Q362.8,406.2 353.6,405.8T326.1,408.4Z" fill="#a05a5a" opacity=".45"/><path d="M316.9,455.7Q329.1,458.9 335.2,460.1T353.8,460.7L353.8,461.2Q341.2,462.7 334.9,461.8T316.4,457.7L316.9,455.7Z" fill="#3f323b" opacity=".9"/><path d="M309.9,436.4Q314.3,445.6 317,449.6T328.5,458.1L328.3,458.7Q318.4,456.1 314.3,453T303.9,441.9L309.9,436.4Z" fill="#0a1c2a"/><path d="M383.1,443Q386.5,444.3 388.1,445.3T391.9,449.2Q388.9,447.4 387.3,446.8T382.3,445.1L383.1,443Z" fill="#0a1c2a" opacity=".75"/><path d="M388.5,445.6Q387.3,438.2 386.5,434.4T384.2,427T379.9,420.7T373.5,416.4T366.1,414.1T358.5,413.2T351,412.9T343.5,412.9T335.9,413.6T328.5,415.9T322,420.1T316.4,425.3T311.7,431.3T307.8,437.5T302.8,440.7T293,438.4Q299.2,445.1 304.3,445.5T312.8,442.3T318,435.7T322,430.3T326.6,425.8T331.5,422.3T337.1,420.2T343.7,419.2T350.9,418.7T358.2,418.4T365.2,418.6T371.8,419.9T377.6,423T381.8,428.2T384.4,434.9T387,445.8L388.5,445.6Z" fill="#0a1c2a"/></g><g><path d="M447,442.3C447.4,439 447,427.1 449.3,422.2S455.6,414.9 460.8,413S473.7,410.8 480.5,410.7S495.3,410.1 501.3,412.4S512.6,420 516.3,424.2S522.1,435.4 523.2,437.7L519.8,433.1C519.2,430.1 519.4,420.6 516.3,415.5S507.2,405 501.3,402.5S487.2,400.2 480.5,400.3S466,400.8 460.8,403S451.2,407.8 449.3,413.6S449.3,433.7 449.3,437.7Z" fill="#e9aea5" opacity=".3"/><path d="M444.7,445.8C445.4,442.4 446.6,430.6 449.3,425.7S455.6,418.4 460.8,416.4S473.7,414.2 480.5,414.1S495.3,413.6 501.3,415.9S512,423.2 516.3,427.6S524.9,439.9 526.7,442.3C524.4,444.5 519,452.4 512.8,455.5S498.2,460.3 489.7,460.7S469.5,460.3 462,457.8S447.6,447.8 444.7,445.8Z" fill="url(#mia-maid-t-white)"/><g clip-path="url(#mia-maid-t-eyeR)"><ellipse cx="484.3" cy="440.1" rx="22.5" ry="26.3" fill="url(#mia-maid-t-irisR)" stroke="#062938" stroke-width="1.9"/><path d="M493.4,444.4L502.9,447.8M490,450L496,459.2M484.5,452.2L484.6,463.7M478.9,450.1L473.2,459.6M475.4,444.7L466,448.4M475.3,437.8L465.8,434.4M478.7,432.3L472.7,423M484.2,430.1L484.1,418.5M489.8,432.1L495.5,422.6M493.3,437.6L502.7,433.8" stroke="#073447" stroke-width=".9" opacity=".18"/><ellipse cx="484.3" cy="441.1" rx="15.8" ry="18.4" fill="none" stroke="#b1f4ff" stroke-width="1.1" opacity=".3"/><path d="M466.3,446.7Q484.3,469.1 502.4,446.7Q484.3,457.5 466.3,446.7Z" fill="#b1f4ff" opacity=".6"/><ellipse cx="484.3" cy="441.1" rx="8.6" ry="12.6" fill="#041e29"/><path d="M472.3,451.6H480.3L485.3,446.6H489.3" fill="none" stroke="#dffaff" stroke-width="1.1" opacity=".55"/><circle cx="489.3" cy="446.6" r="1.4" fill="#dffaff" opacity=".7"/><path d="M444.7,445.8C445.4,442.4 446.6,430.6 449.3,425.7S455.6,418.4 460.8,416.4S473.7,414.2 480.5,414.1S495.3,413.6 501.3,415.9S512,423.2 516.3,427.6S524.9,439.9 526.7,442.3L526.7,442.3C524.9,441.4 520.5,439.7 516.3,436.9S507.2,427.4 501.3,425.1S487.2,423.3 480.5,423.4S466,423.8 460.8,425.7S452,431.6 449.3,434.9S445.4,444 444.7,445.8Z" fill="#05212e" opacity=".42"/><ellipse cx="476.3" cy="430.8" rx="6.9" ry="8.4" fill="#fff"/><circle cx="493" cy="450.6" r="3" fill="#fff" opacity=".92"/></g><path d="M505.9,408.4Q487.7,403.7 478.3,404.3T452.8,414.1Q469.2,406.2 478.4,405.8T505.9,408.4Z" fill="#a05a5a" opacity=".45"/><path d="M515.1,455.7Q502.9,458.9 496.8,460.1T478.2,460.7L478.2,461.2Q490.8,462.7 497.1,461.8T515.6,457.7L515.1,455.7Z" fill="#3f323b" opacity=".9"/><path d="M522.1,436.4Q517.7,445.6 515,449.6T503.5,458.1L503.7,458.7Q513.6,456.1 517.7,453T528.1,441.9L522.1,436.4Z" fill="#0a1c2a"/><path d="M448.9,443Q445.5,444.3 443.9,445.3T440.1,449.2Q443.1,447.4 444.7,446.8T449.7,445.1L448.9,443Z" fill="#0a1c2a" opacity=".75"/><path d="M443.5,445.6Q444.7,438.2 445.5,434.4T447.8,427T452.1,420.7T458.5,416.4T465.9,414.1T473.5,413.2T481,412.9T488.5,412.9T496.1,413.6T503.5,415.9T510,420.1T515.6,425.3T520.3,431.3T524.2,437.5T529.2,440.7T539,438.4Q532.8,445.1 527.7,445.5T519.2,442.3T514,435.7T510,430.3T505.4,425.8T500.5,422.3T494.9,420.2T488.3,419.2T481.1,418.7T473.8,418.4T466.8,418.6T460.2,419.9T454.4,423T450.2,428.2T447.6,434.9T445,445.8L443.5,445.6Z" fill="#0a1c2a"/></g><circle cx="411.5" cy="501" r="2.3" fill="#a05a5a" opacity=".85"/><g transform="translate(314 232) rotate(-23) scale(1.06)"><use href="#mia-maid-earAnt"/><path d="M-62,30C-62,-6 -58,-52 -46,-82C-36,-106 -22,-126 -10,-142C4,-134 16,-114 28,-88C40,-62 50,-30 58,26Z" fill="url(#mia-maid-shellL)" stroke="#1b2030" stroke-width="3.2" stroke-linejoin="round"/><path d="M58,26C50,-30 40,-62 28,-88C16,-114 4,-134 -10,-142L-8,-118C2,-108 10,-94 18,-74C26,-54 34,-26 40,30Z" fill="#3d4458" opacity=".45"/><path d="M-54,-30Q-48,-70 -24,-116" fill="none" stroke="#fff" stroke-width="2.2" stroke-linecap="round" opacity=".75"/><path d="M-58,-40l10,4M-56,-52l10,4M-53,-64l10,4" stroke="#1b2030" stroke-width="2.4" stroke-linecap="round" opacity=".6"/><use href="#mia-maid-earInv"/></g><g transform="translate(518 232) rotate(23) scale(-1.06 1.06)"><use href="#mia-maid-earAnt"/><path d="M-62,30C-62,-6 -58,-52 -46,-82C-36,-106 -22,-126 -10,-142C4,-134 16,-114 28,-88C40,-62 50,-30 58,26Z" fill="url(#mia-maid-shellR)" stroke="#1b2030" stroke-width="3.2" stroke-linejoin="round"/><path d="M-62,30C-62,-6 -58,-52 -46,-82C-36,-106 -22,-126 -10,-142L-8,-118C-16,-106 -24,-92 -31,-72C-40,-46 -44,-8 -44,30Z" fill="#3d4458" opacity=".55"/><path d="M46,-30Q36,-70 14,-112" fill="none" stroke="#fff" stroke-width="2.2" stroke-linecap="round" opacity=".3"/><path d="M-58,-40l10,4M-56,-52l10,4M-53,-64l10,4" stroke="#1b2030" stroke-width="2.4" stroke-linecap="round" opacity=".6"/><use href="#mia-maid-earInv"/></g><use href="#mia-maid-t-hairFront"/><path d="M387,402.7Q358.8,397 344.6,396.2T301.9,400.1L301.8,399.7Q330,392.3 344.7,392.4T387.6,400.2L387,402.7ZM445,402.7Q473.2,397 487.4,396.2T530.1,400.1L530.2,399.7Q502,392.3 487.3,392.4T444.4,400.2L445,402.7Z" fill="#123459" opacity="0.4"/><g transform="translate(286 386) rotate(-68)"><path d="M14,9L64,10" stroke="#262a36" stroke-width="4" stroke-linecap="round"/><path d="M10,-5L72,-5.5A15,15 0 0 1 99.5,-6.5L90,-6.5A6.5,6.5 0 0 0 90,6.5L99.5,6.5A15,15 0 0 1 72,5.5L10,5A11.2,11.2 0 1 1 10,-5ZM5.5,0L2.8,4.8L-2.8,4.8L-5.5,0L-2.8,-4.8L2.8,-4.8Z" fill="url(#mia-maid-wrench)" fill-rule="evenodd" stroke="#262a36" stroke-width="2.6" stroke-linejoin="round"/><path d="M14,-2.5H66M-6,-6A8,8 0 0 1 4,-8.5M78,-11A12,12 0 0 1 92,-12" fill="none" stroke="#fff" stroke-width="1.8" stroke-linecap="round" opacity=".85"/><rect x="22" y="-6" width="24" height="12" rx="3" fill="#ff9a3c" stroke="#5a2a0a" stroke-width="2"/><path d="M25,-3H43" stroke="#ffd2a8" stroke-width="1.6" stroke-linecap="round"/><path d="M50,-1.5h5M57,-1.5h3M52,2h7M62,1.5h4" stroke="#7a8294" stroke-width="1.2" stroke-linecap="round"/></g><g stroke-linejoin="round"><path d="M304,268.5Q314.2,253.5 320.9,246.9T336,236.2T353.1,229.4T370.7,224.6T388.6,221.1T406.8,219.1T425.2,219.1T443.4,221.1T461.3,224.6T478.9,229.4T496,236.2T511.1,246.9T528,268.5L524,271.5Q513.1,257.7 506.7,252.2T492.5,243.5T476.2,238.2T459.1,234.4T441.9,231.6T424.6,230T407.3,230T390.1,231.6T372.9,234.4T355.8,238.2T339.5,243.5T325.3,252.2T308,271.5L304,268.5Z" fill="#163f6c" opacity=".45" transform="translate(3 7)"/><path d="M306,270L317,256L330,244L346,236L363,231L380,228L398,225L416,224L434,225L452,228L469,231L486,236L502,244L515,256L526,270L531,266A11 11 0 0 0 524,248A12 12 0 0 0 511,230A12 12 0 0 0 493,218A11 11 0 0 0 474,210A11 11 0 0 0 456,204A11 11 0 0 0 436,200A11 11 0 0 0 416,198A11 11 0 0 0 396,200A11 11 0 0 0 376,204A11 11 0 0 0 358,210A11 11 0 0 0 339,218A12 12 0 0 0 321,230A12 12 0 0 0 308,248A11 11 0 0 0 301,266Z" fill="#f7f3fb" stroke="#5a5072" stroke-width="2.2"/><path d="M317,256L330,244L321,231L308,248ZM346,236L363,231L358,211L340,219ZM380,228L398,225L396,202L377,205ZM416,224L434,225L436,202L416,200ZM452,228L469,231L474,211L455,205ZM486,236L502,244L511,231L492,219ZM515,256L526,270L530,267L524,248Z" fill="#d2c9e2" opacity=".8"/><path d="M315,254L309,249M328,241L322,232M345,233L340,220M362,227L358,213M380,223L377,207M398,220L396,203M416,219L416,202M434,220L436,203M452,223L455,207M470,227L474,213M487,233L492,220M504,241L510,232M517,254L523,249" fill="none" stroke="#a99ec4" stroke-width="1.4"/><path d="M303,268L312,251L325,236L342,226L360,219L378,214L397,211L416,210L435,211L454,214L472,219L490,226L507,236L520,251L529,268" fill="none" stroke="#a99ec4" stroke-width="2.2" stroke-linecap="round" stroke-dasharray="0 7"/><path d="M304,268.5Q314.2,253.5 320.9,246.9T336,236.2T353.1,229.4T370.7,224.6T388.6,221.1T406.8,219.1T425.2,219.1T443.4,221.1T461.3,224.6T478.9,229.4T496,236.2T511.1,246.9T528,268.5L524,271.5Q513.1,257.7 506.7,252.2T492.5,243.5T476.2,238.2T459.1,234.4T441.9,231.6T424.6,230T407.3,230T390.1,231.6T372.9,234.4T355.8,238.2T339.5,243.5T325.3,252.2T308,271.5L304,268.5Z" fill="#25212f" stroke="#07060c" stroke-width="2"/><path d="M305.8,269.9Q320.9,249.8 331.5,243.3T354.3,233.8T378.8,228.8T415.9,223.3L416.1,224.7Q391.5,229 379.2,231.1T354.9,235.9T332.3,244.7T306.2,270.1L305.8,269.9Z" fill="#6a6288" transform="translate(0 -2)"/><path d="M323.3,240.3Q327.9,256.6 327.4,264.8T323.8,280.7T316,295.2T300,314Q301.8,298 302.7,290.4T304.5,275.6T307.4,261.3T316.7,239.7L323.3,240.3Z" fill="#3a93cc" stroke="#0d2645" stroke-width="2" stroke-linejoin="round"/><path d="M323.3,240.3Q327.9,256.6 327.4,264.8T323.8,280.7T316,295.2T300,314Q306.5,300 309.3,292.8T314.1,278.1T317.4,263T320,240L323.3,240.3Z" fill="#24639a" opacity="1"/><path d="M319.5,240Q317.8,255.3 316.7,262.9T313.6,278T308.9,292.7T300,314Q305.4,299.5 307.7,292.2T311.8,277.5T315.1,262.6T319.5,240Z" fill="#0d2645" opacity="0.4"/><path d="M515.3,239.7Q522.6,254.2 524.6,261.3T527.5,275.6T529.3,290.4T532,314Q520.8,302 516,295.2T508.2,280.7T504.7,264.8T508.7,240.3L515.3,239.7Z" fill="#3a93cc" stroke="#0d2645" stroke-width="2" stroke-linejoin="round"/><path d="M515.3,239.7Q522.6,254.2 524.6,261.3T527.5,275.6T529.3,290.4T532,314Q525.5,300 522.7,292.8T517.9,278.1T514.6,263T512,240L515.3,239.7Z" fill="#24639a" opacity="1"/><path d="M511.5,240Q512.6,255.5 513.9,263.1T517.3,278.2T522.3,292.9T532,314Q524.3,300.5 521,293.4T515.5,278.8T512.4,263.5T511.5,240Z" fill="#0d2645" opacity="0.4"/><path d="M323.6,253.4l-15,-9l-3,16zM323.6,253.4l15,-5l-1,17z" fill="#5ac0e6" stroke="#29425a" stroke-width="2"/><circle cx="323.6" cy="253.4" r="4.6" fill="#4883a8" stroke="#29425a" stroke-width="1.8"/></g><g stroke-linejoin="round"><ellipse cx="688" cy="750" rx="34" ry="8" fill="#5ed7ff" opacity=".18" filter="url(#mia-maid-t-soft)"/><ellipse cx="630" cy="654" rx="26" ry="5" fill="#c9f6ff" opacity=".25"/><ellipse cx="746" cy="654" rx="26" ry="5" fill="#c9f6ff" opacity=".18"/><path d="M644,668L630,656M732,668L746,656" stroke="#1b2030" stroke-width="6" stroke-linecap="round"/><circle cx="688" cy="676" r="50" fill="url(#mia-maid-droneShell)" stroke="#1b2030" stroke-width="3"/><path d="M638,680Q688,696 738,680" fill="none" stroke="#646d82" stroke-width="3"/><rect x="693" y="640" width="22" height="12" rx="2" fill="#f6efd9" stroke="#5a5040" stroke-width="1.2" transform="rotate(18 704 646)"/><rect x="715" y="661" width="14" height="18" rx="2" fill="#f6efd9" stroke="#5a5040" stroke-width="1.2" transform="rotate(8 722 670)"/><rect x="707" y="692.5" width="18" height="11" rx="2" fill="#ff9a3c" stroke="#5a5040" stroke-width="1.2" transform="rotate(-24 716 698)"/><rect x="672" y="705" width="20" height="10" rx="2" fill="#c4f4ff" stroke="#5a5040" stroke-width="1.2" transform="rotate(8 682 710)"/><rect x="644.5" y="645" width="15" height="10" rx="2" fill="#ffe08a" stroke="#5a5040" stroke-width="1.2" transform="rotate(-30 652 650)"/><rect x="686" y="628" width="12" height="8" rx="2" fill="#ffb38a" stroke="#5a5040" stroke-width="1.2" transform="rotate(-6 692 632)"/><circle cx="674" cy="674" r="19" fill="#1b2030"/><circle cx="674" cy="674" r="14" fill="url(#mia-maid-droneLens)" filter="url(#mia-maid-t-glow)"/><circle cx="676" cy="676" r="5" fill="#0a2a3c"/><circle cx="669" cy="668" r="4" fill="#fff"/><path d="M694,628L700,608" stroke="#1b2030" stroke-width="3" stroke-linecap="round"/><circle cx="701" cy="605" r="4.5" fill="#ff9a3c" stroke="#5a2a0a" stroke-width="1.5"/><path d="M658,646A40,40 0 0 1 684,634" fill="none" stroke="#fff" stroke-width="3" stroke-linecap="round" opacity=".8"/></g></g><use href="#mia-maid-t-figure" filter="url(#mia-maid-t-rim)"/><rect width="832" height="1216" fill="url(#mia-maid-t-moonwash)"/><rect width="832" height="1216" fill="url(#mia-maid-t-ambient)"/><rect y="972.8000000000001" width="832" height="244.20000000000002" fill="url(#mia-maid-t-fade)"/><rect width="832" height="1216" fill="url(#mia-maid-t-vig)"/></svg>