<svg xmlns="http://www.w3.org/2000/svg" viewBox="0 0 832 1216" role="img" aria-label="芙蕾娅·霜华"><defs><path id="freya-t-faceShape" d="M416,211C397.3,211 377.3,211.5 360,216S325.2,227.5 312,238S288.5,263.7 281,279S270,312.3 267,330S263.5,367.7 263,385S263.4,421.9 264,434S264.9,450 266.5,457.8S270.6,473.3 273.5,480.7S280,495.4 284,502.3S292.4,515.9 297.2,522.3S307.1,534.9 312.6,540.7S323.9,552.1 330,557.2S342.5,567.3 349.1,571.6S362.8,580 370,583.4S384.7,589.9 392.4,592S408.1,596 416,596S431.9,594.1 439.6,592S454.8,586.8 462,583.4S476.2,576 482.9,571.6S495.9,562.4 502,557.2S514,546.5 519.4,540.7S530.1,528.7 534.8,522.3S544.1,509.2 548,502.3S555.6,488.2 558.5,480.7S563.9,465.6 565.5,457.8S567.4,446.1 568,434S569.5,402.3 569,385S568,347.7 565,330S558.5,294.3 551,279S533.2,248.5 520,238S489.3,220.5 472,216S434.7,211 416,211Z"/><path id="freya-t-bodyShape" d="M378,560C364.8,569.3 376.2,599 375,616S372.8,649 371,662S369.8,685.5 364,694S349.3,706.3 336,713S302,727.2 284,734S243.3,747.5 228,754S202.3,765 192,773S173,789.8 166,802S154.3,826.7 150,846S142.7,890.7 140,918S135.7,960.3 134,1010S130,1216 130,1216C130,1216 702,1216 702,1216C702,1216 699.7,1059.7 698,1010S694.7,945.3 692,918S686.3,865.3 682,846S673,814.2 666,802S650.3,781 640,773S619.3,760.5 604,754S566,740.8 548,734S509.3,719.7 496,713S473.8,702.5 468,694S462.8,675 461,662S458.2,633 457,616S467.2,569.3 454,560S391.2,550.7 378,560Z"/><clipPath id="freya-t-faceClip"><use href="#freya-t-faceShape"/></clipPath><clipPath id="freya-t-bodyClip"><use href="#freya-t-bodyShape"/></clipPath><clipPath id="freya-t-torsoClip"><path d="M364,694C341.7,697.3 348.3,707 334,714S294.3,728.3 278,736S243,730.7 236,760S236,912 236,912C236,912 253.7,1009.3 262,1060S286,1216 286,1216C286,1216 546,1216 546,1216C546,1216 561.7,1110.7 570,1060S596,912 596,912C596,912 603,789.3 596,760S570.3,743.7 554,736S512.3,721 498,714S490.3,697.3 468,694S386.3,690.7 364,694Z"/></clipPath><filter id="freya-t-soft" x="-20%" y="-20%" width="140%" height="140%"><feGaussianBlur stdDeviation="6"/></filter><filter id="freya-t-glow" x="-50%" y="-50%" width="200%" height="200%"><feGaussianBlur stdDeviation="5" result="b"/><feMerge><feMergeNode in="b"/><feMergeNode in="SourceGraphic"/></feMerge></filter><filter id="freya-t-cast" x="-5%" y="-5%" width="110%" height="120%"><feOffset in="SourceAlpha" dx="4" dy="13" result="o"/><feFlood flood-color="#e2b1b0"/><feComposite in2="o" operator="in"/></filter><filter id="freya-t-rim" x="-3%" y="-3%" width="106%" height="106%" color-interpolation-filters="sRGB"><feOffset in="SourceAlpha" dx="-6" dy="2" result="o1"/><feComposite in="SourceAlpha" in2="o1" operator="out" result="e1"/><feGaussianBlur in="e1" stdDeviation=".9" result="b1"/><feFlood flood-color="#8fd4f5" flood-opacity=".95"/><feComposite in2="b1" operator="in" result="r1"/><feOffset in="SourceAlpha" dx="5" dy="6" result="o2"/><feComposite in="SourceAlpha" in2="o2" operator="out" result="e2"/><feGaussianBlur in="e2" stdDeviation="1.2" result="b2"/><feFlood flood-color="#e8ddff" flood-opacity=".5"/><feComposite in2="b2" operator="in" result="r2"/><feMerge><feMergeNode in="r2"/><feMergeNode in="r1"/></feMerge><feComposite in2="SourceAlpha" operator="in"/></filter><linearGradient id="freya-frontFrost" x1="0" y1="500" x2="0" y2="1140" gradientUnits="userSpaceOnUse"><stop offset="0" stop-color="#74c0dc"/><stop offset="0.5" stop-color="#74c0dc"/><stop offset="0.8" stop-color="#a2d8ec"/><stop offset="1" stop-color="#e6f8ff"/></linearGradient><linearGradient id="freya-frontFrostS" x1="0" y1="500" x2="0" y2="1140" gradientUnits="userSpaceOnUse"><stop offset="0" stop-color="#4a92b6"/><stop offset="0.5" stop-color="#4a92b6"/><stop offset="0.9" stop-color="#74b3d0"/><stop offset="1" stop-color="#b6e2f4"/></linearGradient><linearGradient id="freya-dome" x1="300" y1="170" x2="560" y2="420" gradientUnits="userSpaceOnUse"><stop offset="0" stop-color="#8ccde6"/><stop offset="0.5" stop-color="#74c0dc"/><stop offset="1" stop-color="#4a92b6"/></linearGradient><clipPath id="freya-bangClip"><path d="M497.8,209.8Q469.8,231.9 457.6,242.4T434.2,261.7T412.3,277.4T391.8,291.6T373.3,307.1T357.1,325.4T342.7,347.5T329.5,372.7T318,399.7T309.3,428.1T304,458.3T301.7,490.3T302,540Q286.5,510 279.6,494.2T267.3,461.5T259,426.5T256,389.9T258.4,353T265.9,316.2T279.6,279.4T301.2,244.7T329.7,215.1T363.1,192.5T400.1,179.8T438.5,178.1T494.2,190.2L497.8,209.8Z"/><path d="M498.4,213.6Q487.7,228.1 482.7,235T473.6,248.3T465.6,260.9T457.5,273T449,284.2T440.4,294.7T431.8,305.3T422.9,316.6T413.6,328.7T404.1,341.4T394.8,354.8T385.8,369.2T372,392Q368.4,374.5 366.8,365.6T364.3,347.4T363.7,328.6T365.3,309.8T368.9,291.3T375,273.1T384,255.6T395.6,239.7T409.5,226.3T425.5,215.4T443.4,207.2T462.1,202.2T489.6,198.4L498.4,213.6Z"/><path d="M497.8,214.8Q492.4,229 489.6,236T484.1,249.7T478.7,263T473,276.1T466.7,288.9T460,301.4T453.1,313.8T446,326.2T438.9,338.6T431.9,351.1T425.3,363.9T419.1,377.3T410,398Q409.1,382.8 408.8,375.2T408.7,359.8T409.9,344.2T412.5,328.8T416.2,313.8T420.9,299.2T426.6,285T433.4,271.2T441.4,258.1T450.6,245.8T461.1,234.3T472.5,223.8T490.2,209.2L497.8,214.8Z"/><path d="M510,199.5Q525,208.1 532.4,213.4T546.3,225.7T557.5,240.7T565.2,256.8T570.1,273.2T573,290T574.1,306.9T573.7,323.5T572.1,339.8T569.6,356T566.3,372.1T562.4,388.1T556,412Q549.9,396.7 546.9,389.1T541,374T535.3,359T529.9,344.1T524.9,329.4T520.4,315.1T516.3,301.2T512.4,287.5T509,273.9T506.8,260.4T505.3,246.8T503.1,232.4T498,208.5L510,199.5Z"/></clipPath><linearGradient id="freya-bangRoot" x1="0" y1="200" x2="0" y2="280" gradientUnits="userSpaceOnUse"><stop offset="0" stop-color="#2b6288" stop-opacity="0.7"/><stop offset="1" stop-color="#2b6288" stop-opacity="0"/></linearGradient><g id="freya-t-hairFront"><g stroke-linejoin="round"><path d="M291.1,322.5Q278.3,374.7 271.1,401T253.7,452.3T234.1,500T222.7,544.4T228.3,589.2T243.1,640.5T245.9,698.7T229.5,754T207.1,802.2T194.2,849.4T196.4,899.1T204.9,951.4T198.3,1031.4Q200.1,978.7 192.3,953.6T175.8,902.5T166.2,847.7T173.8,792T191.1,741.4T201.8,695T196.3,649.4T180,599T174.5,540.6T191,484.1T217.5,435.8T242.4,389.4T276.9,317.5L291.1,322.5Z" fill="url(#freya-frontFrost)" stroke="#173f5c" stroke-width="2.2" stroke-linejoin="round"/><path d="M293.6,322.4Q286.2,382 282.4,412.1T272.3,471.7T259.9,528T254.2,579.9T262.5,632T276,691.6T276.1,757.8T257.3,819.9T232.6,874T218,926.5T218.6,982.1T225.7,1041T218.3,1130.9Q217.8,1071.9 209.2,1043.7T191.4,986T181.1,924T188.6,861T206.5,803.7T217.9,751.6T213.8,700.5T198.4,644.6T189.7,580.2T200.4,515.4T221.7,457.3T242.8,401.8T274.4,317.6L293.6,322.4Z" fill="url(#freya-frontFrost)" stroke="#173f5c" stroke-width="2.2" stroke-linejoin="round"/><path d="M293.6,322.4Q286.2,382 282.4,412.1T272.3,471.7T259.9,528T254.2,579.9T262.5,632T276,691.6T276.1,757.8T257.3,819.9T232.6,874T218,926.5T218.6,982.1T225.7,1041T218.3,1130.9Q223.4,1071.6 217.5,1042.4T205,984.1T199.5,925.3T210.6,867.5T231.9,811.8T247,754.7T244.9,696.1T230.5,638.4T222,580.1T230.1,521.7T247,464.5T262.7,406.9T284,320L293.6,322.4Z" fill="url(#freya-frontFrostS)" opacity="0.5"/><path d="M282.6,319.6Q267.3,377.4 260,406.3T243.7,463.6T226.4,520.9T218.1,580.1T226.7,639.1T241.3,696.6T243.7,754.4T229.1,810.9T208.2,866.8T197.6,925.2T203.8,984.3T216.9,1042.5T218.3,1130.9Q222.1,1071.6 215.6,1042.6T202.1,984.4T195.8,925T206.4,866.3T227.2,810.3T241.6,754.1T239.2,696.9T224.7,639.5T216.2,580.1T224.9,520.6T242.6,463.2T259.2,406T282.6,319.6Z" fill="#173f5c" opacity="0.4"/><path d="M290.6,320.6Q291.2,365 290.5,387.7T285.3,432.5T276.7,474.3T274.2,512.2T283.7,549.5T298.3,592.3T300.8,641.3T285.4,686.9T265.1,725.3T254.9,763T259.3,803.1T269.2,845.7T264.3,911.4Q266,868.3 258.3,848.2T241.5,807.3T230.4,762.4T236.1,715.9T252.1,674.5T262.2,637.5T257.5,601.5T242,562.1T231.5,515.4T236.8,467.3T251.2,424.3T263.6,383.3T277.4,319.4L290.6,320.6Z" fill="url(#freya-frontFrost)" stroke="#173f5c" stroke-width="2.2" stroke-linejoin="round"/><path d="M576.5,469Q591.1,509.5 598,529.2T613.8,567.1T633.5,604T652.2,645.8T657.9,693.5T648.1,739T634.9,778.3T629.5,815.1T635.4,852.5T648.5,891.8T659.3,934.3T658.8,978.3T639.4,1040.4Q647.1,998.7 647.1,978.2T640.7,938.6T624.2,901.1T604.8,861.8T592.7,817.1T594.6,770.5T605.4,728.3T612.9,691.6T608.8,657T595,620.4T580.8,579.4T572.8,535.8T567.5,471L576.5,469Z" fill="url(#freya-frontFrost)" stroke="#173f5c" stroke-width="2.2" stroke-linejoin="round"/><path d="M578.2,469.4Q590.9,516.1 596.6,538.9T609.7,583.3T626,627.3T640.5,676.1T642.9,729.7T632.4,780.1T620,824.1T615.2,865.4T621,907.4T633.7,952.1T644.1,1000.4T643.2,1050.1T623.4,1120.5Q628.5,1073.2 627.4,1050.2T619,1005.9T600.7,963.8T579.5,919.4T565.4,869.1T565,816.3T574.2,767.6T582.1,725.1T580.5,684.9T571.3,641.5T563.3,593.3T561.9,543.5T565.8,470.6L578.2,469.4Z" fill="url(#freya-frontFrost)" stroke="#173f5c" stroke-width="2.2" stroke-linejoin="round"/><path d="M578.2,469.4Q590.9,516.1 596.6,538.9T609.7,583.3T626,627.3T640.5,676.1T642.9,729.7T632.4,780.1T620,824.1T615.2,865.4T621,907.4T633.7,952.1T644.1,1000.4T643.2,1050.1T623.4,1120.5Q633.8,1073.9 635.3,1050.1T631.5,1003.1T617.2,957.9T600.3,913.4T590.3,867.3T592.5,820.2T603.3,773.8T612.5,727.4T610.5,680.5T598.6,634.3T586.5,588.2T579.3,541.2T572,470L578.2,469.4Z" fill="url(#freya-frontFrostS)" opacity="0.5"/><path d="M571.1,470.1Q575.1,517.6 577,541.5T583.6,588.9T595.3,635.2T606.9,681T608.9,727.1T599.9,773.1T589.4,819.7T587.6,867.4T598.1,914T615.6,958.5T630.4,1003.4T634.7,1050.1T623.4,1120.5Q632.6,1073.7 633.5,1050.1T628.8,1003.7T613.8,959.1T596.2,914.6T585.6,867.6T587.4,819.4T597.9,772.7T606.9,727T605.1,681.3T593.8,635.6T582.5,589.1T576.3,541.6T571.1,470.1Z" fill="#173f5c" opacity="0.4"/><path d="M575.8,470.2Q578.7,504 580.2,520.2T585.9,551.5T596,582.5T605.1,617.6T603.1,655.5T590.3,689.4T577.7,718.3T573,745.9T578.7,774.2T590.9,804.5T600.7,838.1T599.4,872.9T579.4,920.3Q588.8,888.2 589.9,872.3T585.6,841.8T571.3,813.3T553.9,783.3T542.8,747.9T544.9,710.2T556.3,676.6T566.6,648T568.2,620.6T562.3,590.3T557.2,556T558.8,520.6T568.2,469.8L575.8,470.2Z" fill="url(#freya-frontFrost)" stroke="#173f5c" stroke-width="2.2" stroke-linejoin="round"/><path d="M259.6,365.8Q256.1,386.8 253.5,397.1T246.7,417.1T236.9,435.8T218.6,461.8Q224.8,441.6 228.4,431.8T236,412.5T244.6,393.7T259.6,365.8ZM235.7,466.6Q230,487.3 226.8,497T220.7,516.1T215,535.4T205.6,565.6Q202.6,544.2 202.6,533.2T205.9,511.6T215.3,491.9T235.7,466.6ZM202.1,617.5Q213.5,636.1 218,646.3T223.7,667.8T222.2,689.9T211.4,721.1Q210.3,699.5 210,689.2T208.7,669.1T206.2,649.1T202.1,617.5ZM206.5,772.6Q201.2,793.3 198.4,803.3T193.5,823.2T190.1,843.3T185.9,874.7Q182.4,853.5 181.8,842.7T183.5,821.1T190.5,800.6T206.5,772.6ZM191.2,927Q197.5,947.3 200.1,957.6T203.4,978.6T202.5,999.9T196.5,1031.2Q199.2,1010.2 200.2,999.7T200.5,978.8T197.8,958.1T191.2,927ZM260.3,373.9Q259.6,398 258.3,409.9T253.9,433.3T246,455.8T229.5,488Q232,464 234,452.3T239.1,429.3T246.3,406.9T260.3,373.9ZM252.8,491Q251.3,515.3 249.9,526.7T246.8,549T242.9,571.2T234.8,606Q227.9,582.5 226.2,570.3T226.4,545.8T233.7,522.4T252.8,491ZM225.4,664.1Q237.3,685.7 241.8,697.4T247,721.7T244.3,746.4T230.9,781.1Q228.7,756.7 228.2,745.2T227.1,722.7T225.9,700.1T225.4,664.1ZM229.7,839.5Q224.7,863.1 221.9,874.4T216.8,896.9T212.8,919.6T207.2,954.8Q202.8,930.9 201.9,918.7T203.5,894.3T211.4,871.1T229.7,839.5ZM209.3,1013.5Q216,1036.4 218.7,1048T222.2,1071.6T221.6,1095.5T215.9,1130.8Q217.9,1107.1 218.6,1095.3T218.6,1071.8T215.8,1048.5T209.3,1013.5ZM273.5,361.1Q274.9,378.5 274.8,387.3T273,404.7T268,421.4T256.8,445Q258.7,427.7 260,419.3T263,402.6T266.7,386.1T273.5,361.1ZM272.4,445.8Q271.2,463.4 270.2,471.8T268.2,488.1T266.1,504.3T261.9,530Q256.5,513.1 254.9,504.2T254.5,486.3T259.4,469.1T272.4,445.8ZM261.3,572.3Q271.6,587.1 275.8,595.3T281.2,612.9T280.2,631.3T271,657.1Q269.9,639.2 269.5,630.8T268.1,614.5T265.5,598.3T261.3,572.3ZM265.5,699.2Q260.5,716.1 257.9,724.3T253.5,740.5T250.9,756.9T248.5,782.9Q244.5,765.6 243.6,756.6T244.7,738.6T251,721.7T265.5,699.2ZM256.1,825.8Q262.5,842.2 265.2,850.6T268.7,867.9T268.2,885.5T262.7,911.3Q265.3,894 266.2,885.3T266.3,868.1T263.3,851.1T256.1,825.8ZM587.9,511.6Q594.6,528.5 597.5,536.9T602.9,553.6T607.6,570.5T613.6,596.9Q603.8,581.6 599.6,573.5T592.8,556.7T589.2,538.9T587.9,511.6ZM618,641.5Q628,657.7 631.7,666.7T635.5,685.7T632.1,704.7T619.1,730.2Q619.7,711.5 620.2,702.7T620.7,685.7T620,668.8T618,641.5ZM620.8,774.5Q622,792.9 622.3,801.7T623.5,818.9T625.8,836.1T629.5,863.1Q620.1,847 616.4,838.3T611.7,820.1T612.7,801.3T620.8,774.5ZM638.2,906.9Q645.6,923.5 648.7,932.1T652.9,949.9T652.9,968.2T648.4,995.1Q648.6,977 648.6,968.1T647.5,950.5T644.4,933.2T638.2,906.9ZM586.3,518.6Q592.4,538.3 594.8,548.1T598.8,567.7T601.3,587.5T602.7,618.2Q593.6,599.6 590,589.9T584.7,570T583.3,549.5T586.3,518.6ZM595.9,669.3Q605.8,688.4 609.1,698.8T611.9,720.3T607.3,741.4T591.9,769.8Q591.1,748.6 591.4,738.7T592.1,719.5T593,700.3T595.9,669.3ZM601.3,819.8Q604.4,840.5 605.4,850.4T607.5,869.7T609.7,889T612.3,919.7Q601.4,901.7 597.1,891.9T591.6,871.4T592.5,850.2T601.3,819.8ZM617.8,969.7Q626.2,988.4 629.6,998.2T634.3,1018.3T634.6,1038.9T629.8,1069.4Q629,1049 628.7,1039T627.2,1019.2T623.9,999.5T617.8,969.7ZM575.8,504.5Q577.5,518.6 578.1,525.5T579.2,539.2T580.1,552.9T580.8,573.9Q575.3,560.8 573.2,553.9T570.5,539.8T571,525.5T575.8,504.5ZM577.6,608.7Q583.6,622.4 585.4,629.9T586,645.1T581.1,659.4T568.1,677.8Q570.3,663.2 571.7,656.4T574.1,643.3T575.6,630.1T577.6,608.7ZM566.7,712.6Q567,727.1 567,734T567.7,747.4T569.7,760.7T573.4,781.8Q565.3,769.5 562,762.7T557.9,748.3T559,733.4T566.7,712.6ZM582.6,816Q589.2,828.7 592,835.4T595.6,849.4T595.2,863.8T590.3,884.8Q591.3,870.6 591.7,863.6T591.3,849.8T588.6,836.3T582.6,816Z" fill="#4a92b6" opacity=".85"/><path d="" fill="#dcf6ff" opacity=".75"/><path d="M254,430C248,429 245,382.3 244,360S244,316.3 248,296S258.3,254.7 268,238S290.7,207 306,196S340.7,177 360,172S401,165.7 422,166S467,168.7 486,174S522.3,187 536,198S560.3,223.7 568,240S579.7,276 582,296S583.7,339.3 582,360S576.3,420 572,420S564,379 556,360S538.3,320 524,306S490.7,280.3 470,276S423.3,275 400,280S350,291.7 330,306S292.7,345.3 280,366S260,431 254,430Z" fill="url(#freya-dome)" stroke="#173f5c" stroke-width="3.4"/><path d="M582,296C584.7,310 583.7,339.3 582,360S576.3,420 572,420S563,377.7 556,360S531,325.7 530,314S544,296.3 550,290S560.7,275 566,276S579.3,282 582,296Z" fill="#4a92b6" opacity=".8"/><path d="M480,184Q455.1,186.6 442.7,188T418,191.5T393.8,197.3T370.4,205.7T348,216.4T327.6,230.3T310.3,247.9T288,278Q301.9,257.2 309.5,247.2T326.5,228.9T346.9,214.4T369.5,203.5T393.2,195.2T417.7,189.7T442.6,186.7T480,184ZM512,190Q536.2,203.7 545.1,214.3T566,250Q552.4,226.1 543.6,215.7T512,190ZM470,202Q446.7,208 435,211T412,217.7T390,226.9T369.4,239.1T340,260Q358.8,244.9 368.6,237.8T389,225T411.2,215.6T434.6,209.3T470,202Z" fill="#173f5c" opacity=".4"/><path d="M262,314C262,314 273.3,277.7 284,262S309.3,231 326,220S360,201.7 384,196S470,186 470,186C470,186 480,196 480,196C480,196 456,212 456,212C456,212 440,206 440,206C440,206 420,226 420,226C420,226 402,218 402,218C402,218 376,242 376,242C376,242 356,236 356,236C356,236 330,262 330,262C330,262 312,258 312,258C312,258 290,290 290,290C290,290 278,286 278,286C278,286 262,314 262,314ZM512,194C512,194 530,201 538,208S554,225.7 560,236S574,270 574,270C574,270 562,268 562,268C562,268 550,250 550,250C550,250 536,256 536,256C536,256 524,234 524,234C524,234 512,236 512,236C512,236 504,212 504,212C504,212 512,194 512,194Z" fill="#f0fbff" opacity=".9"/><path d="M500.6,176.1Q501.7,190.5 500.2,197.5T494,218Q494.6,203.8 495.2,196.8T499.4,175.9L500.6,176.1Z" fill="#2b6288"/><path d="M507.9,202.1Q524.4,209.1 532.7,213.6T548.6,224.7T561.9,239.6T571.6,256.4T578.1,273.5T582.1,291.1T584,309.1T583.8,326.9T582,344.4T579,361.6T574.9,378.5T570,395.2T562,420Q557,403.4 554.6,395.1T549.9,378.7T545.3,362.6T540.9,346.7T536.9,331.1T533.3,316T529.8,301.3T526.5,286.7T523.9,272.1T521.9,257.9T519.3,244T514.5,229.5T504.1,205.9L507.9,202.1Z" fill="#4a92b6" stroke="#173f5c" stroke-width="2.2" stroke-linejoin="round"/><path d="M507.9,202.1Q524.4,209.1 532.7,213.6T548.6,224.7T561.9,239.6T571.6,256.4T578.1,273.5T582.1,291.1T584,309.1T583.8,326.9T582,344.4T579,361.6T574.9,378.5T570,395.2T562,420Q562.2,403.4 562.3,395.1T562.4,378.6T562.1,362.1T561.4,345.5T560.3,329T558.6,312.6T555.9,296.3T552.2,280.1T547.7,264.2T541.9,248.8T533.9,234.4T523.5,221.6T506,204L507.9,202.1Z" fill="#2b6288" opacity="0.9"/><path d="M490.8,209.4Q472.3,222.3 463.3,228.5T446.4,240.7T431.3,252.7T417,264.5T402.9,275.7T389.4,286.3T376.6,297.2T364,309.3T351.3,322.8T338.8,337.5T327.2,353.6T316.3,371.5T300,400Q297.7,378 296.9,366.8T296.4,343.9T298.8,320.4T304.7,297.2T313.9,274.8T326.8,253.6T343.5,234.7T363,219.3T384.5,208T407.7,200.6T431.7,197.5T455.2,198.3T489.2,202.6L490.8,209.4Z" fill="#4a92b6" stroke="#173f5c" stroke-width="2.2" stroke-linejoin="round"/><path d="M490.8,209.4Q472.3,222.3 463.3,228.5T446.4,240.7T431.3,252.7T417,264.5T402.9,275.7T389.4,286.3T376.6,297.2T364,309.3T351.3,322.8T338.8,337.5T327.2,353.6T316.3,371.5T300,400Q304.3,379.4 306.6,369.1T311.8,348.7T318.8,328.9T328,310T339,292.1T351.7,275.4T366.4,260.5T383,247.5T400.8,236.2T419.5,226.6T439.1,219.1T459.3,213.4T490,206L490.8,209.4Z" fill="#2b6288" opacity="0.9"/><path d="M497.8,209.8Q469.8,231.9 457.6,242.4T434.2,261.7T412.3,277.4T391.8,291.6T373.3,307.1T357.1,325.4T342.7,347.5T329.5,372.7T318,399.7T309.3,428.1T304,458.3T301.7,490.3T302,540Q286.5,510 279.6,494.2T267.3,461.5T259,426.5T256,389.9T258.4,353T265.9,316.2T279.6,279.4T301.2,244.7T329.7,215.1T363.1,192.5T400.1,179.8T438.5,178.1T494.2,190.2L497.8,209.8Z" fill="#74c0dc" stroke="#173f5c" stroke-width="2.2" stroke-linejoin="round"/><path d="M497.8,209.8Q469.8,231.9 457.6,242.4T434.2,261.7T412.3,277.4T391.8,291.6T373.3,307.1T357.1,325.4T342.7,347.5T329.5,372.7T318,399.7T309.3,428.1T304,458.3T301.7,490.3T302,540Q293.8,508.3 290.6,492.2T285.7,459.9T284.2,427.3T287,394.8T294,362.9T304.4,331.9T318.4,302.4T337.2,275.9T360.7,253.4T387.7,235T417.1,220.8T448,210.3T496,200L497.8,209.8Z" fill="#4a92b6" opacity="0.9"/><path d="M495.7,198.5Q462.9,202.2 446.7,205.8T414.8,215.2T384.4,229.3T356.7,248.3T332.6,271.9T313.4,299.5T299.5,329.9T289.6,361.7T283.3,394.2T281.3,427.2T283.8,460.1T289.7,492.4T302,540Q292.2,508.7 288.3,492.7T282.1,460.3T279.5,427.2T281.4,393.9T287.7,361.1T297.6,329.1T311.6,298.4T331,270.6T355.5,246.9T383.6,227.9T414.3,214.1T446.5,205.1T495.7,198.5Z" fill="#173f5c" opacity="0.4"/><path d="M416.8,214.5Q409.2,217 405.3,218.4T397.7,221.4T390.4,224.9T379.7,230.7Q382,218 383.8,212.2T389.9,204.9T399.9,206.1T416.8,214.5Z" fill="#dcf6ff" opacity="0.9"/><path d="M498.4,213.6Q487.7,228.1 482.7,235T473.6,248.3T465.6,260.9T457.5,273T449,284.2T440.4,294.7T431.8,305.3T422.9,316.6T413.6,328.7T404.1,341.4T394.8,354.8T385.8,369.2T372,392Q368.4,374.5 366.8,365.6T364.3,347.4T363.7,328.6T365.3,309.8T368.9,291.3T375,273.1T384,255.6T395.6,239.7T409.5,226.3T425.5,215.4T443.4,207.2T462.1,202.2T489.6,198.4L498.4,213.6Z" fill="#74c0dc" stroke="#173f5c" stroke-width="2.2" stroke-linejoin="round"/><path d="M498.4,213.6Q487.7,228.1 482.7,235T473.6,248.3T465.6,260.9T457.5,273T449,284.2T440.4,294.7T431.8,305.3T422.9,316.6T413.6,328.7T404.1,341.4T394.8,354.8T385.8,369.2T372,392Q374.8,375.6 376.3,367.4T379.6,351.1T383.9,335T389.4,319.3T395.9,304T403.4,289.2T412.2,275.1T422.4,261.9T433.6,249.6T445.6,238.1T458.6,227.7T472.5,218.6T494,206L498.4,213.6Z" fill="#4a92b6" opacity="0.9"/><path d="M493.3,204.9Q478.5,212.5 471.1,216.5T456.6,225.1T443,235.2T430.5,246.7T419.1,259.2T408.9,272.8T400.1,287.3T392.8,302.5T386.7,318.3T381.7,334.4T378.1,350.7T375.5,367.2T372,392Q373.4,375.3 374.3,367T376.5,350.4T380,333.9T384.9,317.6T390.9,301.7T398.2,286.3T407.1,271.6T417.6,257.9T429.3,245.4T442,234.1T455.9,224.2T470.7,215.9T493.3,204.9Z" fill="#173f5c" opacity="0.4"/><path d="M432.9,243.4Q427.1,249.2 424.3,252.2T418.8,258.4T413.6,264.9T406.4,274.9Q405.4,264 405.6,258.7T408.7,250T416.8,245.5T432.9,243.4Z" fill="#dcf6ff" opacity="0.9"/><path d="M497.8,214.8Q492.4,229 489.6,236T484.1,249.7T478.7,263T473,276.1T466.7,288.9T460,301.4T453.1,313.8T446,326.2T438.9,338.6T431.9,351.1T425.3,363.9T419.1,377.3T410,398Q409.1,382.8 408.8,375.2T408.7,359.8T409.9,344.2T412.5,328.8T416.2,313.8T420.9,299.2T426.6,285T433.4,271.2T441.4,258.1T450.6,245.8T461.1,234.3T472.5,223.8T490.2,209.2L497.8,214.8Z" fill="#74c0dc" stroke="#173f5c" stroke-width="2.2" stroke-linejoin="round"/><path d="M497.8,214.8Q492.4,229 489.6,236T484.1,249.7T478.7,263T473,276.1T466.7,288.9T460,301.4T453.1,313.8T446,326.2T438.9,338.6T431.9,351.1T425.3,363.9T419.1,377.3T410,398Q412.6,383.5 414,376.3T417,361.9T420.9,347.6T425.7,333.6T431.1,319.9T437.1,306.4T443.4,293.1T450.1,280T457.2,267.1T464.6,254.4T472.6,242T481.1,229.9T494,212L497.8,214.8Z" fill="#4a92b6" opacity="0.9"/><path d="M493.4,211.6Q484.4,223.3 480,229.2T471.4,241.2T463.2,253.6T455.6,266.3T448.5,279.2T441.8,292.4T435.6,305.8T429.8,319.4T424.6,333.3T420.1,347.4T416.4,361.7T413.6,376.2T410,398Q411.8,383.3 412.8,376T415.1,361.4T418.4,346.9T422.8,332.6T427.9,318.6T433.6,304.9T439.9,291.4T446.7,278.2T454,265.3T461.9,252.7T470.4,240.5T479.4,228.8T493.4,211.6Z" fill="#173f5c" opacity="0.4"/><path d="M456.7,262.8Q453,269 451.3,272.1T447.9,278.4T444.5,284.9T439.7,294.6Q439.5,286.4 439.7,282.4T441.6,275.2T446.5,269.6T456.7,262.8Z" fill="#dcf6ff" opacity="0.9"/><path d="M510,199.5Q525,208.1 532.4,213.4T546.3,225.7T557.5,240.7T565.2,256.8T570.1,273.2T573,290T574.1,306.9T573.7,323.5T572.1,339.8T569.6,356T566.3,372.1T562.4,388.1T556,412Q549.9,396.7 546.9,389.1T541,374T535.3,359T529.9,344.1T524.9,329.4T520.4,315.1T516.3,301.2T512.4,287.5T509,273.9T506.8,260.4T505.3,246.8T503.1,232.4T498,208.5L510,199.5Z" fill="#74c0dc" stroke="#173f5c" stroke-width="2.2" stroke-linejoin="round"/><path d="M510,199.5Q525,208.1 532.4,213.4T546.3,225.7T557.5,240.7T565.2,256.8T570.1,273.2T573,290T574.1,306.9T573.7,323.5T572.1,339.8T569.6,356T566.3,372.1T562.4,388.1T556,412Q555.1,396.4 554.7,388.6T553.7,373T552.4,357.5T550.9,342T549.2,326.4T547.2,310.9T544.6,295.6T541.2,280.4T537.1,265.3T532.1,250.5T525.7,236.3T517.7,223T504,204L510,199.5Z" fill="#4a92b6" opacity="0.9"/><path d="M503.1,204.7Q511.8,217.6 515.9,224.1T523.3,237.5T529.1,251.7T533.8,266.3T537.9,281.1T541.4,296.2T544.3,311.4T546.7,326.7T548.8,342.1T550.8,357.6T552.6,373.1T554.1,388.6T556,412Q553.9,396.5 552.9,388.7T551,373.2T549,357.8T546.8,342.4T544.6,327T542.2,311.7T539.3,296.6T535.9,281.7T532,266.9T527.6,252.3T522.2,238.2T515.2,224.6T503.1,204.7Z" fill="#173f5c" opacity="0.4"/><path d="M532.2,262.8Q534.3,270.1 535.3,273.7T537.2,281T539,288.3T541.4,299.3Q534.1,293.2 530.7,290.2T526.3,283.7T526.9,276T532.2,262.8Z" fill="#dcf6ff" opacity="0.9"/><g clip-path="url(#freya-bangClip)"><rect x="250" y="190" width="340" height="90" fill="url(#freya-bangRoot)"/><path d="M262,352C262,352 274.7,309 286,292S312.3,261 330,250S370,231 392,226S440.3,219.3 462,220S504,223 522,230S570,262 570,262C570,262 560,276 560,276C560,276 546,262 546,262C546,262 530,272 530,272C530,272 514,252 514,252C514,252 496,262 496,262C496,262 478,244 478,244C478,244 458,256 458,256C458,256 438,242 438,242C438,242 418,256 418,256C418,256 398,246 398,246C398,246 376,266 376,266C376,266 358,260 358,260C358,260 338,284 338,284C338,284 322,280 322,280C322,280 302,312 302,312C302,312 290,308 290,308C290,308 276,352 276,352C276,352 262,352 262,352Z" fill="#ecfaff" opacity=".72"/></g><path d="M296.2,400Q293.1,425.6 291.3,438.3T288.7,463.7T289,489.1T292.3,514.4T297.9,539.4T310,576Q300.2,552.2 296.3,539.9T289.7,514.9T285.6,489.3T284.9,463.5T287.8,437.8T295.8,400L296.2,400ZM548.2,360Q556.3,386.7 558.7,400.5T560.8,428.4T556,470Q558.4,442.3 558.1,428.5T555.1,401.1T547.8,360L548.2,360Z" fill="#74c0dc" stroke="#173f5c" stroke-width="1.2"/></g></g><linearGradient id="freya-backFrost" x1="0" y1="300" x2="0" y2="1216" gradientUnits="userSpaceOnUse"><stop offset="0" stop-color="#4a92b6"/><stop offset="0.6" stop-color="#4a92b6"/><stop offset="0.9" stop-color="#7fbfd8"/><stop offset="1" stop-color="#c8ecf8"/></linearGradient><linearGradient id="freya-backMass" x1="0" y1="200" x2="0" y2="1216" gradientUnits="userSpaceOnUse"><stop offset="0" stop-color="#4a92b6"/><stop offset="0.6" stop-color="#2b6288"/><stop offset="0.9" stop-color="#2f6d90"/><stop offset="1" stop-color="#6fb0cc"/></linearGradient><linearGradient id="freya-t-skinBody" x1="0" y1="560" x2="0" y2="1000" gradientUnits="userSpaceOnUse"><stop offset="0" stop-color="#fae7de"/><stop offset="0.6" stop-color="#f4dad3"/><stop offset="1" stop-color="#e2b1b0"/></linearGradient><linearGradient id="freya-robeL" x1="150" y1="760" x2="420" y2="1200" gradientUnits="userSpaceOnUse"><stop offset="0" stop-color="#3f6b9f"/><stop offset="0.4" stop-color="#2b4d7a"/><stop offset="1" stop-color="#1c3456"/></linearGradient><linearGradient id="freya-robeR" x1="420" y1="760" x2="700" y2="1150" gradientUnits="userSpaceOnUse"><stop offset="0" stop-color="#2b4d7a"/><stop offset="0.5" stop-color="#1c3456"/><stop offset="1" stop-color="#11223b"/></linearGradient><linearGradient id="freya-collar" x1="364" y1="0" x2="476" y2="0" gradientUnits="userSpaceOnUse"><stop offset="0" stop-color="#c4e0f2"/><stop offset="0.6" stop-color="#c4e0f2"/><stop offset="1" stop-color="#8fb8d6"/></linearGradient><linearGradient id="freya-furL" x1="160" y1="690" x2="360" y2="900" gradientUnits="userSpaceOnUse"><stop offset="0" stop-color="#ffffff"/><stop offset="0.5" stop-color="#f3f8fc"/><stop offset="1" stop-color="#c4d6e6"/></linearGradient><linearGradient id="freya-furR" x1="470" y1="690" x2="700" y2="900" gradientUnits="userSpaceOnUse"><stop offset="0" stop-color="#c4d6e6"/><stop offset="0.6" stop-color="#c4d6e6"/><stop offset="1" stop-color="#90a9c3"/></linearGradient><linearGradient id="freya-gem" x1="402" y1="836" x2="430" y2="868" gradientUnits="userSpaceOnUse"><stop offset="0" stop-color="#ffffff"/><stop offset="0.4" stop-color="#c6eeff"/><stop offset="1" stop-color="#3f8fc4"/></linearGradient><path id="freya-broochFlake" d="M416,852L445.4,869M432.2,861.4L435.8,872.1M432.2,861.4L443.3,859.1M416,852L416,886M416,870.7L408.5,879.2M416,870.7L423.5,879.2M416,852L386.6,869M399.8,861.4L388.7,859.1M399.8,861.4L396.2,872.1M416,852L386.6,835M399.8,842.7L396.2,831.9M399.8,842.7L388.7,844.9M416,852L416,818M416,833.3L423.5,824.8M416,833.3L408.5,824.8M416,852L445.4,835M432.2,842.7L443.3,844.9M432.2,842.7L435.8,831.9" stroke-linecap="round"/><linearGradient id="freya-t-skinFace" x1="300" y1="330" x2="520" y2="591" gradientUnits="userSpaceOnUse"><stop offset="0" stop-color="#fff8f4"/><stop offset="0.4" stop-color="#fae7de"/><stop offset="1" stop-color="#f2d4ce"/></linearGradient><radialGradient id="freya-t-blush" cx="0.5" cy="0.5" r="0.5"><stop offset="0" stop-color="#f39aa8" stop-opacity="0.17600000000000002"/><stop offset="1" stop-color="#f39aa8" stop-opacity="0"/></radialGradient><clipPath id="freya-t-eyeL"><path d="M386.5,445.5C385.8,443.3 384.7,436 382.1,432.3S376.1,425.4 371.1,423.5S358.8,421.6 352.4,421.3S338.3,420.1 332.6,422S322.3,429.1 318.3,433.1S310,443.9 308.4,446.1C310.6,447 315.7,450.1 321.6,451.9S335.5,456.5 343.6,456.9S362.9,456 370,454.1S383.8,446.9 386.5,445.5Z"/></clipPath><linearGradient id="freya-t-irisL" x1="0" y1="0" x2="0" y2="1"><stop offset="0" stop-color="#45210e"/><stop offset="0.3" stop-color="#6a3315"/><stop offset="0.7" stop-color="#cc9452"/><stop offset="1" stop-color="#f6bd6c"/></linearGradient><linearGradient id="freya-t-white" x1="0" y1="0" x2="0" y2="1"><stop offset="0" stop-color="#c9bfe2"/><stop offset="0.5" stop-color="#f8f4fc"/><stop offset="1" stop-color="#f8f4fc"/></linearGradient><clipPath id="freya-t-eyeR"><path d="M445.5,445.5C446.2,443.3 447.3,436 449.9,432.3S455.9,425.4 460.9,423.5S473.2,421.6 479.6,421.3S493.7,420.1 499.4,422S509.7,429.1 513.7,433.1S522,443.9 523.6,446.1C521.4,447 516.3,450.1 510.4,451.9S496.5,456.5 488.4,456.9S469.1,456 462,454.1S448.2,446.9 445.5,445.5Z"/></clipPath><linearGradient id="freya-t-irisR" x1="0" y1="0" x2="0" y2="1"><stop offset="0" stop-color="#45210e"/><stop offset="0.3" stop-color="#6a3315"/><stop offset="0.7" stop-color="#cc9452"/><stop offset="1" stop-color="#f6bd6c"/></linearGradient><linearGradient id="freya-shaft" x1="696" y1="0" x2="736" y2="0" gradientUnits="userSpaceOnUse"><stop offset="0" stop-color="#f4f8fb"/><stop offset="0.5" stop-color="#cfdcea"/><stop offset="1" stop-color="#7f97b0"/></linearGradient><radialGradient id="freya-orb" cx="692" cy="712" r="46" gradientUnits="userSpaceOnUse"><stop offset="0" stop-color="#ffffff"/><stop offset="0.3" stop-color="#dcf6ff"/><stop offset="0.7" stop-color="#8fd4f5"/><stop offset="1" stop-color="#3f8fc4"/></radialGradient><linearGradient id="freya-aurA" x1="0" y1="-14" x2="0" y2="380" gradientUnits="userSpaceOnUse"><stop offset="0" stop-color="#8ff3d6" stop-opacity="0"/><stop offset="0.6" stop-color="#8ff3d6" stop-opacity="0.2"/><stop offset="1" stop-color="#8ff3d6" stop-opacity="0.65"/></linearGradient><path id="freya-aurAHem" d="M-40,380C-10,369.7 83.3,322.7 140,318S246.7,358.3 300,352S408.3,287 460,280S563.3,317.3 610,310S695,244 740,236S856.7,257.7 880,262"/><linearGradient id="freya-aurB" x1="0" y1="-56" x2="0" y2="214" gradientUnits="userSpaceOnUse"><stop offset="0" stop-color="#8fd4f5" stop-opacity="0"/><stop offset="0.6" stop-color="#8fd4f5" stop-opacity="0.2"/><stop offset="1" stop-color="#8fd4f5" stop-opacity="0.65"/></linearGradient><path id="freya-aurBHem" d="M-40,214C-5,205 105,163 170,160S288.3,201.3 350,196S478.3,134 540,128S663.3,164 720,160S853.3,113.3 880,104"/><linearGradient id="freya-mount" x1="0" y1="650" x2="0" y2="900" gradientUnits="userSpaceOnUse"><stop offset="0" stop-color="#1b2e52"/><stop offset="1" stop-color="#0d1730"/></linearGradient><linearGradient id="freya-field" x1="0" y1="860" x2="0" y2="1216" gradientUnits="userSpaceOnUse"><stop offset="0" stop-color="#3a5884"/><stop offset="0.4" stop-color="#20375c"/><stop offset="1" stop-color="#0e1a33"/></linearGradient><linearGradient id="freya-t-bg" x1="0" y1="0" x2="0" y2="1216" gradientUnits="userSpaceOnUse"><stop offset="0" stop-color="#071022"/><stop offset="0.6" stop-color="#12203f"/><stop offset="1" stop-color="#060a18"/></linearGradient><radialGradient id="freya-t-bgglow" cx="430" cy="420" r="430" gradientUnits="userSpaceOnUse"><stop offset="0" stop-color="#8fd4f5" stop-opacity="0.22"/><stop offset="0.6" stop-color="#8fd4f5" stop-opacity="0.07"/><stop offset="1" stop-color="#8fd4f5" stop-opacity="0"/></radialGradient><linearGradient id="freya-t-bgfade" x1="0" y1="0" x2="0" y2="1"><stop offset="0" stop-color="#060a18" stop-opacity="0"/><stop offset="1" stop-color="#060a18" stop-opacity="0.9"/></linearGradient><linearGradient id="freya-t-moonwash" x1="0" y1="0" x2="760" y2="900" gradientUnits="userSpaceOnUse"><stop offset="0" stop-color="#e8ddff" stop-opacity="0.16"/><stop offset="0.5" stop-color="#e8ddff" stop-opacity="0"/><stop offset="1" stop-color="#e8ddff" stop-opacity="0"/></linearGradient><linearGradient id="freya-t-ambient" x1="120" y1="300" x2="832" y2="1100" gradientUnits="userSpaceOnUse"><stop offset="0" stop-color="#0e1a3a" stop-opacity="0"/><stop offset="0.6" stop-color="#0e1a3a" stop-opacity="0"/><stop offset="1" stop-color="#0e1a3a" stop-opacity="0.35"/></linearGradient><linearGradient id="freya-t-fade" x1="0" y1="0" x2="0" y2="1"><stop offset="0" stop-color="#060a18" stop-opacity="0"/><stop offset="0.6" stop-color="#060a18" stop-opacity="0.55"/><stop offset="1" stop-color="#060a18" stop-opacity="0.93"/></linearGradient><radialGradient id="freya-t-vig" cx="0.5" cy="0.4" r="0.8"><stop offset="0" stop-color="#000" stop-opacity="0"/><stop offset="0.6" stop-color="#000" stop-opacity="0"/><stop offset="1" stop-color="#000" stop-opacity="0.55"/></radialGradient></defs><rect width="832" height="1216" fill="url(#freya-t-bg)"/><rect width="832" height="1216" fill="url(#freya-t-bgglow)"/><g stroke="#e8ddff" stroke-linecap="round" fill="none"><path d="M207.6,803.3h0M158.1,566.9h0M477.1,522.2h0M480.2,37.5h0M571.5,479h0M247.8,762.1h0M720.1,647.7h0M516.8,726.6h0M495,661.5h0M76,677.4h0M223.3,288h0M455.6,762.3h0M420.5,555.1h0M218.6,700.7h0M61.7,366h0M329.2,869.2h0M147.7,882.9h0M812.9,418.6h0M146.5,535.9h0M688.4,307.3h0M261.5,517.2h0M202.7,458.3h0" stroke-width="1.6" opacity="0.45"/><path d="M88.4,464.3h0M479.6,650.5h0M680.4,311.5h0M687.6,604.1h0M75.5,185.3h0M123.7,569.4h0M328,557h0M648.6,180.9h0M368.8,389.9h0M132.1,869.5h0M61.2,53.4h0M644.2,666h0M335.8,841.4h0M612.8,654.7h0M560,90.8h0M790,510.1h0M11.9,622.9h0M12.9,849.1h0M279.2,202.5h0M402.6,518.1h0M806.3,260.8h0" stroke-width="2.4" opacity="0.3"/><path d="M293.5,562.7h0M177.2,783.9h0M307.3,439.1h0M617.6,256.6h0M25.5,88.8h0M659.6,471.2h0M170.3,48.8h0M362.3,759.9h0M466.4,727.2h0M720.7,455.8h0M434.2,737.2h0M114.1,154h0M809.5,441.5h0M415.3,305.9h0M597.3,600.8h0M713,299.9h0M528.7,817.4h0" stroke-width="3.2" opacity="0.18"/></g><g fill="none" stroke-linecap="round"><g stroke="#8ff3d6"><use href="#freya-aurAHem" transform="translate(0 -15.6)" stroke-width="31.3" opacity="0.1"/><use href="#freya-aurAHem" transform="translate(0 -31.2)" stroke-width="62.5" opacity="0.1"/><use href="#freya-aurAHem" transform="translate(0 -46.9)" stroke-width="93.8" opacity="0.1"/><use href="#freya-aurAHem" transform="translate(0 -62.5)" stroke-width="125" opacity="0.1"/><use href="#freya-aurAHem" transform="translate(0 -78.1)" stroke-width="156.3" opacity="0.1"/><use href="#freya-aurAHem" transform="translate(0 -93.7)" stroke-width="187.5" opacity="0.1"/><use href="#freya-aurAHem" transform="translate(0 -109.4)" stroke-width="218.8" opacity="0.1"/><use href="#freya-aurAHem" transform="translate(0 -125)" stroke-width="250" opacity="0.1"/></g><g stroke="url(#freya-aurA)"><path d="M179.7,325.9l15.6,-129.8M345.4,340.4l15.4,-128.7M504.3,288.3l27.7,-231.2M615.6,312.6l27.5,-229.2M712.4,250.9l22.6,-188.3M767.9,239.2l32.7,-272.7M880,266l21.2,-177" stroke-width="3" opacity="0.32"/><path d="M13.3,361.9l26.2,-218.3M67.1,340.7l31.6,-263.1M122.5,324.6l31.9,-266.2M234.3,344.5l33.3,-277.4M395.3,311.4l26.1,-217.9M447.4,286.7l16.2,-135M665.8,284.9l27.9,-232.9" stroke-width="6" opacity="0.22"/><path d="M-40,384l24.6,-204.9M290.5,356.4l17.8,-148.3M559,307l17.7,-147.4M824.5,250.1l34.1,-284.2" stroke-width="10" opacity="0.14"/></g><use href="#freya-aurAHem" stroke="#8ff3d6" stroke-width="16" opacity="0.5" filter="url(#freya-t-soft)"/><use href="#freya-aurAHem" stroke="#cdfaed" stroke-width="2.4" opacity="0.7"/><g stroke="#8fd4f5"><use href="#freya-aurBHem" transform="translate(0 -10)" stroke-width="20" opacity="0"/><use href="#freya-aurBHem" transform="translate(0 -20)" stroke-width="40" opacity="0"/><use href="#freya-aurBHem" transform="translate(0 -30)" stroke-width="60" opacity="0"/><use href="#freya-aurBHem" transform="translate(0 -40)" stroke-width="80" opacity="0"/><use href="#freya-aurBHem" transform="translate(0 -50)" stroke-width="100" opacity="0"/><use href="#freya-aurBHem" transform="translate(0 -60)" stroke-width="120" opacity="0"/><use href="#freya-aurBHem" transform="translate(0 -70)" stroke-width="140" opacity="0"/><use href="#freya-aurBHem" transform="translate(0 -80)" stroke-width="160" opacity="0"/></g><g stroke="url(#freya-aurB)"><path d="M358.8,198.7l10.1,-84.2M485.5,147.5l13.5,-112.1M880,108l10.7,-89.2" stroke-width="3" opacity="0.32"/><path d="M618.9,143.3l11.1,-92.4M752.7,158.3l21.3,-177.2" stroke-width="6" opacity="0.22"/><path d="M-40,218l20.9,-174.4M91.1,178.2l14.8,-123.3M226,171.6l15.3,-127.5" stroke-width="10" opacity="0.14"/></g><use href="#freya-aurBHem" stroke="#8fd4f5" stroke-width="16" opacity="0.3" filter="url(#freya-t-soft)"/><use href="#freya-aurBHem" stroke="#cdecfb" stroke-width="2.4" opacity="0.5"/></g><circle cx="132" cy="104" r="26" fill="#f2fbff" opacity=".85" filter="url(#freya-t-glow)"/><circle cx="142" cy="97" r="23" fill="#0a1530"/><path d="M-10,760L60,720L118,742L196,668L260,736L330,760L420,712L500,740L590,650L660,724L740,700L842,760L842,900H-10Z" fill="url(#freya-mount)"/><path d="M196,668L170,700L184,712L160,736L210,724ZM590,650L556,690L572,700L544,730L600,712ZM420,712L404,728L416,734L398,750L440,724ZM740,700L722,716L748,712Z" fill="#7b9dc8" opacity=".45"/><path d="M-10,760L60,720L118,742L196,668L260,736L330,760L420,712L500,740L590,650L660,724L740,700L842,760" fill="none" stroke="#a9d2f2" stroke-width="2" opacity=".45"/><path d="M-10,880Q200,850 416,862Q640,872 842,846V1216H-10Z" fill="url(#freya-field)"/><path d="M-10,880Q200,850 416,862Q640,872 842,846" fill="none" stroke="#bfe4ff" stroke-width="2.4" opacity=".5"/><g stroke="#f2fbff" stroke-linecap="round" fill="none"><path d="M800.1,807.2h0M413.1,805.5h0M775,226.6h0M169.3,152.3h0M429.7,328h0M603.7,133.1h0M819.2,1119h0M365.4,101.3h0M559.2,7.1h0M531.3,383h0M151.4,722.2h0M160.4,348.7h0M428,755.1h0M54.7,2.6h0M444.2,59.6h0M689.5,340.7h0M232.7,986.9h0M824.2,793.3h0M145.8,848.3h0M612.3,402.7h0M564.8,362.9h0M367.1,387.5h0M220.5,433h0M708.4,342h0M787,604.9h0" stroke-width="3" opacity="0.5"/><path d="M762.4,1117.5h0M411,223.2h0M165.8,1023.5h0M392.4,333.9h0M651.1,50h0M464.5,1122.9h0" stroke-width="5" opacity="0.65"/><path d="M421.1,1115.9h0M557.8,1087.1h0M242.7,917.5h0M745.4,1073.8h0M101.3,811.1h0" stroke-width="8" opacity="0.3"/></g><path d="M96,520L108.7,522.6M103,521.4L105.6,524.9M103,521.4L106.8,519.3M96,520L100.1,532.3M98.3,526.8L96.6,530.8M98.3,526.8L102,529M96,520L87.4,529.7M91.3,525.4L87,525.9M91.3,525.4L91.3,529.7M96,520L83.3,517.4M89,518.6L86.4,515.1M89,518.6L85.2,520.7M96,520L91.9,507.7M93.7,513.2L95.4,509.2M93.7,513.2L90,511M96,520L104.6,510.3M100.7,514.6L105,514.1M100.7,514.6L100.7,510.3M770,400L781.3,404.1M776.2,402.3L778.1,405.8M776.2,402.3L779.9,400.8M770,400L772.1,411.8M771.1,406.5L769.1,409.9M771.1,406.5L774.3,409M770,400L760.8,407.7M764.9,404.2L760.9,404.1M764.9,404.2L764.3,408.2M770,400L758.7,395.9M763.8,397.7L761.9,394.2M763.8,397.7L760.1,399.2M770,400L767.9,388.2M768.9,393.5L770.9,390.1M768.9,393.5L765.7,391M770,400L779.2,392.3M775.1,395.8L779.1,395.9M775.1,395.8L775.7,391.8" fill="none" stroke="#f2fbff" stroke-width="1.8" stroke-linecap="round" opacity=".7"/><rect y="753.92" width="832" height="462.08" fill="url(#freya-t-bgfade)"/><g id="freya-t-figure"><g stroke-linejoin="round"><path d="M416,166Q340,172 320,181T284.1,204.1T255.3,234.6T234.3,270.5T219.5,310.4T207.6,351.7T201.3,394.1T202.6,437.1T207.7,480.3T210.6,523.6T206.1,566.2T192.1,607.3T173,647.1T156.7,687.2T148.5,729T148,772.5T150.2,816.5T148.7,859.5T139.2,900.9T122.6,941.2T104.6,981.5T92.2,1023T89.5,1065.9T95.5,1109.4T104.1,1152.7T107.3,1216.8L724.5,1216.8Q724.4,1174.1 728.4,1152.6T737,1109.4T742.8,1065.9T739.7,1023T726.9,981.6T708.9,941.3T692.6,901T683.5,859.5T682.3,816.4T684.5,772.4T683.7,729T675.1,687.3T658.5,647.2T639.3,607.4T625.6,566.3T621.6,523.6T624.7,480.2T629.8,437.1T630.9,394.2T624.3,351.7T612.3,310.3T597.6,270.5T576.7,234.7T547.9,204.2T512,181T416,166Z" fill="url(#freya-backMass)" stroke="#173f5c" stroke-width="3"/><path d="M242.1,421.6Q240.2,480.1 235.8,509.3T225.4,566.4T215.4,620.6T212.3,674T213,732T204.2,793.8T182.5,851.5T157.7,901.8T140.9,950T136.2,1002.2T135.8,1059.2T128.4,1117.8T97.3,1200Q108,1143.9 107.6,1116.1T101.9,1060.8T90.7,1003.9T86.6,942.3T98.7,881T119.7,826.5T137,777T144.6,726.4T147.3,669.8T157.3,610.1T176.1,553.5T195.8,500T217.9,418.4L242.1,421.6Z" fill="url(#freya-backFrost)" stroke="#173f5c" stroke-width="2.4" stroke-linejoin="round"/><path d="M242.1,421.6Q240.2,480.1 235.8,509.3T225.4,566.4T215.4,620.6T212.3,674T213,732T204.2,793.8T182.5,851.5T157.7,901.8T140.9,950T136.2,1002.2T135.8,1059.2T128.4,1117.8T97.3,1200Q114.9,1145.4 118,1117T118.8,1060T113.4,1003T113.7,946.2T128.2,891.4T151.2,838.9T170.7,785.4T178.8,729.3T179.8,671.9T186.4,615.3T200.7,559.9T215.8,504.6T230,420L242.1,421.6Z" fill="#2b6288" opacity="0.7"/><path d="M614.2,418.5Q626.8,473.6 636,500T655.7,553.4T674.7,609.9T685.1,669.7T687.8,726.5T694.9,777.2T711.7,826.7T732.8,881T745.4,942.1T741.7,1003.7T730.6,1060.8T724.5,1116.2T734,1200Q709.8,1146.8 703.6,1117.7T696.7,1059.1T696.3,1002.2T691.2,950.2T673.9,902T649,851.5T627.7,793.6T619.4,731.8T620.2,674T616.8,620.7T606.5,566.5T596,509.4T589.8,421.5L614.2,418.5Z" fill="url(#freya-backFrost)" stroke="#173f5c" stroke-width="2.4" stroke-linejoin="round"/><path d="M614.2,418.5Q626.8,473.6 636,500T655.7,553.4T674.7,609.9T685.1,669.7T687.8,726.5T694.9,777.2T711.7,826.7T732.8,881T745.4,942.1T741.7,1003.7T730.6,1060.8T724.5,1116.2T734,1200Q716.8,1145.3 714,1116.9T713.6,1059.9T719,1002.9T718.3,946.1T703.4,891.4T680.4,839T661.3,785.3T653.6,729.1T652.6,671.8T645.7,615.3T631.1,560T616,504.7T602,420L614.2,418.5Z" fill="#2b6288" opacity="0.7"/><path d="M213.3,563.4Q210.6,592.9 208.7,607.1T204.7,635.1T200.3,663.1T191.9,706.3Q185.7,677.1 184.3,662.1T185.1,632.2T193,603.4T213.3,563.4ZM164.9,700.3Q171.7,729.8 173.1,745T171.3,775.4T160.5,804T134.7,841.4Q140.1,811.9 143.3,798T149.3,770.7T154.9,743.4T164.9,700.3ZM161.5,846.6Q153.9,875.3 149.7,889T141.7,916T134.4,943.2T122.9,985.6Q118.9,955.9 118.8,940.7T122.9,910.7T135,883T161.5,846.6ZM116.2,1057.3Q118.5,1086.4 118.7,1101.1T116.6,1130.3T109.5,1158.7T93.5,1199.7Q101.2,1171.6 104.9,1157.6T110.9,1129.4T114,1100.8T116.2,1057.3ZM618.5,563.4Q633.2,589.4 639,603.3T647.1,632.1T648.1,662T640.7,706.1Q634.4,677.2 632,663T627.5,635.1T623.4,607.2T618.5,563.4ZM667.7,700.2Q674.6,729.4 677.3,743.4T682.7,770.8T688.5,798.1T696.7,841.5Q678.6,817.3 671.2,803.9T660.7,775.3T659.1,744.9T667.7,700.2ZM669.8,846.7Q688.5,870.2 696.5,883.1T708.8,910.7T713.1,940.6T709.6,985.6Q701.2,957 697.6,943.2T690.1,916.1T681.9,889.1T669.8,846.7ZM716.4,1057.2Q717.4,1086.4 718.1,1100.8T721,1129.4T726.7,1157.6T737.8,1199.7Q726.9,1172.6 722.2,1158.7T715.2,1130.2T713.3,1101T716.4,1057.2Z" fill="#2b6288" opacity=".8"/><path d="" fill="#dcf6ff" opacity=".45"/></g><use href="#freya-t-bodyShape" fill="url(#freya-t-skinBody)"/><path d="M372,540C387,527.4 445,527.4 460,540S464.7,599.5 462,615.5S451.7,631.1 444,636S425.3,645 416,645S395.7,640.9 388,636S372.7,631.5 370,615.5S357,552.6 372,540Z" fill="#e2b1b0"/><path d="M446,591.5C447.7,579.8 455.3,581.8 458,593.5S460,644.3 462,662S470,700 470,700C470,700 438,706 438,706C438,706 446.7,683.1 448,664S444.3,603.3 446,591.5Z" fill="#e2b1b0" opacity=".8"/><path d="M416,700Q402,712 400,722Q416,716 432,722Q430,712 416,700Z" fill="#e2b1b0" opacity=".6"/><path d="M400.1,722.5Q375.5,728.6 363,730.3T337.9,733.1T300,736Q325.1,732.9 337.6,731.3T362.6,728T399.9,721.5L400.1,722.5ZM431.9,722.5Q456.5,728.6 469,730.3T494.1,733.1T532,736Q506.9,732.9 494.4,731.3T469.4,728T432.1,721.5L431.9,722.5Z" fill="#94606c" opacity=".35"/><path d="M162,830C168,836.7 185.3,856.3 198,870S231.7,882 238,912S236.7,999.3 236,1050S234.3,1188.3 234,1216M670,830C664,836.7 646.7,856.3 634,870S600.3,882 594,912S595.3,999.3 596,1050S597.7,1188.3 598,1216" fill="none" stroke="#94606c" stroke-width="2" opacity=".35"/><path d="M364,694C359.3,697.2 349.3,706.3 336,713S302,727.2 284,734S243.3,747.5 228,754S202.3,765 192,773S173,789.8 166,802S154.3,826.7 150,846S142.7,890.7 140,918S135,994.7 134,1010M468,694C472.7,697.2 482.7,706.3 496,713S530,727.2 548,734S588.7,747.5 604,754S629.7,765 640,773S659,789.8 666,802S677.7,826.7 682,846S689.3,890.7 692,918S697,994.7 698,1010" fill="none" stroke="#94606c" stroke-width="3" opacity=".7"/><path d="M375.3,618C374.6,625.3 372.9,649.3 371,662S365.2,688.7 364,694M456.7,618C457.4,625.3 459.1,649.3 461,662S466.8,688.7 468,694" fill="none" stroke="#94606c" stroke-width="2.6" opacity=".75"/><path d="M416,700C416,700 379.7,698.3 360,702S319.3,714.7 298,722S251.3,737.7 232,746S195.7,761 182,772S158,794 150,812S138.3,848.7 134,880S126.7,944 124,1000S118,1216 118,1216C118,1216 416,1216 416,1216C416,1216 416,700 416,700Z" fill="url(#freya-robeL)" stroke="#0a1526" stroke-width="3.4"/><path d="M416,700C416,700 452.3,698.3 472,702S512.7,714.7 534,722S580.7,737.7 600,746S636.3,761 650,772S674,794 682,812S693.7,848.7 698,880S705.3,944 708,1000S714,1216 714,1216C714,1216 416,1216 416,1216C416,1216 416,700 416,700Z" fill="url(#freya-robeR)" stroke="#0a1526" stroke-width="3.4"/><path d="M162,830C168,836.7 185.3,856.3 198,870S231.7,882 238,912S236.7,999.3 236,1050S234.3,1188.3 234,1216M670,830C664,836.7 646.7,856.3 634,870S600.3,882 594,912S595.3,999.3 596,1050S597.7,1188.3 598,1216" fill="none" stroke="#0a1526" stroke-width="2.6" opacity=".8"/><path d="M196.3,930Q199,946.9 200.4,955.4T203,972.4T205.3,989.5T207.2,1006.7T208.6,1023.9T209.4,1041.1T209.5,1058.3T209.2,1075.5T208.6,1092.7T207.8,1109.9T206.8,1127.1T205.6,1144.3T204,1170Q203.8,1152.8 203.7,1144.2T203.6,1127T203.5,1109.8T203.4,1092.6T203.3,1075.5T203,1058.4T202.5,1041.3T201.7,1024.3T200.6,1007.2T199.4,990.1T198.3,973T197.2,955.8T195.7,930L196.3,930ZM636.3,930Q635.7,947.2 635.3,955.8T634.6,973T633.8,990.1T632.9,1007.2T632.1,1024.3T631.5,1041.4T631.1,1058.5T630.8,1075.6T630.7,1092.8T630.6,1109.9T630.4,1127T630.3,1144.2T630,1170Q628.9,1152.9 628.4,1144.3T627.4,1127.1T626.4,1110T625.5,1092.9T624.9,1075.7T624.6,1058.5T624.6,1041.2T625.2,1023.9T626.3,1006.7T627.9,989.6T629.9,972.6T632.1,955.5T635.7,930L636.3,930ZM300.3,960Q302.2,977.1 303.2,985.6T305,1002.7T306.6,1019.8T307.9,1036.9T308.8,1054.1T309.3,1071.3T309.2,1088.5T308.7,1105.7T307.9,1122.9T306.8,1140.1T305.5,1157.2T304.1,1174.3T302,1200Q302.1,1182.8 302.2,1174.2T302.4,1157T302.6,1139.9T302.7,1122.8T302.7,1105.6T302.7,1088.5T302.4,1071.5T301.8,1054.4T301.2,1037.2T300.7,1020.1T300.3,1003T300,985.8T299.7,960L300.3,960ZM532.3,960Q532.2,977.2 532,985.8T531.7,1003T531.3,1020.1T530.7,1037.2T530.1,1054.4T529.6,1071.5T529.3,1088.5T529.2,1105.6T529.3,1122.8T529.5,1139.9T529.7,1157T529.9,1174.2T530,1200Q528.6,1182.9 527.9,1174.3T526.5,1157.2T525.2,1140.1T524.1,1122.9T523.3,1105.7T522.8,1088.5T522.7,1071.3T523.2,1054.1T524.1,1036.9T525.4,1019.8T527,1002.7T528.8,985.6T531.7,960L532.3,960Z" fill="#11223b" opacity=".75"/><path d="M147.2,900.1Q147.2,916 147.1,923.9T146.7,939.7T145.8,955.4T144.5,971.1T143,986.8T141.5,1002.4T140.1,1018T138.6,1033.6T137.1,1049.3T135.6,1065T134,1080.7T132.4,1096.4T130,1120Q129.8,1104.2 129.7,1096.3T129.5,1080.5T129.3,1064.7T129.2,1048.9T129.3,1033.1T129.7,1017.3T130.4,1001.5T131.3,985.7T132.6,969.9T134.4,954.2T136.8,938.6T139.8,923.1T144.8,899.9L147.2,900.1Z" fill="#3f6b9f" opacity=".8"/><path d="M416,800Q378,830 371,885T352,1216L416,1216L416,800Z" fill="#7fb0d6" stroke="#22476b" stroke-width="2.6"/><path d="M416,800Q454,830 461,885T480,1216L416,1216L416,800Z" fill="#5585b0" stroke="#22476b" stroke-width="2.6"/><path d="M416,820Q398,900 392,1216L440,1216Q434,900 416,820L416,820Z" fill="#c4e0f2" stroke="#3f6688" stroke-width="2"/><path d="M416,860V1216" stroke="#8fb8d6" stroke-width="2"/><path d="M416,921l6,9l-6,9l-6,-9z" fill="#3f8fc4"/><path d="M416,991l6,9l-6,9l-6,-9z" fill="#3f8fc4"/><path d="M416,1061l6,9l-6,9l-6,-9z" fill="#3f8fc4"/><path d="M416,1131l6,9l-6,9l-6,-9z" fill="#3f8fc4"/><path d="M384,820C381,833.3 370.7,863.3 366,900S358.7,987.3 356,1040S351,1186.7 350,1216M448,820C451,833.3 461.3,863.3 466,900S473.3,987.3 476,1040S481,1186.7 482,1216" fill="none" stroke="#0a1526" stroke-width="15"/><path d="M384,820C381,833.3 370.7,863.3 366,900S358.7,987.3 356,1040S351,1186.7 350,1216M448,820C451,833.3 461.3,863.3 466,900S473.3,987.3 476,1040S481,1186.7 482,1216" fill="none" stroke="#f2fbff" stroke-width="10"/><path d="M384,820C381,833.3 370.7,863.3 366,900S358.7,987.3 356,1040S351,1186.7 350,1216M448,820C451,833.3 461.3,863.3 466,900S473.3,987.3 476,1040S481,1186.7 482,1216" fill="none" stroke="#3f8fc4" stroke-width="3" stroke-dasharray="4 7"/><path d="M364,628C364,628 381.3,637.3 390,640S407.3,644 416,644S433.3,642.7 442,640S468,628 468,628C468,628 476,712 476,712C476,712 436,724 416,724S356,712 356,712C356,712 364,628 364,628Z" fill="url(#freya-collar)" stroke="#3f6688" stroke-width="2.8"/><path d="M442,640L468,628L476,712L450,718Z" fill="#8fb8d6"/><path d="M366,634Q416,656 466,634" fill="none" stroke="#3f8fc4" stroke-width="2.6"/><path d="M384,650V712M400,654V718M432,654V718M448,650V714" stroke="#8fb8d6" stroke-width="1.6" opacity=".8"/><path d="M136,856Q240,930 416,880Q592,930 696,856L700,900Q592,968 416,918Q240,968 132,900Z" fill="#11223b" opacity=".6"/><path d="M366,700L466,700L436,850L396,850Z" fill="#c4e0f2" stroke="#3f6688" stroke-width="2"/><path d="M430,700L466,700L436,850L420,850Z" fill="#8fb8d6" opacity=".8"/><path d="M416,724V840" stroke="#8fb8d6" stroke-width="2"/><path d="M416,860Q404,826 396,802T381,754T370,715T346,688Q327.4,683.4 310.3,692.2Q290.8,687.4 275.3,700.2Q254.5,696.2 241.8,713.2Q222.3,715.2 210.5,730.9Q190.4,735.2 183.7,754.7Q167.9,765.5 163.1,784.1Q148.1,797.4 149.9,817.4Q134.1,831.6 140,852Q146.5,872 166.1,879.6Q177.6,898.7 199.8,896.3Q215.4,914.8 237,903.8Q255.1,915.8 274.8,906.7Q294.5,919.2 312.7,904.7Q333.2,909.5 349.8,896.7Q372.1,899.5 384.1,880.6Q408.2,882.9 416,860L416,860Z" fill="url(#freya-furL)" stroke="#56718e" stroke-width="3"/><path d="M416,860Q428,826 436,802T451,754T462,715T486,688Q504.6,683.4 521.7,692.2Q541.2,687.4 556.7,700.2Q577.5,696.2 590.2,713.2Q609.7,715.2 621.5,730.9Q641.6,735.2 648.3,754.7Q664.1,765.5 668.9,784.1Q683.9,797.4 682.1,817.4Q697.9,831.6 692,852Q685.5,872 665.9,879.6Q654.4,898.7 632.2,896.3Q616.6,914.8 595,903.8Q576.9,915.8 557.2,906.7Q537.5,919.2 519.3,904.7Q498.8,909.5 482.2,896.7Q459.9,899.5 447.9,880.6Q423.8,882.9 416,860L416,860Z" fill="url(#freya-furR)" stroke="#56718e" stroke-width="3"/><path d="M140,852Q178,888 208,896T269,905T326,901T372,886T416,860L408,836Q380,856 355,864T298,874T235,869T160,828L140,852Z" fill="#c4d6e6" opacity=".75"/><path d="M692,852Q654,888 624,896T563,905T506,901T460,886T416,860L424,836Q452,856 477,864T534,874T597,869T672,828L692,852Z" fill="#90a9c3" opacity=".6"/><path d="M224.5,760.2Q222.3,769.1 219.2,772.5T208.7,781Q214.3,774.2 216.7,770.8T223.5,759.8L224.5,760.2ZM262.5,742.1Q262.6,750.7 260.4,754.4T252,763.8Q256.1,756.7 257.7,753.2T261.5,741.9L262.5,742.1ZM302.5,730Q303.8,737.9 302.1,741.5T294.9,750.8Q298.2,744 299.2,740.6T301.5,730L302.5,730ZM190.5,800.3Q187.3,808.8 183.9,811.8T172.7,819.4Q178.8,813.1 181.6,809.9T189.5,799.7L190.5,800.3ZM176.5,846.1Q176.9,854.1 174.8,857.5T166.8,866Q170.7,859.5 172.1,856.3T175.5,845.9L176.5,846.1ZM214.5,867.9Q217.2,876.1 216.3,880.3T210.9,891.8Q213.1,883.9 213.4,880T213.5,868.1L214.5,867.9ZM258.5,877.9Q262,886.5 261.6,891.1T257.2,904Q258.7,895.3 258.5,891.1T257.5,878.1L258.5,877.9ZM304.5,877.8Q308.7,885.3 308.8,889.6T305.7,901.9Q306.4,893.8 305.8,890T303.5,878.2L304.5,877.8ZM344.5,865.8Q349.2,872.2 349.7,876.2T347.7,887.7Q347.7,880.2 346.7,876.8T343.5,866.2L344.5,865.8ZM376.4,835.7Q381.5,841 382.4,844.6T381.3,855.3Q380.8,848.5 379.5,845.5T375.6,836.3L376.4,835.7ZM366.5,759.8Q370,767.1 369.6,771.1T365.4,782Q366.8,774.6 366.6,771.1T365.5,760.2L366.5,759.8ZM340.5,789.9Q343.2,798.1 342.3,802.3T336.9,813.8Q339.1,805.9 339.4,802T339.5,790.1L340.5,789.9ZM300.5,806Q302.2,815.1 300.8,819.5T294.1,831.3Q297.1,823 297.9,818.9T299.5,806L300.5,806ZM250.5,816Q251.3,825.2 249.4,829.4T241.6,840.6Q245.3,832.6 246.5,828.6T249.5,816L250.5,816Z" fill="#90a9c3" opacity=".75"/><path d="M607.5,760.2Q609.7,769.1 612.8,772.5T623.3,781Q617.7,774.2 615.3,770.8T608.5,759.8L607.5,760.2ZM569.5,742.1Q569.4,750.7 571.6,754.4T580,763.8Q575.9,756.7 574.3,753.2T570.5,741.9L569.5,742.1ZM529.5,730Q528.2,737.9 529.9,741.5T537.1,750.8Q533.8,744 532.8,740.6T530.5,730L529.5,730ZM641.5,800.3Q644.7,808.8 648.1,811.8T659.3,819.4Q653.2,813.1 650.4,809.9T642.5,799.7L641.5,800.3ZM655.5,846.1Q655.1,854.1 657.2,857.5T665.2,866Q661.3,859.5 659.9,856.3T656.5,845.9L655.5,846.1ZM617.5,867.9Q614.8,876.1 615.7,880.3T621.1,891.8Q618.9,883.9 618.6,880T618.5,868.1L617.5,867.9ZM573.5,877.9Q570,886.5 570.4,891.1T574.8,904Q573.3,895.3 573.5,891.1T574.5,878.1L573.5,877.9ZM527.5,877.8Q523.3,885.3 523.2,889.6T526.3,901.9Q525.6,893.8 526.2,890T528.5,878.2L527.5,877.8Z" fill="#56718e" opacity=".5"/><path d="M340.1,703Q324.2,706.2 316.2,707.8T300.4,711.2T285,715.3T269.9,720.4T255,726.2T240.5,732.7T226.5,740.2T213.1,748.7T200.5,758.3T188.8,769.1T178.5,781.2T169.8,794.7T158,816Q164.1,800.9 167.4,793.4T174.9,778.7T184.4,765.1T195.6,752.9T208.1,741.9T221.7,732.2T236.1,723.9T251.2,717T266.8,711.4T282.8,707.1T299.1,704.3T315.4,702.7T339.9,701L340.1,703Z" fill="#fff" opacity=".95"/><path d="M368,704Q380,780 410,850" fill="none" stroke="#90a9c3" stroke-width="4" opacity=".5"/><path d="M464,704Q452,780 422,850" fill="none" stroke="#56718e" stroke-width="4" opacity=".4"/><g stroke-linejoin="round"><circle cx="416" cy="852" r="28" fill="#bfeaff" opacity=".35" filter="url(#freya-t-glow)"/><use href="#freya-broochFlake" stroke="#2a3b52" stroke-width="6"/><use href="#freya-broochFlake" stroke="#d6e3ee" stroke-width="3"/><path d="M435.1,863L416,874L396.9,863L396.9,841L416,830L435.1,841Z" fill="#d6e3ee" stroke="#2a3b52" stroke-width="2.4"/><path d="M430.7,860.5L416,869L401.3,860.5L401.3,843.5L416,835L430.7,843.5Z" fill="url(#freya-gem)" stroke="#143a5a" stroke-width="1.8"/><path d="M401.3,843.5L416,835L430.7,843.5L416,852Z" fill="#fff" opacity=".75"/><path d="M430.7,860.5L416,869L401.3,860.5L416,852Z" fill="#2a6a9c" opacity=".45"/></g><path d="M270,418C258,406 242,416 242,440C242,462 252,488 276,494Z" fill="#fae7de" stroke="#94606c" stroke-width="2.4" stroke-linejoin="round"/><path d="M266,430C258,426 252,434 254,448C256,462 262,474 270,478" fill="none" stroke="#94606c" stroke-width="2" opacity=".7"/><path d="M262,438C256,446 258,462 266,470L270,460C264,454 264,446 268,440Z" fill="#e2b1b0"/><path d="M562,418C574,406 590,416 590,440C590,462 580,488 556,494Z" fill="#edc9c5" stroke="#94606c" stroke-width="2.4" stroke-linejoin="round"/><path d="M566,430C574,426 580,434 578,448C576,462 570,474 562,478" fill="none" stroke="#94606c" stroke-width="2" opacity=".7"/><path d="M570,438C576,446 574,462 566,470L562,460C568,454 568,446 564,440Z" fill="#c4909a" opacity=".6"/><use href="#freya-t-faceShape" fill="url(#freya-t-skinFace)"/><g clip-path="url(#freya-t-faceClip)"><path d="M572,360C574.2,366.7 569.2,387.5 569,400S571,425.6 571,435S570.3,449.6 568.9,456.7S565.5,470.8 563,477.7S557.6,491.2 554.2,497.6S547,510.2 542.9,516.2S534.4,528 529.7,533.6S520,544.4 514.8,549.5S504,559.3 498.3,563.7S486.5,572.4 480.3,576.1S467.7,583.4 461,586.3S447.7,591.8 440.5,593.6S418,597 418,597C418,597 430.6,591.9 436.6,588.1S448.4,578.6 454,574S464.6,565.1 469.7,560.6S479.7,551.6 484.7,547S494.6,538.2 499.3,533.5S508.6,524 512.9,518.9S521.3,508.5 525,503.1S532.2,492 535.3,486.2S540.9,474.5 543.1,468.6S547.1,456.7 548.2,450.4S549.6,438.7 550.1,430.3S550,411.7 551,400S552.5,366.7 556,360S569.8,353.3 572,360Z" fill="#e2b1b0" opacity=".7"/></g><path d="M264,434Q266.8,456.6 270.1,467.5T278.3,488.6T289.3,508.4T302.5,526.9T317.6,543.9T334.4,559.1T352.8,572.2T372.7,583T393.9,590.7T416,593.6T438.1,590.6T459.2,582.8T479,572T497.4,558.8T514.2,543.6T529.2,526.7T542.2,508.2T553,488.3T561.3,467.3T568,434Q566.7,456.9 563.7,468T555.9,489.6T544.9,509.8T531.5,528.5T516.2,545.7T499.2,561.1T480.5,574.4T460.3,585.3T438.7,593.1T416,596.1T393.4,593T371.8,585.1T351.6,574.2T333,560.8T316,545.3T300.8,528.2T287.6,509.5T276.7,489.3T268.9,467.9T264,434Z" fill="#94606c"/><g clip-path="url(#freya-t-faceClip)" opacity="0.8"><use href="#freya-t-hairFront" filter="url(#freya-t-cast)"/></g><ellipse cx="320" cy="501" rx="36" ry="17" fill="url(#freya-t-blush)"/><ellipse cx="512" cy="501" rx="36" ry="17" fill="url(#freya-t-blush)"/><path d="M312,494Q311,498.3 310.1,500.3T307,506Q308,501.7 308.9,499.7T312,494ZM321,494Q320,498.3 319.1,500.3T316,506Q317,501.7 317.9,499.7T321,494ZM330,494Q329,498.3 328.1,500.3T325,506Q326,501.7 326.9,499.7T330,494ZM520,494Q521,498.3 521.9,500.3T525,506Q524,501.7 523.1,499.7T520,494ZM511,494Q512,498.3 512.9,500.3T516,506Q515,501.7 514.1,499.7T511,494ZM502,494Q503,498.3 503.9,500.3T507,506Q506,501.7 505.1,499.7T502,494Z" fill="#cd8390" opacity="0.2"/><path d="M419,487.5Q425,497.5 424,505.5Q420,508 416,507.5Q421,499.5 419,487.5Z" fill="#e2b1b0" opacity=".6"/><path d="M421.2,500.4Q424.1,504.6 422.4,506.4T416,509Q419.6,506.4 420.9,505.4T420.8,500.6L421.2,500.4Z" fill="#94606c" opacity=".85"/><ellipse cx="413" cy="496.5" rx="2.2" ry="1.2" fill="#fff8f4" opacity=".7"/><path d="M397.9,542.5Q409.8,547.4 416,547.4T434.1,542.5L434.6,543.5Q422.8,549.9 416,549.9T397.4,543.5L397.9,542.5Z" fill="#783a46"/><path d="M408,555Q416,558 424,555Q416,556.4 408,555Z" fill="#e2b1b0"/><path d="M386.3,406.9Q359.3,401.6 345.7,401T305.1,405.5L305.1,405.1Q331.8,397.8 345.8,397.8T386.7,404.8L386.3,406.9ZM445.7,406.9Q472.7,401.6 486.3,401T526.9,405.5L526.9,405.1Q500.2,397.8 486.2,397.8T445.3,404.8L445.7,406.9Z" fill="#2c5f80"/><g><path d="M384.3,442.2C383.9,440 384.3,432.7 382.1,429S376.1,422.1 371.1,420.2S358.8,418.3 352.4,418S338.3,416.8 332.6,418.7S321.8,426 318.3,429.8S312.8,439.7 311.7,441.7L315,437.3C315.6,434.6 315.4,426.3 318.3,421.6S326.9,411.5 332.6,409.3S346,407.9 352.4,408.1S366.2,408.7 371.1,410.8S380.3,416.3 382.1,420.8S382.1,435 382.1,437.8Z" fill="#e2b1b0" opacity=".3"/><path d="M386.5,445.5C385.8,443.3 384.7,436 382.1,432.3S376.1,425.4 371.1,423.5S358.8,421.6 352.4,421.3S338.3,420.1 332.6,422S322.3,429.1 318.3,433.1S310,443.9 308.4,446.1C310.6,447 315.7,450.1 321.6,451.9S335.5,456.5 343.6,456.9S362.9,456 370,454.1S383.8,446.9 386.5,445.5Z" fill="url(#freya-t-white)"/><g clip-path="url(#freya-t-eyeL)"><ellipse cx="351.3" cy="440.8" rx="20.6" ry="24.1" fill="url(#freya-t-irisL)" stroke="#3a1c0c" stroke-width="1.9"/><path d="M359.5,444.8L368.2,447.9M356.5,449.9L361.9,458.4M351.4,451.9L351.5,462.5M346.3,450L341,458.7M343,445L334.4,448.5M343,438.8L334.3,435.6M346.1,433.7L340.6,425.2M351.1,431.6L351,421M356.3,433.5L361.5,424.8M359.5,438.5L368.1,435.1" stroke="#4a240f" stroke-width=".9" opacity=".18"/><ellipse cx="351.3" cy="441.8" rx="14.5" ry="16.9" fill="none" stroke="#fbdeb6" stroke-width="1.1" opacity=".3"/><path d="M334.7,446.8Q351.3,467.3 367.8,446.8Q351.3,456.7 334.7,446.8Z" fill="#fbdeb6" opacity=".6"/><ellipse cx="351.3" cy="441.8" rx="7.9" ry="11.5" fill="#2a1408"/><path d="M386.5,445.5C385.8,443.3 384.7,436 382.1,432.3S376.1,425.4 371.1,423.5S358.8,421.6 352.4,421.3S338.3,420.1 332.6,422S322.3,429.1 318.3,433.1S310,443.9 308.4,446.1L308.4,446.1C310,445.4 314.3,444.5 318.3,441.9S326.9,432.8 332.6,430.8S346,429.9 352.4,430.1S366.2,430.5 371.1,432.3S379.5,439 382.1,441.1S385.8,444.8 386.5,445.5Z" fill="#301709" opacity=".42"/><ellipse cx="343.6" cy="431.9" rx="6.6" ry="8" fill="#fff"/><circle cx="359.5" cy="450.8" r="2.8" fill="#fff" opacity=".92"/></g><path d="M328.2,415.8Q345.6,411.4 354.6,411.9T378.8,421.3Q363.1,413.8 354.4,413.4T328.2,415.8Z" fill="#94606c" opacity=".45"/><path d="M319.5,452.1Q331,455.2 336.8,456.4T354.6,456.9L354.6,457.4Q342.6,458.8 336.6,457.9T318.9,454.2L319.5,452.1Z" fill="#503846" opacity=".9"/><path d="M310.4,438.7Q316.6,444.8 319.9,447.5T330.5,454.4L330.3,455Q322.3,452.7 318.4,451.3T307.2,445.8L310.4,438.7Z" fill="#2b2232"/><path d="M382.5,442.8Q385.7,444.1 387.2,445T390.9,448.8Q388,447.1 386.4,446.6T381.7,444.9L382.5,442.8Z" fill="#2b2232" opacity=".75"/><path d="M387.7,445.2Q386,438.6 384.7,435.4T381.1,429.5T375.8,424.9T369.5,422.1T362.8,420.8T356,420.3T349.3,420T342.5,419.8T335.6,420.4T329.1,422.7T323.4,426.6T318.5,431.3T314.3,436.6T310.5,441.9T305.7,444.9T296.5,444.1Q302.8,449.7 307.5,449.9T315.5,447.1T320.6,441.5T324.3,436.7T328.3,432.5T332.5,429.1T337.1,427.1T342.6,426.3T349,426T355.7,425.7T362.2,425.5T368.4,426T374.1,427.8T379.1,431.3T382.8,436.4T386.2,445.6L387.7,445.2ZM318.8,440Q314.3,437.5 312.1,436.2T305.1,432.9Q310.3,433.7 312.8,434.6T320,437.8L318.8,440Z" fill="#2b2232"/></g><g><path d="M447.7,442.2C448.1,440 447.7,432.7 449.9,429S455.9,422.1 460.9,420.2S473.2,418.3 479.6,418S493.7,416.8 499.4,418.7S510.2,426 513.7,429.8S519.2,439.7 520.3,441.7L517,437.3C516.4,434.6 516.6,426.3 513.7,421.6S505.1,411.5 499.4,409.3S486,407.9 479.6,408.1S465.8,408.7 460.9,410.8S451.7,416.3 449.9,420.8S449.9,435 449.9,437.8Z" fill="#e2b1b0" opacity=".3"/><path d="M445.5,445.5C446.2,443.3 447.3,436 449.9,432.3S455.9,425.4 460.9,423.5S473.2,421.6 479.6,421.3S493.7,420.1 499.4,422S509.7,429.1 513.7,433.1S522,443.9 523.6,446.1C521.4,447 516.3,450.1 510.4,451.9S496.5,456.5 488.4,456.9S469.1,456 462,454.1S448.2,446.9 445.5,445.5Z" fill="url(#freya-t-white)"/><g clip-path="url(#freya-t-eyeR)"><ellipse cx="485.1" cy="440.8" rx="20.6" ry="24.1" fill="url(#freya-t-irisR)" stroke="#3a1c0c" stroke-width="1.9"/><path d="M493.3,444.8L502,447.9M490.3,449.9L495.7,458.4M485.2,451.9L485.3,462.5M480.1,450L474.8,458.7M476.8,445L468.2,448.5M476.8,438.8L468.1,435.6M479.9,433.7L474.4,425.2M484.9,431.6L484.8,421M490.1,433.5L495.3,424.8M493.3,438.5L501.9,435.1" stroke="#4a240f" stroke-width=".9" opacity=".18"/><ellipse cx="485.1" cy="441.8" rx="14.5" ry="16.9" fill="none" stroke="#fbdeb6" stroke-width="1.1" opacity=".3"/><path d="M468.5,446.8Q485.1,467.3 501.6,446.8Q485.1,456.7 468.5,446.8Z" fill="#fbdeb6" opacity=".6"/><ellipse cx="485.1" cy="441.8" rx="7.9" ry="11.5" fill="#2a1408"/><path d="M445.5,445.5C446.2,443.3 447.3,436 449.9,432.3S455.9,425.4 460.9,423.5S473.2,421.6 479.6,421.3S493.7,420.1 499.4,422S509.7,429.1 513.7,433.1S522,443.9 523.6,446.1L523.6,446.1C522,445.4 517.7,444.5 513.7,441.9S505.1,432.8 499.4,430.8S486,429.9 479.6,430.1S465.8,430.5 460.9,432.3S452.5,439 449.9,441.1S446.2,444.8 445.5,445.5Z" fill="#301709" opacity=".42"/><ellipse cx="477.4" cy="431.9" rx="6.6" ry="8" fill="#fff"/><circle cx="493.3" cy="450.8" r="2.8" fill="#fff" opacity=".92"/></g><path d="M503.8,415.8Q486.4,411.4 477.4,411.9T453.2,421.3Q468.9,413.8 477.6,413.4T503.8,415.8Z" fill="#94606c" opacity=".45"/><path d="M512.5,452.1Q501,455.2 495.2,456.4T477.4,456.9L477.4,457.4Q489.4,458.8 495.4,457.9T513.1,454.2L512.5,452.1Z" fill="#503846" opacity=".9"/><path d="M521.6,438.7Q515.4,444.8 512.1,447.5T501.5,454.4L501.7,455Q509.7,452.7 513.6,451.3T524.8,445.8L521.6,438.7Z" fill="#2b2232"/><path d="M449.5,442.8Q446.3,444.1 444.8,445T441.1,448.8Q444,447.1 445.6,446.6T450.3,444.9L449.5,442.8Z" fill="#2b2232" opacity=".75"/><path d="M444.3,445.2Q446,438.6 447.3,435.4T450.9,429.5T456.2,424.9T462.5,422.1T469.2,420.8T476,420.3T482.7,420T489.5,419.8T496.4,420.4T502.9,422.7T508.6,426.6T513.5,431.3T517.7,436.6T521.5,441.9T526.3,444.9T535.5,444.1Q529.2,449.7 524.5,449.9T516.5,447.1T511.4,441.5T507.7,436.7T503.7,432.5T499.5,429.1T494.9,427.1T489.4,426.3T483,426T476.3,425.7T469.8,425.5T463.6,426T457.9,427.8T452.9,431.3T449.2,436.4T445.8,445.6L444.3,445.2ZM513.2,440Q517.7,437.5 519.9,436.2T526.9,432.9Q521.7,433.7 519.2,434.6T512,437.8L513.2,440Z" fill="#2b2232"/></g><use href="#freya-t-hairFront"/><path d="M386.3,406.9Q359.3,401.6 345.7,401T305.1,405.5L305.1,405.1Q331.8,397.8 345.8,397.8T386.7,404.8L386.3,406.9ZM445.7,406.9Q472.7,401.6 486.3,401T526.9,405.5L526.9,405.1Q500.2,397.8 486.2,397.8T445.3,404.8L445.7,406.9Z" fill="#2c5f80" opacity="0.4"/><g stroke-linejoin="round"><path d="M262,300Q300,270 344,262" fill="none" stroke="#2b6288" stroke-width="8" opacity=".45"/><path d="M303,263.9L269.2,269.9L258.7,265.6L267.2,258.1L301,252.1Z" fill="#82cbec" stroke="#143a5a" stroke-width="2"/><path d="M303,263.9L269.2,269.9L258.7,265.6L302,258Z" fill="#c6eeff"/><path d="M301.7,256.6L268,262.5L258.7,265.6" fill="none" stroke="#fff" stroke-width="1.4" opacity=".8"/><path d="M297,255.2L271,259.8" stroke="#2a6a9c" stroke-width="1.4" opacity=".6"/><path d="M299.9,265.2L247.4,250.2L234.7,238.7L251.6,235.7L304.1,250.8Z" fill="#82cbec" stroke="#143a5a" stroke-width="2"/><path d="M299.9,265.2L247.4,250.2L234.7,238.7L302,258Z" fill="#c6eeff"/><path d="M302.5,256.3L250,241.2L234.7,238.7" fill="none" stroke="#fff" stroke-width="1.4" opacity=".8"/><path d="M296.5,251.7L256.1,240.2" stroke="#2a6a9c" stroke-width="1.4" opacity=".6"/><path d="M295.6,265.1L240,215L230.7,193.8L252.7,200.8L308.4,250.9Z" fill="#82cbec" stroke="#143a5a" stroke-width="2"/><path d="M295.6,265.1L240,215L230.7,193.8L302,258Z" fill="#c6eeff"/><path d="M303.5,256.3L247.9,206.2L230.7,193.8" fill="none" stroke="#fff" stroke-width="1.4" opacity=".8"/><path d="M298.7,247.3L255.9,208.8" stroke="#2a6a9c" stroke-width="1.4" opacity=".6"/><path d="M294.1,261.2L269.6,200.4L270.5,180.1L285.3,194.1L309.9,254.8Z" fill="#82cbec" stroke="#143a5a" stroke-width="2"/><path d="M294.1,261.2L269.6,200.4L270.5,180.1L302,258Z" fill="#82cbec"/><path d="M303.9,257.2L279.3,196.5L270.5,180.1" fill="none" stroke="#fff" stroke-width="1.4" opacity=".8"/><path d="M303.6,248.3L284.7,201.6" stroke="#2a6a9c" stroke-width="1.4" opacity=".6"/><path d="M295,257.8L296.6,211L304.1,198L310.6,211.5L309,258.2Z" fill="#82cbec" stroke="#143a5a" stroke-width="2"/><path d="M295,257.8L296.6,211L304.1,198L302,258Z" fill="#82cbec"/><path d="M303.7,258.1L305.3,211.3L304.1,198" fill="none" stroke="#fff" stroke-width="1.4" opacity=".8"/><path d="M306.4,252.2L307.7,216.2" stroke="#2a6a9c" stroke-width="1.4" opacity=".6"/><path d="M297,255.8L309.7,227.3L318.3,221.5L319.7,231.7L307,260.2Z" fill="#82cbec" stroke="#143a5a" stroke-width="2"/><path d="M297,255.8L309.7,227.3L318.3,221.5L302,258Z" fill="#82cbec"/><path d="M303.2,258.5L315.9,230L318.3,221.5" fill="none" stroke="#fff" stroke-width="1.4" opacity=".8"/><path d="M306.6,255.7L316.4,233.8" stroke="#2a6a9c" stroke-width="1.4" opacity=".6"/><path d="M262,286Q290,258 334,244" fill="none" stroke="#2a3b52" stroke-width="12" stroke-linecap="round"/><path d="M262,286Q290,258 334,244" fill="none" stroke="#d6e3ee" stroke-width="7.5" stroke-linecap="round"/><path d="M266,280Q292,256 330,244" fill="none" stroke="#fff" stroke-width="2" stroke-linecap="round" opacity=".9"/><circle cx="274" cy="276" r="6" fill="#82cbec" stroke="#143a5a" stroke-width="1.8"/><circle cx="271.9" cy="273.9" r="2.3" fill="#fff"/><circle cx="300" cy="262" r="7.5" fill="#82cbec" stroke="#143a5a" stroke-width="1.8"/><circle cx="297.375" cy="259.375" r="2.9" fill="#fff"/><circle cx="326" cy="250" r="6" fill="#82cbec" stroke="#143a5a" stroke-width="1.8"/><circle cx="323.9" cy="247.9" r="2.3" fill="#fff"/><path d="M578,494v14" stroke="#8ea5bc" stroke-width="2.2"/><circle cx="578" cy="494" r="3.4" fill="#d6e3ee" stroke="#2a3b52" stroke-width="1.4"/><path d="M578,506L586,522L578,550L570,522Z" fill="#82cbec" stroke="#143a5a" stroke-width="1.8" stroke-linejoin="round"/><path d="M578,506L570,522L578,550Z" fill="#c6eeff"/><circle cx="578" cy="526" r="9" fill="#c6eeff" opacity=".35" filter="url(#freya-t-glow)"/></g><g stroke-linejoin="round"><path d="M710,1216L696,826L716,826L736,1216Z" fill="url(#freya-shaft)" stroke="#2a3b52" stroke-width="2.8"/><path d="M700,900L732,880M702,960L734,940M704,1020L736,1000M706,1080L736,1062" stroke="#3f8fc4" stroke-width="6"/><path d="M700,900L732,880M702,960L734,940M704,1020L736,1000" stroke="#c6eeff" stroke-width="1.6"/><path d="M704.3,840Q705.6,870.9 706.2,886.3T707.2,917.2T708,948.2T708.8,979.1T709.6,1010T710.4,1040.9T711.2,1071.8T712,1102.7T712.8,1133.6T714,1180Q712.6,1149.1 711.9,1133.7T710.6,1102.8T709.3,1071.9T708.1,1041T707,1010.1T706,979.2T705.2,948.2T704.5,917.3T704,886.4T703.7,840L704.3,840Z" fill="#fff" opacity=".8"/><circle cx="704" cy="726" r="70" fill="#bfeaff" opacity=".28" filter="url(#freya-t-glow)"/><path d="M687.3,803.1L663.4,754L662.9,737.1L676,747.9L699.9,796.9Z" fill="#82cbec" stroke="#143a5a" stroke-width="2"/><path d="M687.3,803.1L663.4,754L662.9,737.1L693.6,800Z" fill="#c6eeff"/><path d="M695.1,799.3L671.2,750.2L662.9,737.1" fill="none" stroke="#fff" stroke-width="1.4" opacity=".8"/><path d="M694.3,791.9L675.9,754.1" stroke="#2a6a9c" stroke-width="1.4" opacity=".6"/><path d="M695,800L695,706.4L704,680L713,706.4L713,800Z" fill="#82cbec" stroke="#143a5a" stroke-width="2"/><path d="M695,800L695,706.4L704,680L704,800Z" fill="#c6eeff"/><path d="M706.2,800L706.2,706.4L704,680" fill="none" stroke="#fff" stroke-width="1.4" opacity=".8"/><path d="M709.4,788L709.4,716" stroke="#2a6a9c" stroke-width="1.4" opacity=".6"/><path d="M708.1,796.9L733.4,745.1L746.8,733.5L746,751.2L720.7,803.1Z" fill="#82cbec" stroke="#143a5a" stroke-width="2"/><path d="M708.1,796.9L733.4,745.1L746.8,733.5L714.4,800Z" fill="#82cbec"/><path d="M715.9,800.7L741.2,748.9L746.8,733.5" fill="none" stroke="#fff" stroke-width="1.4" opacity=".8"/><path d="M721.4,795.2L740.9,755.3" stroke="#2a6a9c" stroke-width="1.4" opacity=".6"/><path d="M691.4,818.2Q679.5,811.1 673.5,807.1T661.7,797.9T651.6,785.9T644.7,771.7T640.7,757T638.9,742.2T639.2,727.2T641.7,712.6T646.1,698.7T652,685.4T659.8,673.2T669.6,662.9T686,650Q677.3,660.7 673.3,666.1T666.5,677.4T662,689.6T659.2,702.3T657.6,715.1T657.4,727.8T658.6,740.3T661.1,752.5T664.8,764T669.8,774.3T676.8,783.4T685.7,792.1T700.6,805.8L691.4,818.2Z" fill="#c6eeff" stroke="#143a5a" stroke-width="2.2"/><path d="M698.9,813.4Q679.1,799.6 670.4,790.8T657.2,770.4T651.1,746.6T650.8,722.3T655.8,698.5T665.9,676.6T690,650Q673.6,667.4 667.9,677.7T659.2,699.4T655.4,722.5T656.4,745.8T662.5,768.1T674.7,787.2T701.1,810.6L698.9,813.4Z" fill="#fff" opacity=".85"/><path d="M716.6,818.2Q728.5,811.1 734.5,807.1T746.3,797.9T756.4,785.9T763.3,771.7T767.3,757T769.1,742.2T768.8,727.2T766.3,712.6T761.9,698.7T756,685.4T748.2,673.2T738.4,662.9T722,650Q730.7,660.7 734.7,666.1T741.5,677.4T746,689.6T748.8,702.3T750.4,715.1T750.6,727.8T749.4,740.3T746.9,752.5T743.2,764T738.2,774.3T731.2,783.4T722.3,792.1T707.4,805.8L716.6,818.2Z" fill="#82cbec" stroke="#143a5a" stroke-width="2.2"/><path d="M680,812L728,812L736,834L672,834Z" fill="#d6e3ee" stroke="#2a3b52" stroke-width="2.4"/><path d="M682,818H726" stroke="#fff" stroke-width="2" opacity=".8"/><circle cx="704" cy="726" r="38" fill="url(#freya-orb)" stroke="#143a5a" stroke-width="2.4"/><path d="M704,726L728.2,732.4M717.3,729.5L721.9,736.5M717.3,729.5L724.7,725.8M704,726L710.5,750.1M707.6,739.3L703.9,746.7M707.6,739.3L714.5,743.9M704,726L686.4,743.7M694.3,735.7L686,736.3M694.3,735.7L693.8,744M704,726L679.8,719.6M690.7,722.5L686.1,715.5M690.7,722.5L683.3,726.2M704,726L697.5,701.9M700.4,712.7L704.1,705.3M700.4,712.7L693.5,708.1M704,726L721.6,708.3M713.7,716.3L722,715.7M713.7,716.3L714.2,708" stroke="#fff" stroke-width="2.8" stroke-linecap="round"/><path d="M678,711A30,30 0 0 1 698,696" fill="none" stroke="#fff" stroke-width="3.6" stroke-linecap="round" opacity=".9"/><path d="M630,690.4l6,9.600000000000001l-6,9.600000000000001l-6,-9.600000000000001zM774,660l5,8l-5,8l-5,-8zM764,763.6l4,6.4l-4,6.4l-4,-6.4zM640,613.6l4,6.4l-4,6.4l-4,-6.4z" fill="#c6eeff" opacity=".85"/></g></g><use href="#freya-t-figure" filter="url(#freya-t-rim)"/><rect width="832" height="1216" fill="url(#freya-t-moonwash)"/><rect width="832" height="1216" fill="url(#freya-t-ambient)"/><rect y="972.8000000000001" width="832" height="244.20000000000002" fill="url(#freya-t-fade)"/><rect width="832" height="1216" fill="url(#freya-t-vig)"/></svg>