<svg xmlns="http://www.w3.org/2000/svg" viewBox="0 0 300 300"><defs><radialGradient id="lilith_assassin_e-bg" cx=".507" cy=".44" r=".783"><stop offset="0" stop-color="#43206a"/><stop offset=".5" stop-color="#1d0d36"/><stop offset="1" stop-color="#07040f"/></radialGradient><radialGradient id="lilith_assassin_e-halo"><stop offset="0" stop-color="#c084fc" stop-opacity=".36"/><stop offset=".4" stop-color="#c084fc" stop-opacity=".12"/><stop offset="1" stop-color="#c084fc" stop-opacity="0"/></radialGradient><path id="lilith_assassin_e-0" d="M135 158C133 154 125 154 120 153S110 151 105 151S95 152 91 153S82 155 78 156S70 159 66 160S58 162 54 162S45 163 41 163S32 162 27 161S14 154 10 155S4 162 6 165S17 172 22 174S33 178 39 179S49 180 54 180S64 180 69 180S78 178 82 178S91 177 95 176S102 175 106 175S113 174 116 175S126 180 129 178S136 162 135 158Z"/><clipPath id="lilith_assassin_e-0c"><use href="#lilith_assassin_e-0"/></clipPath><path id="lilith_assassin_e-1" d="M130 169C126 168 120 173 116 176S106 181 102 184S93 188 89 191S80 196 76 198S67 202 62 204S53 207 48 208S39 210 33 210S19 209 16 210S13 216 16 218S27 220 33 220S45 221 50 220S61 219 66 217S77 215 82 213S92 209 97 207S106 202 111 199S120 194 124 192S137 187 138 183S134 170 130 169Z"/><clipPath id="lilith_assassin_e-1c"><use href="#lilith_assassin_e-1"/></clipPath><radialGradient id="lilith_assassin_e-gw" gradientUnits="userSpaceOnUse" cx="152" cy="112" r="74"><stop offset="0" stop-color="#c084fc" stop-opacity=".75"/><stop offset="1" stop-color="#c084fc" stop-opacity="0"/></radialGradient><path id="lilith_assassin_e-2" d="M126 92C130 88 140 83 148 82S168 82 174 86S183 100 184 108S183 126 180 134S168 150 164 154S154 160 154 160C154 160 144 155 140 150S131 137 128 130S122 114 122 108S122 96 126 92Z"/><clipPath id="lilith_assassin_e-2c"><use href="#lilith_assassin_e-2"/></clipPath><path id="lilith_assassin_e-3" d="M56 300S61 246 66 226S83 199 88 182S95 140 96 126S92 110 95 100S104 72 112 64S135 53 144 50S155 46 163 49S187 57 195 66S207 92 209 102S207 113 208 126S211 165 216 182S233 206 238 226S248 300 248 300L56 300ZM134 302S133 210 132 186S127 170 125 160S120 136 119 126S119 110 122 102S130 83 136 79S147 76 152 76S163 75 169 79S180 94 182 102S186 116 185 126S181 150 179 160S174 162 172 186S170 302 170 302L134 302Z" fill-rule="evenodd" clip-rule="evenodd"/><clipPath id="lilith_assassin_e-3c"><use href="#lilith_assassin_e-3"/></clipPath><path id="lilith_assassin_e-4" d="M270 292C270 283 253 265 245 254S225 230 218 229S201 237 202 243S217 259 223 270S234 304 242 308S269 301 270 292Z"/><clipPath id="lilith_assassin_e-4c"><use href="#lilith_assassin_e-4"/></clipPath><filter id="lilith_assassin_e-f" x="-50%" y="-50%" width="200%" height="200%"><feGaussianBlur stdDeviation="5"/></filter><path id="lilith_assassin_e-5" d="M154 239S132 260 121 272S98 298 91 307S82 321 82 321C82 321 89 319 97 312S121 293 133 283S166 252 166 252L154 239Z"/><clipPath id="lilith_assassin_e-5c"><use href="#lilith_assassin_e-5"/></clipPath><path id="lilith_assassin_e-6" d="M201 212C204 212 207 214 211 217S218 222 219 225S222 232 222 235S217 242 214 244S209 249 205 248S197 245 195 242S188 236 187 233S187 225 189 222S197 213 201 212Z"/><clipPath id="lilith_assassin_e-6c"><use href="#lilith_assassin_e-6"/></clipPath><linearGradient id="lilith_assassin_e-wash" x2=".7" y2=".6"><stop offset="0" stop-color="#e8ddff" stop-opacity=".16"/><stop offset="1" stop-color="#e8ddff" stop-opacity="0"/></linearGradient><radialGradient id="lilith_assassin_e-vig" cx=".507" cy=".473" r=".717"><stop offset=".5" stop-color="#070614" stop-opacity="0"/><stop offset=".82" stop-color="#070614" stop-opacity=".45"/><stop offset="1" stop-color="#070614" stop-opacity=".9"/></radialGradient><linearGradient id="lilith_assassin_e-fade" x2="0" y2="1"><stop offset="0" stop-color="#070614" stop-opacity="0"/><stop offset="1" stop-color="#070614" stop-opacity=".6"/></linearGradient><radialGradient id="lilith_assassin_e-aura" gradientUnits="userSpaceOnUse" cx="152.1" cy="132" r="168"><stop offset="0" stop-color="#fff6de" stop-opacity="0.78"/><stop offset="0.14" stop-color="#ffe2a0" stop-opacity="0.55"/><stop offset="0.34" stop-color="#ffc062" stop-opacity="0.24"/><stop offset="0.6" stop-color="#ffa040" stop-opacity="0.06"/><stop offset="1" stop-color="#ffa040" stop-opacity="0"/></radialGradient><radialGradient id="lilith_assassin_e-rayg" gradientUnits="userSpaceOnUse" cx="152.1" cy="132" r="215"><stop offset="0" stop-color="#fff0c0" stop-opacity="0.6"/><stop offset="0.25" stop-color="#ffd57a" stop-opacity="0.32"/><stop offset="0.6" stop-color="#ffc35a" stop-opacity="0.08"/><stop offset="1" stop-color="#ffc35a" stop-opacity="0"/></radialGradient><mask id="lilith_assassin_e-s0" mask-type="alpha" maskUnits="userSpaceOnUse" x="-20" y="-20" width="340" height="340"><use href="#lilith_assassin_e-body"/></mask><mask id="lilith_assassin_e-s1" mask-type="alpha" maskUnits="userSpaceOnUse" x="-20" y="-20" width="340" height="340"><use href="#lilith_assassin_e-body" transform="translate(-3.4 2.8)"/></mask><mask id="lilith_assassin_e-o" mask-type="alpha" maskUnits="userSpaceOnUse" x="-20" y="-20" width="340" height="340"><use href="#lilith_assassin_e-body" transform="translate(2.6 0)"/><use href="#lilith_assassin_e-body" transform="translate(1.8 1.8)"/><use href="#lilith_assassin_e-body" transform="translate(0 2.6)"/><use href="#lilith_assassin_e-body" transform="translate(-1.8 1.8)"/><use href="#lilith_assassin_e-body" transform="translate(-2.6 0)"/><use href="#lilith_assassin_e-body" transform="translate(-1.8 -1.8)"/><use href="#lilith_assassin_e-body" transform="translate(0 -2.6)"/><use href="#lilith_assassin_e-body" transform="translate(1.8 -1.8)"/></mask><mask id="lilith_assassin_e-rim" maskUnits="userSpaceOnUse" x="0" y="0" width="300" height="300"><rect width="300" height="300" fill="#fff" mask="url(#lilith_assassin_e-s0)"/><rect width="300" height="300" fill="#000" mask="url(#lilith_assassin_e-s1)"/></mask><linearGradient id="lilith_assassin_e-rimg" x1="1" y1="0" x2="0.15" y2="1"><stop offset="0" stop-color="#fffbe8"/><stop offset="0.45" stop-color="#ffe08f"/><stop offset="1" stop-color="#ffb44f" stop-opacity="0.55"/></linearGradient><linearGradient id="lilith_assassin_e-og" gradientUnits="userSpaceOnUse" x1="0" y1="0" x2="0" y2="300"><stop offset="0" stop-color="#fff3c6"/><stop offset="0.55" stop-color="#ffd27a"/><stop offset="0.76" stop-color="#f2a646" stop-opacity="0.55"/><stop offset="0.9" stop-color="#e08a2e" stop-opacity="0"/></linearGradient><linearGradient id="lilith_assassin_e-top" x1="0" y1="0" x2="0" y2="1"><stop offset="0" stop-color="#ffe3a6" stop-opacity="0.2"/><stop offset="0.35" stop-color="#ffd38a" stop-opacity="0"/><stop offset="1" stop-color="#ffd38a" stop-opacity="0"/></linearGradient><radialGradient id="lilith_assassin_e-glint"><stop offset="0" stop-color="#fff8e4" stop-opacity="0.9"/><stop offset="0.35" stop-color="#ffd98a" stop-opacity="0.4"/><stop offset="1" stop-color="#ffc56a" stop-opacity="0"/></radialGradient><linearGradient id="lilith_assassin_e-edge" x1="0" y1="0" x2="1" y2="1"><stop offset="0" stop-color="#fff0c0"/><stop offset="0.5" stop-color="#e9b65a"/><stop offset="1" stop-color="#fff0c0"/></linearGradient></defs><rect width="300" height="300" fill="url(#lilith_assassin_e-bg)"/><circle cx="152" cy="132" r="150" fill="url(#lilith_assassin_e-halo)"/><path d="M223.6 30A22 22 0 1 0 248.9 59.7A18 18 0 1 1 223.6 30Z" fill="#f3d79a" opacity=".5"/><path d="M41 10h0M284 89h0M274 62h0M181 122h0" stroke="#ead2ff" stroke-width="1" stroke-linecap="round" opacity=".35"/><path d="M240 115h0M293 163h0M17 57h0M264 18h0M280 31h0" stroke="#ead2ff" stroke-width="1.8" stroke-linecap="round" opacity=".55"/><path d="M54 112h0M220 65h0M80 8h0M36 47h0M40 163h0M198 134h0" stroke="#ead2ff" stroke-width="2.5" stroke-linecap="round" opacity=".8"/><path d="M118 85L203 42L286 -4L200 39ZM-22 209L51 173L120 133L48 170ZM146 213L227 172L305 129L224 169ZM-19 211L54 175L124 135L51 172Z" fill="#d9a441" opacity=".12"/><path d="M-20 187C-13 184 8 189 23 191S51 196 65 194S93 179 108 176S136 174 150 178S178 195 193 197S221 194 235 191S263 183 278 182S313 183 320 185S327 193 320 196S292 201 278 203S249 211 235 212S207 211 193 209S164 201 150 199S122 196 108 197S79 203 65 205S37 212 23 212S-13 211 -20 207S-27 190 -20 187Z" fill="#7c4fc0" opacity=".1"/><path d="M-20 217C-13 213 8 220 23 218S51 206 65 204S93 203 108 208S136 229 150 231S178 225 193 221S221 206 235 204S263 211 278 212S313 211 320 214S327 234 320 235S292 226 278 225S249 227 235 230S207 239 193 242S164 245 150 244S122 236 108 233S79 225 65 225S37 228 23 231S-13 245 -20 243S-27 222 -20 217Z" fill="#7c4fc0" opacity=".08"/><path d="M-13 268a22 22 0 1 1 44 0a22 22 0 1 1 -44 0ZM27 268a16 16 0 1 1 32 0a16 16 0 1 1 -32 0ZM50 285a30 30 0 1 1 60 0a30 30 0 1 1 -60 0ZM99 282a16 16 0 1 1 32 0a16 16 0 1 1 -32 0ZM137 284a16 16 0 1 1 32 0a16 16 0 1 1 -32 0ZM161 273a18 18 0 1 1 36 0a18 18 0 1 1 -36 0ZM198 274a20 20 0 1 1 40 0a20 20 0 1 1 -40 0ZM231 271a20 20 0 1 1 40 0a20 20 0 1 1 -40 0ZM273 281a23 23 0 1 1 46 0a23 23 0 1 1 -46 0Z" fill="#100620" opacity=".85"/><path d="M-10 300V276H310V300Z" fill="#100620"/><circle cx="152" cy="132" r="108" fill="none" stroke="#d9a441" stroke-width="1" opacity=".22"/><path d="M234 214L226 210L226 206L230 206Z" fill="#d9a441" opacity=".45"/><path d="M70 214L74 206L78 206L78 210Z" fill="#d9a441" opacity=".45"/><path d="M70 50L78 54L78 58L74 58Z" fill="#d9a441" opacity=".45"/><path d="M234 50L230 58L226 58L226 54Z" fill="#d9a441" opacity=".45"/><circle cx="152.1" cy="132" r="168" fill="url(#lilith_assassin_e-aura)" style="mix-blend-mode:screen"/><path d="M152.1 132L381.4 149.3L376.5 182.6ZM152.1 132L289.2 192.8L283.1 205ZM152.1 132L-43.6 252.8L-59.2 222.9ZM152.1 132L5.4 163.4L3.2 150ZM152.1 132L-77.2 114.7L-72.3 81.4ZM152.1 132L15 71.2L21.1 59ZM152.1 132L-23.3 -16.8L0.4 -40.8ZM152.1 132L76.9 2.2L89 -4.1ZM152.1 132L97.7 -91.5L130.9 -97ZM152.1 132L167.6 -17.2L181 -15.2ZM152.1 132L239.5 -80.8L269.6 -65.7ZM152.1 132L252.3 20.4L262 29.9ZM152.1 132L347.8 11.2L363.4 41.1ZM152.1 132L298.8 100.6L301 114Z" fill="url(#lilith_assassin_e-rayg)" style="mix-blend-mode:screen"/><circle cx="152.1" cy="132" r="100" fill="none" stroke="#ffe2a0" stroke-width="1.6" opacity=".7"/><circle cx="152.1" cy="132" r="108" fill="none" stroke="#ffd091" stroke-width=".8" stroke-dasharray="1.5 4.5" opacity=".6"/><circle cx="152.1" cy="132" r="93" fill="none" stroke="#fff3d0" stroke-width=".6" opacity=".35"/><path d="M244.5 164.9L247.7 170.3L244.5 175.7L241.3 170.3ZM190.4 221L192.4 224.4L190.4 227.8L188.4 224.4ZM113.8 219L117 224.4L113.8 229.8L110.6 224.4ZM59.7 166.9L61.7 170.3L59.7 173.7L57.7 170.3ZM59.7 88.3L62.9 93.7L59.7 99.1L56.5 93.7ZM113.8 36.2L115.8 39.6L113.8 43L111.8 39.6ZM190.4 34.2L193.6 39.6L190.4 45L187.2 39.6ZM244.5 90.3L246.5 93.7L244.5 97.1L242.5 93.7Z" fill="#ffe7a8" opacity=".85"/><rect x="-10" y="-10" width="320" height="320" fill="url(#lilith_assassin_e-og)" mask="url(#lilith_assassin_e-o)" opacity=".95"/><g id="lilith_assassin_e-body" stroke-linejoin="round" stroke-linecap="round"><path d="M10 120H90M20 150H80M4 196H70M230 70H296M244 120H296" fill="none" stroke="#e9d2ff" stroke-width="1.6" opacity=".3"/><g clip-path="url(#lilith_assassin_e-0c)"><rect width="300" height="300" fill="#5f379c"/><use href="#lilith_assassin_e-0" fill="#9a64e0" transform="translate(0 6)"/><use href="#lilith_assassin_e-0" fill="none" stroke="#d4b0ff" stroke-width="1.6" transform="translate(.8 .8)"/></g><use href="#lilith_assassin_e-0" fill="none" stroke="#240c44" stroke-width="2"/><g clip-path="url(#lilith_assassin_e-1c)"><rect width="300" height="300" fill="#4d2a86"/><use href="#lilith_assassin_e-1" fill="#7a4cc0" transform="translate(0 5)"/></g><use href="#lilith_assassin_e-1" fill="none" stroke="#200a3c" stroke-width="2"/><circle cx="152" cy="112" r="74" fill="url(#lilith_assassin_e-gw)"/><path d="M98 166C80 155 94 117 96 100S103 72 113 64S139 51 152 51S184 58 193 66S206 85 208 102S224 155 206 166S117 177 98 166Z" fill="#0a0612"/><path d="M112 300S109 193 116 170S152 160 152 160C152 160 181 147 188 170S192 300 192 300L112 300Z" fill="#1a1426"/><path d="M122 186L182 214M122 204L182 232" fill="none" stroke="#7a5a72" stroke-width="3" opacity=".8"/><g clip-path="url(#lilith_assassin_e-2c)"><rect width="300" height="300" fill="#141220"/><use href="#lilith_assassin_e-2" fill="#242033" transform="translate(-7 -3)"/><use href="#lilith_assassin_e-2" fill="none" stroke="#c084fc" stroke-width="2.6" transform="translate(-1.3 1.3)"/><use href="#lilith_assassin_e-2" fill="none" stroke="#6a6488" stroke-width="2" transform="translate(1 1)"/></g><use href="#lilith_assassin_e-2" fill="none" stroke="#05040a" stroke-width="2.2"/><path d="M154 84Q156 120 154 158" fill="none" stroke="#e6b452" stroke-width="1.4" opacity=".9"/><path d="M130 116Q140 106 150 114Q140 112 130 116ZM178 114Q168 105 158 114Q168 111 178 114Z" fill="#ffd27a" stroke="#3d2508" stroke-width="1.2"/><path d="M140 112h0M168 112h0" stroke="#ffd27a" stroke-width="12" stroke-linecap="round" opacity=".28"/><path d="M132 136Q144 142 152 140M158 140Q166 142 176 134" fill="none" stroke="#a0701f" stroke-width="1.2" opacity=".8"/><path d="M154 88L158 96L154 102L150 96Z" fill="#e6b452" stroke="#3d2508" stroke-width="1"/><path d="M150 95Q140 88 132 94Q142 94 150 99ZM158 95Q168 88 176 94Q166 94 158 99Z" fill="#e6b452" stroke="#3d2508" stroke-width="1"/><g clip-path="url(#lilith_assassin_e-3c)"><rect width="300" height="300" fill="#1a1426"/><use href="#lilith_assassin_e-3" fill="#2e2540" transform="translate(-14 -6)"/><use href="#lilith_assassin_e-3" fill="none" stroke="#c084fc" stroke-width="3.4" transform="translate(-1.7 1.7)"/><use href="#lilith_assassin_e-3" fill="none" stroke="#5a4a7c" stroke-width="2.4" transform="translate(1.2 1.2)"/></g><use href="#lilith_assassin_e-3" fill="none" stroke="#08050e" stroke-width="2.2"/><path d="M134 300C134 282 133 213 131 190S127 171 125 160S120 136 119 126S119 106 122 98S131 83 136 79S147 76 152 76S163 75 168 79S179 90 182 98S186 116 185 126S181 149 179 160S175 167 173 190S171 282 170 300" fill="none" stroke="#e6b452" stroke-width="2" opacity=".9"/><path d="M200 176Q226 180 244 204M104 176Q78 180 60 204" fill="none" stroke="#a0701f" stroke-width="1.6" opacity=".7"/><g clip-path="url(#lilith_assassin_e-4c)"><rect width="300" height="300" fill="#1a1426"/><use href="#lilith_assassin_e-4" fill="#2e2540" transform="translate(-6 -2)"/><use href="#lilith_assassin_e-4" fill="none" stroke="#c084fc" stroke-width="2.4" transform="translate(-1.2 1.2)"/><use href="#lilith_assassin_e-4" fill="none" stroke="#5a4a7c" stroke-width="1.6" transform="translate(.8 .8)"/></g><use href="#lilith_assassin_e-4" fill="none" stroke="#08050e" stroke-width="2.2"/><path d="M226 262L244 248" fill="none" stroke="#e6b452" stroke-width="2" opacity=".9"/><path d="M154 239S132 260 121 272S98 298 91 307S82 321 82 321C82 321 89 319 97 312S121 293 133 283S166 252 166 252L154 239Z" fill="#c084fc" stroke="#c084fc" stroke-width="8" opacity=".5" filter="url(#lilith_assassin_e-f)"/><g clip-path="url(#lilith_assassin_e-5c)"><rect width="300" height="300" fill="#6a6f92"/><use href="#lilith_assassin_e-5" fill="#b4b8d0" transform="translate(0 5)"/><use href="#lilith_assassin_e-5" fill="none" stroke="#c084fc" stroke-width="2" transform="translate(-1 1)"/><use href="#lilith_assassin_e-5" fill="none" stroke="#f2f3fc" stroke-width="1.6" transform="translate(.8 .8)"/></g><use href="#lilith_assassin_e-5" fill="none" stroke="#171a30" stroke-width="1.8"/><path d="M154 245L96 303" fill="none" stroke="#fff" stroke-width="1.4" opacity=".85"/><path d="M158 220C160 219 157 229 158 232S169 237 169 237C169 237 171 246 173 248S187 248 185 249S175 255 170 256S158 248 158 248C158 248 150 240 150 236S157 221 158 220Z" fill="#e6b452" stroke="#3d2508" stroke-width="1.4"/><g clip-path="url(#lilith_assassin_e-6c)"><rect width="300" height="300" fill="#2e1f2e"/><use href="#lilith_assassin_e-6" fill="#4a3448" transform="translate(-4 -4)"/><use href="#lilith_assassin_e-6" fill="none" stroke="#c084fc" stroke-width="1.6" transform="translate(-.8 .8)"/><use href="#lilith_assassin_e-6" fill="none" stroke="#7a5a72" stroke-width="1.4" transform="translate(.7 .7)"/></g><use href="#lilith_assassin_e-6" fill="none" stroke="#140a12" stroke-width="1.8"/><path d="M196 219Q205 231 216 241M191 225Q199 236 209 246" fill="none" stroke="#2e1f2e" stroke-width="1.2" opacity=".9"/><path d="M198 214C200 213 206 217 210 219S217 226 218 229S219 235 217 235S211 232 208 229S198 224 197 221S196 214 198 214Z" fill="#4a3448" stroke="#140a12" stroke-width="1.4"/></g><rect width="300" height="300" fill="url(#lilith_assassin_e-rimg)" mask="url(#lilith_assassin_e-rim)" opacity=".95"/><path d="M191 266L193 269L192 272L190 269ZM200 177L200 178L199 180L199 178ZM248 101L249 105L246 108L245 105Z" fill="#d9a441" opacity=".85"/><path d="M143 83L144 86L141 90L141 86ZM235 80L238 84L237 89L234 84ZM122 163L122 164L121 166L121 164Z" fill="#c084fc" opacity=".6"/><path d="M215 94L216 96L215 98L214 96ZM234 191L237 194L236 197L233 194ZM282 49L283 51L282 53L281 51Z" fill="#f3e2ff" opacity=".45"/><path d="M0 0H130L0 150Z" fill="url(#lilith_assassin_e-wash)"/><rect width="300" height="300" fill="url(#lilith_assassin_e-vig)"/><rect y="240" width="300" height="60" fill="url(#lilith_assassin_e-fade)"/><rect width="300" height="300" fill="#ffb15e" opacity=".1" style="mix-blend-mode:soft-light"/><rect width="300" height="300" fill="url(#lilith_assassin_e-top)" style="mix-blend-mode:screen"/><circle cx="230" cy="139.3" r="14.7" fill="url(#lilith_assassin_e-glint)"/><circle cx="71.3" cy="205.1" r="13.3" fill="url(#lilith_assassin_e-glint)"/><circle cx="87.4" cy="18.4" r="9.9" fill="url(#lilith_assassin_e-glint)"/><path d="M199.5 215.8a1.2 1.2 0 1 0 2.4 0a1.2 1.2 0 1 0 -2.4 0ZM244.7 21.8a1.2 1.2 0 1 0 2.4 0a1.2 1.2 0 1 0 -2.4 0ZM20.1 192.9a0.9 0.9 0 1 0 1.8 0a0.9 0.9 0 1 0 -1.8 0ZM99.3 250.6a1.2 1.2 0 1 0 2.4 0a1.2 1.2 0 1 0 -2.4 0ZM276.1 112.1a0.6 0.6 0 1 0 1.2 0a0.6 0.6 0 1 0 -1.2 0ZM173.6 190.3a0.6 0.6 0 1 0 1.2 0a0.6 0.6 0 1 0 -1.2 0ZM48 160.6a1 1 0 1 0 2 0a1 1 0 1 0 -2 0ZM199.2 191.5a1.4 1.4 0 1 0 2.8 0a1.4 1.4 0 1 0 -2.8 0ZM101.8 97.8a1 1 0 1 0 2 0a1 1 0 1 0 -2 0ZM181.4 41.4a0.6 0.6 0 1 0 1.2 0a0.6 0.6 0 1 0 -1.2 0ZM133.6 42.7a0.9 0.9 0 1 0 1.8 0a0.9 0.9 0 1 0 -1.8 0ZM284.1 30.4a0.7 0.7 0 1 0 1.4 0a0.7 0.7 0 1 0 -1.4 0ZM79.3 132.4a0.7 0.7 0 1 0 1.4 0a0.7 0.7 0 1 0 -1.4 0ZM267 185.8a0.8 0.8 0 1 0 1.6 0a0.8 0.8 0 1 0 -1.6 0ZM72.4 81.7a1.2 1.2 0 1 0 2.4 0a1.2 1.2 0 1 0 -2.4 0ZM286.6 219.1a0.9 0.9 0 1 0 1.8 0a0.9 0.9 0 1 0 -1.8 0ZM45.5 148.9a1.3 1.3 0 1 0 2.6 0a1.3 1.3 0 1 0 -2.6 0ZM231.9 154.9a1.2 1.2 0 1 0 2.4 0a1.2 1.2 0 1 0 -2.4 0ZM73.2 226.6a0.9 0.9 0 1 0 1.8 0a0.9 0.9 0 1 0 -1.8 0ZM214.6 36.9a0.9 0.9 0 1 0 1.8 0a0.9 0.9 0 1 0 -1.8 0ZM242.8 97.7a1.4 1.4 0 1 0 2.8 0a1.4 1.4 0 1 0 -2.8 0Z" fill="#ffe3a0" opacity=".75"/><path d="M230 130.1Q231.9 137.5 239.3 139.3Q231.9 141.2 230 148.5Q228.2 141.2 220.8 139.3Q228.2 137.5 230 130.1ZM229.4 202.6Q230.1 205.2 232.7 205.9Q230.1 206.5 229.4 209.1Q228.8 206.5 226.1 205.9Q228.8 205.2 229.4 202.6ZM154.3 257.2Q154.9 259.4 157.2 260Q154.9 260.6 154.3 262.9Q153.7 260.6 151.5 260Q153.7 259.4 154.3 257.2ZM71.3 196.8Q73 203.4 79.6 205.1Q73 206.7 71.3 213.4Q69.6 206.7 63 205.1Q69.6 203.4 71.3 196.8ZM41 151.1Q41.7 154 44.6 154.7Q41.7 155.4 41 158.3Q40.3 155.4 37.4 154.7Q40.3 154 41 151.1ZM95.7 72.8Q96.5 76.2 99.9 77.1Q96.5 77.9 95.7 81.3Q94.8 77.9 91.4 77.1Q94.8 76.2 95.7 72.8ZM87.4 12.2Q88.6 17.2 93.6 18.4Q88.6 19.7 87.4 24.6Q86.2 19.7 81.2 18.4Q86.2 17.2 87.4 12.2ZM208.8 64.8Q209.5 67.6 212.3 68.4Q209.5 69.1 208.8 71.9Q208 69.1 205.2 68.4Q208 67.6 208.8 64.8ZM239.6 76.8Q240.6 80.8 244.6 81.8Q240.6 82.8 239.6 86.7Q238.6 82.8 234.6 81.8Q238.6 80.8 239.6 76.8Z" fill="#fff6dc"/><rect x="2.5" y="2.5" width="295" height="295" rx="5" fill="none" stroke="url(#lilith_assassin_e-edge)" stroke-width="2" opacity=".55"/></svg>
